<svg width="65" height="92" viewBox="0 0 65 92" fill="none" xmlns="http://www.w3.org/2000/svg">
<g id="angular">
<g id="txt">
<path d="M13.6899 86.6748H10.4019L9.82764 88.5342H7.26416L10.9146 78.5811H13.1704L16.8481 88.5342H14.271L13.6899 86.6748ZM10.9761 84.8223H13.1157L12.0425 81.3701L10.9761 84.8223Z" fill="black"/>
<path d="M19.2612 81.1377L19.3364 82.0059C19.8468 81.3359 20.5509 81.001 21.4487 81.001C22.2189 81.001 22.7931 81.2311 23.1714 81.6914C23.5542 82.1517 23.7524 82.8444 23.7661 83.7695V88.5342H21.4556V83.8652C21.4556 83.4915 21.3804 83.2181 21.23 83.0449C21.0796 82.8672 20.8062 82.7783 20.4097 82.7783C19.9585 82.7783 19.6235 82.9561 19.4048 83.3115V88.5342H17.1011V81.1377H19.2612Z" fill="black"/>
<path d="M24.7778 84.7812C24.7778 84.0339 24.9009 83.373 25.147 82.7988C25.3931 82.2246 25.7463 81.7826 26.2065 81.4727C26.6668 81.1582 27.2023 81.001 27.813 81.001C28.5832 81.001 29.1847 81.2607 29.6177 81.7803L29.6997 81.1377H31.7915V88.2539C31.7915 88.9056 31.6388 89.4707 31.3335 89.9492C31.0327 90.4323 30.5952 90.8014 30.021 91.0566C29.4468 91.3164 28.7814 91.4463 28.0249 91.4463C27.4826 91.4463 26.9562 91.3438 26.4458 91.1387C25.9399 90.9336 25.5526 90.667 25.2837 90.3389L26.2476 88.9854C26.6759 89.4912 27.241 89.7441 27.9429 89.7441C28.9637 89.7441 29.4741 89.2201 29.4741 88.1719V87.9395C29.0321 88.4271 28.4738 88.6709 27.7993 88.6709C26.897 88.6709 26.1678 88.3268 25.6118 87.6387C25.0558 86.946 24.7778 86.0208 24.7778 84.8633V84.7812ZM27.0884 84.9248C27.0884 85.5309 27.2023 86.0117 27.4302 86.3672C27.658 86.7181 27.9771 86.8936 28.3872 86.8936C28.884 86.8936 29.2463 86.7272 29.4741 86.3945V83.2842C29.2508 82.9469 28.8931 82.7783 28.4009 82.7783C27.9907 82.7783 27.6694 82.9629 27.437 83.332C27.2046 83.6966 27.0884 84.2275 27.0884 84.9248Z" fill="black"/>
<path d="M37.5063 87.7344C37.0187 88.3587 36.3602 88.6709 35.5308 88.6709C34.7196 88.6709 34.1043 88.4362 33.6851 87.9668C33.2703 87.4928 33.063 86.8138 33.063 85.9297V81.1377H35.3667V85.9434C35.3667 86.5768 35.6743 86.8936 36.2896 86.8936C36.8182 86.8936 37.1942 86.7044 37.4175 86.3262V81.1377H39.7349V88.5342H37.5747L37.5063 87.7344Z" fill="black"/>
<path d="M43.4331 88.5342H41.1226V78.0342H43.4331V88.5342Z" fill="black"/>
<path d="M49.0249 88.5342C48.9429 88.3838 48.87 88.1628 48.8062 87.8711C48.3823 88.4043 47.7899 88.6709 47.0288 88.6709C46.3315 88.6709 45.7391 88.4613 45.2515 88.042C44.7638 87.6182 44.52 87.0872 44.52 86.4492C44.52 85.6471 44.8162 85.041 45.4087 84.6309C46.0011 84.2207 46.8625 84.0156 47.9927 84.0156H48.7036V83.626C48.7036 82.9469 48.4097 82.6074 47.8218 82.6074C47.2749 82.6074 47.0015 82.8763 47.0015 83.4141H44.6978C44.6978 82.6986 45.0008 82.1175 45.6069 81.6709C46.2176 81.2243 46.9946 81.001 47.938 81.001C48.8813 81.001 49.6265 81.2311 50.1733 81.6914C50.7202 82.1517 51.0005 82.7829 51.0142 83.585V86.8594C51.0233 87.5384 51.1281 88.0579 51.3286 88.418V88.5342H49.0249ZM47.5825 87.0303C47.8696 87.0303 48.1066 86.9688 48.2935 86.8457C48.4849 86.7227 48.6216 86.5837 48.7036 86.4287V85.2461H48.0337C47.2316 85.2461 46.8306 85.6061 46.8306 86.3262C46.8306 86.5358 46.9012 86.7067 47.0425 86.8389C47.1838 86.9665 47.3638 87.0303 47.5825 87.0303Z" fill="black"/>
<path d="M56.77 83.2227L56.0112 83.168C55.2866 83.168 54.8218 83.3958 54.6167 83.8516V88.5342H52.313V81.1377H54.4731L54.5483 82.0879C54.9357 81.3633 55.4757 81.001 56.1685 81.001C56.4146 81.001 56.6287 81.0283 56.811 81.083L56.77 83.2227Z" fill="black"/>
</g>
<g id="icon">
<path id="Vector" d="M26.5199 33.9251H37.5546L32.0346 20.8371L26.5199 33.9251ZM32.0346 0.205078L1.85059 10.8237L6.45325 50.2131L32.0373 64.2051L57.6266 50.2264L62.2239 10.8291L32.0346 0.207745V0.205078ZM50.8719 49.0317H43.8372L40.0452 39.6904H24.0266L20.2346 49.0344H13.1946L32.0373 7.27175L50.8719 49.0317Z" fill="black"/>
</g>
</g>
</svg>
