<svg width="65" height="93" viewBox="0 0 65 93" fill="none" xmlns="http://www.w3.org/2000/svg">
<g id="bootstrap">
<g id="txt">
<path d="M2.12891 89.5342V79.5811H5.7041C6.9847 79.5811 7.95768 79.8158 8.62305 80.2852C9.29297 80.7546 9.62793 81.4359 9.62793 82.3291C9.62793 82.8441 9.50944 83.2839 9.27246 83.6484C9.03548 84.013 8.68685 84.2819 8.22656 84.4551C8.74609 84.5918 9.14486 84.847 9.42285 85.2207C9.70085 85.5944 9.83984 86.0501 9.83984 86.5879C9.83984 87.5632 9.52995 88.2969 8.91016 88.7891C8.29492 89.2767 7.38119 89.5251 6.16895 89.5342H2.12891ZM4.52832 85.3027V87.6885H6.10059C6.53353 87.6885 6.86621 87.5905 7.09863 87.3945C7.33105 87.194 7.44727 86.9137 7.44727 86.5537C7.44727 85.7243 7.03483 85.3073 6.20996 85.3027H4.52832ZM4.52832 83.7305H5.7793C6.30339 83.7259 6.67708 83.6302 6.90039 83.4434C7.1237 83.2565 7.23535 82.9808 7.23535 82.6162C7.23535 82.1969 7.11458 81.8962 6.87305 81.7139C6.63151 81.527 6.24186 81.4336 5.7041 81.4336H4.52832V83.7305Z" fill="black"/>
<path d="M10.7695 85.7676C10.7695 85.0293 10.9131 84.373 11.2002 83.7988C11.4873 83.2201 11.8997 82.7757 12.4375 82.4658C12.9753 82.1559 13.6064 82.001 14.3311 82.001C15.4385 82.001 16.3112 82.3451 16.9492 83.0332C17.5872 83.7168 17.9062 84.6488 17.9062 85.8291V85.9111C17.9062 87.0641 17.585 87.9801 16.9424 88.6592C16.3044 89.3337 15.4385 89.6709 14.3447 89.6709C13.292 89.6709 12.4466 89.3564 11.8086 88.7275C11.1706 88.0941 10.8265 87.2373 10.7764 86.1572L10.7695 85.7676ZM13.0732 85.9111C13.0732 86.5947 13.1803 87.096 13.3945 87.415C13.6087 87.734 13.9255 87.8936 14.3447 87.8936C15.165 87.8936 15.5843 87.2624 15.6025 86V85.7676C15.6025 84.4414 15.1787 83.7783 14.3311 83.7783C13.5609 83.7783 13.1439 84.3503 13.0801 85.4941L13.0732 85.9111Z" fill="black"/>
<path d="M18.6309 85.7676C18.6309 85.0293 18.7744 84.373 19.0615 83.7988C19.3486 83.2201 19.7611 82.7757 20.2988 82.4658C20.8366 82.1559 21.4678 82.001 22.1924 82.001C23.2998 82.001 24.1725 82.3451 24.8105 83.0332C25.4486 83.7168 25.7676 84.6488 25.7676 85.8291V85.9111C25.7676 87.0641 25.4463 87.9801 24.8037 88.6592C24.1657 89.3337 23.2998 89.6709 22.2061 89.6709C21.1533 89.6709 20.3079 89.3564 19.6699 88.7275C19.0319 88.0941 18.6878 87.2373 18.6377 86.1572L18.6309 85.7676ZM20.9346 85.9111C20.9346 86.5947 21.0417 87.096 21.2559 87.415C21.4701 87.734 21.7868 87.8936 22.2061 87.8936C23.0264 87.8936 23.4456 87.2624 23.4639 86V85.7676C23.4639 84.4414 23.04 83.7783 22.1924 83.7783C21.4222 83.7783 21.0052 84.3503 20.9414 85.4941L20.9346 85.9111Z" fill="black"/>
<path d="M29.4658 80.2988V82.1377H30.6826V83.7373H29.4658V87.1211C29.4658 87.3991 29.516 87.5928 29.6162 87.7021C29.7165 87.8115 29.9147 87.8662 30.2109 87.8662C30.4388 87.8662 30.6302 87.8525 30.7852 87.8252V89.4727C30.3704 89.6048 29.9375 89.6709 29.4863 89.6709C28.6934 89.6709 28.1077 89.484 27.7295 89.1104C27.3512 88.7367 27.1621 88.1693 27.1621 87.4082V83.7373H26.2188V82.1377H27.1621V80.2988H29.4658Z" fill="black"/>
<path d="M35.4678 87.4561C35.4678 87.2601 35.3652 87.1029 35.1602 86.9844C34.9551 86.8659 34.5654 86.7428 33.9912 86.6152C33.417 86.4876 32.943 86.3213 32.5693 86.1162C32.1956 85.9066 31.9108 85.6536 31.7148 85.3574C31.5189 85.0612 31.4209 84.7217 31.4209 84.3389C31.4209 83.6598 31.7012 83.1016 32.2617 82.6641C32.8223 82.222 33.556 82.001 34.4629 82.001C35.4382 82.001 36.222 82.222 36.8145 82.6641C37.4069 83.1061 37.7031 83.6872 37.7031 84.4072H35.3926C35.3926 83.8148 35.0804 83.5186 34.4561 83.5186C34.2145 83.5186 34.0117 83.5869 33.8477 83.7236C33.6836 83.8558 33.6016 84.0221 33.6016 84.2227C33.6016 84.4277 33.7018 84.5941 33.9023 84.7217C34.1029 84.8493 34.4219 84.9541 34.8594 85.0361C35.3014 85.1182 35.6888 85.2161 36.0215 85.3301C37.1335 85.7129 37.6895 86.3988 37.6895 87.3877C37.6895 88.0622 37.3887 88.6113 36.7871 89.0352C36.1901 89.459 35.4154 89.6709 34.4629 89.6709C33.8294 89.6709 33.2643 89.557 32.7676 89.3291C32.2708 89.1012 31.8835 88.7913 31.6055 88.3994C31.3275 88.0075 31.1885 87.5951 31.1885 87.1621H33.3418C33.3509 87.5039 33.4648 87.7546 33.6836 87.9141C33.9023 88.069 34.1826 88.1465 34.5244 88.1465C34.8389 88.1465 35.0736 88.0827 35.2285 87.9551C35.388 87.8275 35.4678 87.6611 35.4678 87.4561Z" fill="black"/>
<path d="M41.4561 80.2988V82.1377H42.6729V83.7373H41.4561V87.1211C41.4561 87.3991 41.5062 87.5928 41.6064 87.7021C41.7067 87.8115 41.9049 87.8662 42.2012 87.8662C42.429 87.8662 42.6204 87.8525 42.7754 87.8252V89.4727C42.3607 89.6048 41.9277 89.6709 41.4766 89.6709C40.6836 89.6709 40.098 89.484 39.7197 89.1104C39.3415 88.7367 39.1523 88.1693 39.1523 87.4082V83.7373H38.209V82.1377H39.1523V80.2988H41.4561Z" fill="black"/>
<path d="M48.0596 84.2227L47.3008 84.168C46.5762 84.168 46.1113 84.3958 45.9062 84.8516V89.5342H43.6025V82.1377H45.7627L45.8379 83.0879C46.2253 82.3633 46.7653 82.001 47.458 82.001C47.7041 82.001 47.9183 82.0283 48.1006 82.083L48.0596 84.2227Z" fill="black"/>
<path d="M52.8516 89.5342C52.7695 89.3838 52.6966 89.1628 52.6328 88.8711C52.209 89.4043 51.6165 89.6709 50.8555 89.6709C50.1582 89.6709 49.5658 89.4613 49.0781 89.042C48.5905 88.6182 48.3467 88.0872 48.3467 87.4492C48.3467 86.6471 48.6429 86.041 49.2354 85.6309C49.8278 85.2207 50.6891 85.0156 51.8193 85.0156H52.5303V84.626C52.5303 83.9469 52.2363 83.6074 51.6484 83.6074C51.1016 83.6074 50.8281 83.8763 50.8281 84.4141H48.5244C48.5244 83.6986 48.8275 83.1175 49.4336 82.6709C50.0443 82.2243 50.8213 82.001 51.7646 82.001C52.708 82.001 53.4531 82.2311 54 82.6914C54.5469 83.1517 54.8271 83.7829 54.8408 84.585V87.8594C54.8499 88.5384 54.9548 89.0579 55.1553 89.418V89.5342H52.8516ZM51.4092 88.0303C51.6963 88.0303 51.9333 87.9688 52.1201 87.8457C52.3115 87.7227 52.4482 87.5837 52.5303 87.4287V86.2461H51.8604C51.0583 86.2461 50.6572 86.6061 50.6572 87.3262C50.6572 87.5358 50.7279 87.7067 50.8691 87.8389C51.0104 87.9665 51.1904 88.0303 51.4092 88.0303Z" fill="black"/>
<path d="M62.9893 85.8906C62.9893 87.0391 62.7295 87.9574 62.21 88.6455C61.695 89.3291 60.9977 89.6709 60.1182 89.6709C59.4391 89.6709 58.8809 89.4225 58.4434 88.9258V92.3779H56.1396V82.1377H58.293L58.3613 82.8213C58.8034 82.2744 59.3844 82.001 60.1045 82.001C61.0159 82.001 61.7246 82.3382 62.2305 83.0127C62.7363 83.6826 62.9893 84.6055 62.9893 85.7812V85.8906ZM60.6855 85.7471C60.6855 84.4346 60.3027 83.7783 59.5371 83.7783C58.9902 83.7783 58.6257 83.9743 58.4434 84.3662V87.2783C58.6439 87.6885 59.013 87.8936 59.5508 87.8936C60.2845 87.8936 60.6628 87.2601 60.6855 85.9932V85.7471Z" fill="black"/>
</g>
<g id="icon">
<path id="Vector" d="M31.9453 30.5633H27.1079V22.4619H32.8466C35.9666 22.4619 37.7373 23.8539 37.7373 26.3713C37.7373 29.0593 35.6759 30.5633 31.9399 30.5633H31.9453ZM32.8093 33.7793H27.1106V42.7073H33.0599C36.9506 42.7073 39.0119 41.1473 39.0119 38.2139C39.0119 35.2806 36.8919 33.7793 32.8093 33.7793ZM64.5586 30.9633V34.2113C61.5506 34.4993 59.7133 36.7286 58.6226 40.2593C57.5373 43.7766 57.3879 48.0913 57.5026 51.4219C57.6226 54.8886 54.9213 58.0886 51.2706 58.0886H13.8519C10.1986 58.0886 7.49726 54.8886 7.61993 51.4219C7.73459 48.0913 7.58526 43.7766 6.49993 40.2593C5.40659 36.7286 3.56659 34.4993 0.558594 34.2113V30.9633C3.56659 30.6753 5.40926 28.4459 6.49726 24.9153C7.58526 21.3979 7.73459 17.0833 7.61726 13.7526C7.49726 10.2859 10.1986 7.08594 13.8519 7.08594H51.2706C54.9239 7.08594 57.6226 10.2859 57.5026 13.7526C57.3879 17.0833 57.5373 21.3979 58.6226 24.9153C59.7133 28.4459 61.5506 30.6753 64.5586 30.9633ZM43.4199 38.4753C43.4199 34.8646 40.8786 32.2539 37.1053 31.8406V31.6886C39.8786 31.2379 42.0546 28.6619 42.0546 25.7873C42.0546 21.6886 38.8199 19.0193 33.8893 19.0193H22.7959V46.1446H33.9453C39.8599 46.1446 43.4199 43.2486 43.4199 38.4753Z" fill="black"/>
</g>
</g>
</svg>
