<svg width="65" height="89" viewBox="0 0 65 89" fill="none" xmlns="http://www.w3.org/2000/svg">
<g id="bulma">
<g id="txt">
<path d="M13.3594 88.5342V78.5811H16.9346C18.2152 78.5811 19.1882 78.8158 19.8535 79.2852C20.5234 79.7546 20.8584 80.4359 20.8584 81.3291C20.8584 81.8441 20.7399 82.2839 20.5029 82.6484C20.266 83.013 19.9173 83.2819 19.457 83.4551C19.9766 83.5918 20.3753 83.847 20.6533 84.2207C20.9313 84.5944 21.0703 85.0501 21.0703 85.5879C21.0703 86.5632 20.7604 87.2969 20.1406 87.7891C19.5254 88.2767 18.6117 88.5251 17.3994 88.5342H13.3594ZM15.7588 84.3027V86.6885H17.3311C17.764 86.6885 18.0967 86.5905 18.3291 86.3945C18.5615 86.194 18.6777 85.9137 18.6777 85.5537C18.6777 84.7243 18.2653 84.3073 17.4404 84.3027H15.7588ZM15.7588 82.7305H17.0098C17.5339 82.7259 17.9076 82.6302 18.1309 82.4434C18.3542 82.2565 18.4658 81.9808 18.4658 81.6162C18.4658 81.1969 18.3451 80.8962 18.1035 80.7139C17.862 80.527 17.4723 80.4336 16.9346 80.4336H15.7588V82.7305Z" fill="black"/>
<path d="M26.6963 87.7344C26.2087 88.3587 25.5501 88.6709 24.7207 88.6709C23.9095 88.6709 23.2943 88.4362 22.875 87.9668C22.4603 87.4928 22.2529 86.8138 22.2529 85.9297V81.1377H24.5566V85.9434C24.5566 86.5768 24.8643 86.8936 25.4795 86.8936C26.0081 86.8936 26.3841 86.7044 26.6074 86.3262V81.1377H28.9248V88.5342H26.7646L26.6963 87.7344Z" fill="black"/>
<path d="M32.623 88.5342H30.3125V78.0342H32.623V88.5342Z" fill="black"/>
<path d="M36.2256 81.1377L36.3008 82.0059C36.8249 81.3359 37.529 81.001 38.4131 81.001C39.3473 81.001 39.9785 81.3724 40.3066 82.1152C40.8079 81.3724 41.5326 81.001 42.4805 81.001C43.9798 81.001 44.75 81.9079 44.791 83.7217V88.5342H42.4805V83.8652C42.4805 83.487 42.4167 83.2113 42.2891 83.0381C42.1615 82.8649 41.929 82.7783 41.5918 82.7783C41.1361 82.7783 40.7965 82.9811 40.5732 83.3867L40.5801 83.4824V88.5342H38.2695V83.8789C38.2695 83.4915 38.208 83.2113 38.085 83.0381C37.9619 82.8649 37.7272 82.7783 37.3809 82.7783C36.9388 82.7783 36.6016 82.9811 36.3691 83.3867V88.5342H34.0654V81.1377H36.2256Z" fill="black"/>
<path d="M50.2734 88.5342C50.1914 88.3838 50.1185 88.1628 50.0547 87.8711C49.6309 88.4043 49.0384 88.6709 48.2773 88.6709C47.5801 88.6709 46.9876 88.4613 46.5 88.042C46.0124 87.6182 45.7686 87.0872 45.7686 86.4492C45.7686 85.6471 46.0648 85.041 46.6572 84.6309C47.2497 84.2207 48.111 84.0156 49.2412 84.0156H49.9521V83.626C49.9521 82.9469 49.6582 82.6074 49.0703 82.6074C48.5234 82.6074 48.25 82.8763 48.25 83.4141H45.9463C45.9463 82.6986 46.2493 82.1175 46.8555 81.6709C47.4661 81.2243 48.2432 81.001 49.1865 81.001C50.1299 81.001 50.875 81.2311 51.4219 81.6914C51.9688 82.1517 52.249 82.7829 52.2627 83.585V86.8594C52.2718 87.5384 52.3766 88.0579 52.5771 88.418V88.5342H50.2734ZM48.8311 87.0303C49.1182 87.0303 49.3551 86.9688 49.542 86.8457C49.7334 86.7227 49.8701 86.5837 49.9521 86.4287V85.2461H49.2822C48.4801 85.2461 48.0791 85.6061 48.0791 86.3262C48.0791 86.5358 48.1497 86.7067 48.291 86.8389C48.4323 86.9665 48.6123 87.0303 48.8311 87.0303Z" fill="black"/>
</g>
<g id="icon">
<path id="Vector" d="M30.9688 0.205078L14.9688 16.2051L10.9688 44.2051L30.9688 64.2051L54.9688 48.2051L38.9688 32.2051L50.9688 20.2051L30.9688 0.205078Z" fill="black"/>
</g>
</g>
</svg>
