<svg width="75" height="92" viewBox="0 0 75 92" fill="none" xmlns="http://www.w3.org/2000/svg">
<g id="codeigniter">
<g id="txt">
<path d="M9.09131 85.1641C9.05941 85.8568 8.87256 86.4697 8.53076 87.0029C8.18896 87.5316 7.70817 87.9417 7.08838 88.2334C6.47314 88.5251 5.76904 88.6709 4.97607 88.6709C3.66813 88.6709 2.63818 88.2448 1.88623 87.3926C1.13428 86.5404 0.758301 85.3372 0.758301 83.7832V83.291C0.758301 82.3158 0.926921 81.4635 1.26416 80.7344C1.60596 80.0007 2.09587 79.4355 2.73389 79.0391C3.37191 78.638 4.11019 78.4375 4.94873 78.4375C6.15641 78.4375 7.12712 78.7565 7.86084 79.3945C8.59456 80.028 9.01156 80.903 9.11182 82.0195H6.71924C6.70101 81.4134 6.54834 80.9782 6.26123 80.7139C5.97412 80.4495 5.53662 80.3174 4.94873 80.3174C4.35173 80.3174 3.91423 80.5407 3.63623 80.9873C3.35824 81.4339 3.2124 82.1471 3.19873 83.127V83.8311C3.19873 84.8929 3.33089 85.6517 3.59521 86.1074C3.86409 86.5632 4.32438 86.791 4.97607 86.791C5.52751 86.791 5.94906 86.6611 6.24072 86.4014C6.53239 86.1416 6.68734 85.7292 6.70557 85.1641H9.09131Z" fill="black"/>
<path d="M9.82959 84.7676C9.82959 84.0293 9.97314 83.373 10.2603 82.7988C10.5474 82.2201 10.9598 81.7757 11.4976 81.4658C12.0353 81.1559 12.6665 81.001 13.3911 81.001C14.4985 81.001 15.3713 81.3451 16.0093 82.0332C16.6473 82.7168 16.9663 83.6488 16.9663 84.8291V84.9111C16.9663 86.0641 16.645 86.9801 16.0024 87.6592C15.3644 88.3337 14.4985 88.6709 13.4048 88.6709C12.3521 88.6709 11.5067 88.3564 10.8687 87.7275C10.2306 87.0941 9.88656 86.2373 9.83643 85.1572L9.82959 84.7676ZM12.1333 84.9111C12.1333 85.5947 12.2404 86.096 12.4546 86.415C12.6688 86.734 12.9855 86.8936 13.4048 86.8936C14.2251 86.8936 14.6444 86.2624 14.6626 85V84.7676C14.6626 83.4414 14.2388 82.7783 13.3911 82.7783C12.6209 82.7783 12.2039 83.3503 12.1401 84.4941L12.1333 84.9111Z" fill="black"/>
<path d="M17.6909 84.7812C17.6909 83.61 17.9438 82.6872 18.4497 82.0127C18.9556 81.3382 19.6619 81.001 20.5688 81.001C21.2297 81.001 21.7856 81.2607 22.2368 81.7803V78.0342H24.5474V88.5342H22.4761L22.3599 87.7412C21.8859 88.361 21.2843 88.6709 20.5552 88.6709C19.6756 88.6709 18.9784 88.3337 18.4634 87.6592C17.9484 86.9847 17.6909 86.0254 17.6909 84.7812ZM19.9946 84.9248C19.9946 86.2373 20.3774 86.8936 21.1431 86.8936C21.6535 86.8936 22.0181 86.6794 22.2368 86.251V83.4346C22.0272 82.9971 21.6672 82.7783 21.1567 82.7783C20.4458 82.7783 20.0607 83.3525 20.0015 84.501L19.9946 84.9248Z" fill="black"/>
<path d="M29.4351 88.6709C28.3003 88.6709 27.382 88.3337 26.6802 87.6592C25.9784 86.9801 25.6274 86.0983 25.6274 85.0137V84.8223C25.6274 84.0658 25.7664 83.3981 26.0444 82.8193C26.327 82.2406 26.7371 81.7939 27.2749 81.4795C27.8127 81.1605 28.4507 81.001 29.189 81.001C30.228 81.001 31.0483 81.3245 31.6499 81.9717C32.2515 82.6143 32.5522 83.512 32.5522 84.665V85.5605H27.9722C28.0542 85.9753 28.2342 86.3011 28.5122 86.5381C28.7902 86.7751 29.1502 86.8936 29.5923 86.8936C30.3215 86.8936 30.8911 86.6383 31.3013 86.1279L32.354 87.3721C32.0669 87.7686 31.659 88.0853 31.1304 88.3223C30.6063 88.5547 30.0412 88.6709 29.4351 88.6709ZM29.1753 82.7783C28.5008 82.7783 28.0998 83.2249 27.9722 84.1182H30.2964V83.9404C30.3055 83.5713 30.2121 83.2865 30.0161 83.0859C29.8202 82.8809 29.5399 82.7783 29.1753 82.7783Z" fill="black"/>
<path d="M36.1479 88.5342H33.7554V78.5811H36.1479V88.5342Z" fill="black"/>
<path d="M37.4399 84.7812C37.4399 84.0339 37.563 83.373 37.8091 82.7988C38.0552 82.2246 38.4084 81.7826 38.8687 81.4727C39.3289 81.1582 39.8644 81.001 40.4751 81.001C41.2453 81.001 41.8468 81.2607 42.2798 81.7803L42.3618 81.1377H44.4536V88.2539C44.4536 88.9056 44.3009 89.4707 43.9956 89.9492C43.6948 90.4323 43.2573 90.8014 42.6831 91.0566C42.1089 91.3164 41.4435 91.4463 40.687 91.4463C40.1447 91.4463 39.6183 91.3438 39.1079 91.1387C38.6021 90.9336 38.2147 90.667 37.9458 90.3389L38.9097 88.9854C39.3381 89.4912 39.9032 89.7441 40.605 89.7441C41.6258 89.7441 42.1362 89.2201 42.1362 88.1719V87.9395C41.6942 88.4271 41.1359 88.6709 40.4614 88.6709C39.5591 88.6709 38.8299 88.3268 38.2739 87.6387C37.7179 86.946 37.4399 86.0208 37.4399 84.8633V84.7812ZM39.7505 84.9248C39.7505 85.5309 39.8644 86.0117 40.0923 86.3672C40.3201 86.7181 40.6392 86.8936 41.0493 86.8936C41.5461 86.8936 41.9084 86.7272 42.1362 86.3945V83.2842C41.9129 82.9469 41.5552 82.7783 41.063 82.7783C40.6528 82.7783 40.3315 82.9629 40.0991 83.332C39.8667 83.6966 39.7505 84.2275 39.7505 84.9248Z" fill="black"/>
<path d="M47.8784 81.1377L47.9536 82.0059C48.464 81.3359 49.1681 81.001 50.0659 81.001C50.8361 81.001 51.4103 81.2311 51.7886 81.6914C52.1714 82.1517 52.3696 82.8444 52.3833 83.7695V88.5342H50.0728V83.8652C50.0728 83.4915 49.9976 83.2181 49.8472 83.0449C49.6968 82.8672 49.4233 82.7783 49.0269 82.7783C48.5757 82.7783 48.2407 82.9561 48.022 83.3115V88.5342H45.7183V81.1377H47.8784Z" fill="black"/>
<path d="M56.0952 88.5342H53.7847V81.1377H56.0952V88.5342ZM53.6479 79.2305C53.6479 78.9023 53.7664 78.6335 54.0034 78.4238C54.2404 78.2142 54.548 78.1094 54.9263 78.1094C55.3045 78.1094 55.6121 78.2142 55.8491 78.4238C56.0861 78.6335 56.2046 78.9023 56.2046 79.2305C56.2046 79.5586 56.0861 79.8275 55.8491 80.0371C55.6121 80.2467 55.3045 80.3516 54.9263 80.3516C54.548 80.3516 54.2404 80.2467 54.0034 80.0371C53.7664 79.8275 53.6479 79.5586 53.6479 79.2305Z" fill="black"/>
<path d="M60.2036 79.2988V81.1377H61.4204V82.7373H60.2036V86.1211C60.2036 86.3991 60.2537 86.5928 60.354 86.7021C60.4543 86.8115 60.6525 86.8662 60.9487 86.8662C61.1766 86.8662 61.368 86.8525 61.5229 86.8252V88.4727C61.1082 88.6048 60.6753 88.6709 60.2241 88.6709C59.4312 88.6709 58.8455 88.484 58.4673 88.1104C58.089 87.7367 57.8999 87.1693 57.8999 86.4082V82.7373H56.9565V81.1377H57.8999V79.2988H60.2036Z" fill="black"/>
<path d="M65.9116 88.6709C64.7769 88.6709 63.8586 88.3337 63.1567 87.6592C62.4549 86.9801 62.104 86.0983 62.104 85.0137V84.8223C62.104 84.0658 62.243 83.3981 62.521 82.8193C62.8035 82.2406 63.2137 81.7939 63.7515 81.4795C64.2892 81.1605 64.9272 81.001 65.6655 81.001C66.7046 81.001 67.5249 81.3245 68.1265 81.9717C68.728 82.6143 69.0288 83.512 69.0288 84.665V85.5605H64.4487C64.5308 85.9753 64.7108 86.3011 64.9888 86.5381C65.2668 86.7751 65.6268 86.8936 66.0688 86.8936C66.798 86.8936 67.3677 86.6383 67.7778 86.1279L68.8306 87.3721C68.5435 87.7686 68.1356 88.0853 67.6069 88.3223C67.0828 88.5547 66.5177 88.6709 65.9116 88.6709ZM65.6519 82.7783C64.9774 82.7783 64.5763 83.2249 64.4487 84.1182H66.7729V83.9404C66.7821 83.5713 66.6886 83.2865 66.4927 83.0859C66.2967 82.8809 66.0164 82.7783 65.6519 82.7783Z" fill="black"/>
<path d="M74.436 83.2227L73.6772 83.168C72.9526 83.168 72.4878 83.3958 72.2827 83.8516V88.5342H69.979V81.1377H72.1392L72.2144 82.0879C72.6017 81.3633 73.1418 81.001 73.8345 81.001C74.0806 81.001 74.2948 81.0283 74.4771 81.083L74.436 83.2227Z" fill="black"/>
</g>
<g id="icon">
<path id="Vector" d="M36.1726 0.931641C38.5559 4.72631 35.4142 9.74764 32.9036 12.553C30.4688 15.273 27.5086 17.5476 24.8192 20.0196C21.9322 22.6756 19.1561 25.4703 16.7836 28.5876C12.0359 34.825 9.12715 42.6676 11.264 50.4516C13.3982 58.2276 20.2394 63.177 27.9663 64.929C24.0663 63.2703 20.4209 59.0543 20.4101 54.7423C20.4019 50.0356 23.4299 46.0436 27.1944 43.4196C26.7422 45.105 26.4957 46.6463 27.6142 48.1503C28.1333 48.8384 28.842 49.3655 29.6561 49.6689C30.4703 49.9724 31.3558 50.0395 32.2076 49.8623C36.2349 48.993 36.4217 44.6356 34.033 42.0916C31.6713 39.577 29.3882 36.7343 30.2847 33.0863C30.7369 31.2596 31.8772 29.545 33.3207 28.321C32.2103 31.1956 35.3655 34.0276 37.4455 35.441C41.053 37.889 45.0099 39.7396 48.3249 42.609C51.8132 45.6276 54.3915 49.705 53.8688 54.4356C53.3055 59.5636 49.1672 63.129 44.5251 64.9316C54.3347 62.7983 64.4719 55.305 64.6751 44.593C64.9269 36.5076 59.5211 29.3476 50.7055 24.9023C51.2201 26.1823 50.9059 26.761 50.5484 27.3663C49.0588 29.8836 44.9097 30.4383 42.8703 27.857C39.6067 23.729 42.938 19.281 43.4038 14.9103C43.9861 9.43031 40.4978 4.11297 36.1726 0.931641V0.931641Z" fill="black"/>
</g>
</g>
</svg>
