<svg width="65" height="90" viewBox="0 0 65 90" fill="none" xmlns="http://www.w3.org/2000/svg">
<g id="cordova">
<g id="txt">
<path d="M15.0044 86.1641C14.9725 86.8568 14.7856 87.4697 14.4438 88.0029C14.1021 88.5316 13.6213 88.9417 13.0015 89.2334C12.3862 89.5251 11.6821 89.6709 10.8892 89.6709C9.58122 89.6709 8.55127 89.2448 7.79932 88.3926C7.04736 87.5404 6.67139 86.3372 6.67139 84.7832V84.291C6.67139 83.3158 6.84001 82.4635 7.17725 81.7344C7.51904 81.0007 8.00895 80.4355 8.64697 80.0391C9.28499 79.638 10.0233 79.4375 10.8618 79.4375C12.0695 79.4375 13.0402 79.7565 13.7739 80.3945C14.5076 81.028 14.9246 81.903 15.0249 83.0195H12.6323C12.6141 82.4134 12.4614 81.9782 12.1743 81.7139C11.8872 81.4495 11.4497 81.3174 10.8618 81.3174C10.2648 81.3174 9.82731 81.5407 9.54932 81.9873C9.27132 82.4339 9.12549 83.1471 9.11182 84.127V84.8311C9.11182 85.8929 9.24398 86.6517 9.5083 87.1074C9.77718 87.5632 10.2375 87.791 10.8892 87.791C11.4406 87.791 11.8621 87.6611 12.1538 87.4014C12.4455 87.1416 12.6004 86.7292 12.6187 86.1641H15.0044Z" fill="black"/>
<path d="M15.7427 85.7676C15.7427 85.0293 15.8862 84.373 16.1733 83.7988C16.4604 83.2201 16.8729 82.7757 17.4106 82.4658C17.9484 82.1559 18.5796 82.001 19.3042 82.001C20.4116 82.001 21.2843 82.3451 21.9224 83.0332C22.5604 83.7168 22.8794 84.6488 22.8794 85.8291V85.9111C22.8794 87.0641 22.5581 87.9801 21.9155 88.6592C21.2775 89.3337 20.4116 89.6709 19.3179 89.6709C18.2651 89.6709 17.4198 89.3564 16.7817 88.7275C16.1437 88.0941 15.7996 87.2373 15.7495 86.1572L15.7427 85.7676ZM18.0464 85.9111C18.0464 86.5947 18.1535 87.096 18.3677 87.415C18.5819 87.734 18.8986 87.8936 19.3179 87.8936C20.1382 87.8936 20.5575 87.2624 20.5757 86V85.7676C20.5757 84.4414 20.1519 83.7783 19.3042 83.7783C18.534 83.7783 18.117 84.3503 18.0532 85.4941L18.0464 85.9111Z" fill="black"/>
<path d="M28.3687 84.2227L27.6099 84.168C26.8853 84.168 26.4204 84.3958 26.2153 84.8516V89.5342H23.9116V82.1377H26.0718L26.147 83.0879C26.5343 82.3633 27.0744 82.001 27.7671 82.001C28.0132 82.001 28.2274 82.0283 28.4097 82.083L28.3687 84.2227Z" fill="black"/>
<path d="M28.772 85.7812C28.772 84.61 29.0249 83.6872 29.5308 83.0127C30.0366 82.3382 30.743 82.001 31.6499 82.001C32.3107 82.001 32.8667 82.2607 33.3179 82.7803V79.0342H35.6284V89.5342H33.5571L33.4409 88.7412C32.967 89.361 32.3654 89.6709 31.6362 89.6709C30.7567 89.6709 30.0594 89.3337 29.5444 88.6592C29.0295 87.9847 28.772 87.0254 28.772 85.7812ZM31.0757 85.9248C31.0757 87.2373 31.4585 87.8936 32.2241 87.8936C32.7345 87.8936 33.0991 87.6794 33.3179 87.251V84.4346C33.1082 83.9971 32.7482 83.7783 32.2378 83.7783C31.5269 83.7783 31.1418 84.3525 31.0825 85.501L31.0757 85.9248Z" fill="black"/>
<path d="M36.647 85.7676C36.647 85.0293 36.7905 84.373 37.0776 83.7988C37.3647 83.2201 37.7772 82.7757 38.3149 82.4658C38.8527 82.1559 39.4839 82.001 40.2085 82.001C41.3159 82.001 42.1886 82.3451 42.8267 83.0332C43.4647 83.7168 43.7837 84.6488 43.7837 85.8291V85.9111C43.7837 87.0641 43.4624 87.9801 42.8198 88.6592C42.1818 89.3337 41.3159 89.6709 40.2222 89.6709C39.1694 89.6709 38.3241 89.3564 37.686 88.7275C37.048 88.0941 36.7039 87.2373 36.6538 86.1572L36.647 85.7676ZM38.9507 85.9111C38.9507 86.5947 39.0578 87.096 39.272 87.415C39.4862 87.734 39.8029 87.8936 40.2222 87.8936C41.0425 87.8936 41.4618 87.2624 41.48 86V85.7676C41.48 84.4414 41.0562 83.7783 40.2085 83.7783C39.4383 83.7783 39.0213 84.3503 38.9575 85.4941L38.9507 85.9111Z" fill="black"/>
<path d="M47.6392 86.793L48.8081 82.1377H51.2349L48.8218 89.5342H46.4702L44.0571 82.1377H46.4907L47.6392 86.793Z" fill="black"/>
<path d="M55.979 89.5342C55.897 89.3838 55.8241 89.1628 55.7603 88.8711C55.3364 89.4043 54.744 89.6709 53.9829 89.6709C53.2856 89.6709 52.6932 89.4613 52.2056 89.042C51.7179 88.6182 51.4741 88.0872 51.4741 87.4492C51.4741 86.6471 51.7703 86.041 52.3628 85.6309C52.9552 85.2207 53.8166 85.0156 54.9468 85.0156H55.6577V84.626C55.6577 83.9469 55.3638 83.6074 54.7759 83.6074C54.229 83.6074 53.9556 83.8763 53.9556 84.4141H51.6519C51.6519 83.6986 51.9549 83.1175 52.561 82.6709C53.1717 82.2243 53.9487 82.001 54.8921 82.001C55.8354 82.001 56.5806 82.2311 57.1274 82.6914C57.6743 83.1517 57.9546 83.7829 57.9683 84.585V87.8594C57.9774 88.5384 58.0822 89.0579 58.2827 89.418V89.5342H55.979ZM54.5366 88.0303C54.8237 88.0303 55.0607 87.9688 55.2476 87.8457C55.439 87.7227 55.5757 87.5837 55.6577 87.4287V86.2461H54.9878C54.1857 86.2461 53.7847 86.6061 53.7847 87.3262C53.7847 87.5358 53.8553 87.7067 53.9966 87.8389C54.1379 87.9665 54.3179 88.0303 54.5366 88.0303Z" fill="black"/>
</g>
<g id="icon">
<path id="Vector" d="M49.9304 2.04102H15.0237L0.477051 25.3157L6.29572 63.1343H16.6584L15.9304 54.4063H21.0211L21.7491 63.1343H43.2024L43.9304 54.4063H49.0211L48.2931 63.1343H58.6557L64.4771 25.3157L49.9304 2.04102ZM49.9304 48.5877H15.0237L12.1144 25.3157L17.9331 13.6783H27.2824L26.6584 18.041H38.2957L37.6717 13.6783H47.0211L52.8397 25.3157L49.9304 48.5877ZM41.9304 30.041C42.7331 30.041 43.3837 32.4623 43.3837 35.4517C43.3837 38.441 42.7331 40.8623 41.9304 40.8623C41.1277 40.8623 40.4771 38.441 40.4771 35.4517C40.4771 32.465 41.1277 30.041 41.9304 30.041ZM23.5677 30.4943C24.3704 30.4943 25.0211 32.9157 25.0211 35.905C25.0211 38.8943 24.3704 41.3157 23.5677 41.3157C22.7651 41.3157 22.1144 38.8943 22.1144 35.905C22.1144 32.9157 22.7651 30.4943 23.5677 30.4943Z" fill="black"/>
</g>
</g>
</svg>
