<svg width="65" height="89" viewBox="0 0 65 89" fill="none" xmlns="http://www.w3.org/2000/svg">
<g id="css3">
<g id="txt">
<path d="M22.4497 85.1641C22.4178 85.8568 22.231 86.4697 21.8892 87.0029C21.5474 87.5316 21.0666 87.9417 20.4468 88.2334C19.8315 88.5251 19.1274 88.6709 18.3345 88.6709C17.0265 88.6709 15.9966 88.2448 15.2446 87.3926C14.4927 86.5404 14.1167 85.3372 14.1167 83.7832V83.291C14.1167 82.3158 14.2853 81.4635 14.6226 80.7344C14.9644 80.0007 15.4543 79.4355 16.0923 79.0391C16.7303 78.638 17.4686 78.4375 18.3071 78.4375C19.5148 78.4375 20.4855 78.7565 21.2192 79.3945C21.953 80.028 22.37 80.903 22.4702 82.0195H20.0776C20.0594 81.4134 19.9067 80.9782 19.6196 80.7139C19.3325 80.4495 18.895 80.3174 18.3071 80.3174C17.7101 80.3174 17.2726 80.5407 16.9946 80.9873C16.7166 81.4339 16.5708 82.1471 16.5571 83.127V83.8311C16.5571 84.8929 16.6893 85.6517 16.9536 86.1074C17.2225 86.5632 17.6828 86.791 18.3345 86.791C18.8859 86.791 19.3075 86.6611 19.5991 86.4014C19.8908 86.1416 20.0457 85.7292 20.064 85.1641H22.4497Z" fill="black"/>
<path d="M28.7183 85.8887C28.7183 85.5378 28.5929 85.2643 28.3423 85.0684C28.0962 84.8724 27.661 84.6696 27.0366 84.46C26.4123 84.2503 25.9019 84.0475 25.5054 83.8516C24.2157 83.2181 23.5708 82.3477 23.5708 81.2402C23.5708 80.6888 23.7303 80.2035 24.0493 79.7842C24.3729 79.3604 24.8286 79.0322 25.4165 78.7998C26.0044 78.5628 26.6652 78.4443 27.3989 78.4443C28.1144 78.4443 28.7547 78.5719 29.3198 78.8271C29.8895 79.0824 30.3315 79.4469 30.646 79.9209C30.9604 80.3903 31.1177 80.9281 31.1177 81.5342H28.7251C28.7251 81.1286 28.5998 80.8141 28.3491 80.5908C28.103 80.3675 27.7681 80.2559 27.3442 80.2559C26.9159 80.2559 26.5763 80.3516 26.3257 80.543C26.0796 80.7298 25.9565 80.9691 25.9565 81.2607C25.9565 81.516 26.0933 81.7484 26.3667 81.958C26.6401 82.1631 27.1209 82.3773 27.8091 82.6006C28.4972 82.8193 29.0623 83.0563 29.5044 83.3115C30.5799 83.9313 31.1177 84.7858 31.1177 85.875C31.1177 86.7454 30.7896 87.429 30.1333 87.9258C29.4771 88.4225 28.577 88.6709 27.4331 88.6709C26.6265 88.6709 25.895 88.5273 25.2388 88.2402C24.5871 87.9486 24.0949 87.5521 23.7622 87.0508C23.4341 86.5449 23.27 85.9639 23.27 85.3076H25.6763C25.6763 85.8408 25.813 86.235 26.0864 86.4902C26.3644 86.7409 26.8133 86.8662 27.4331 86.8662C27.8296 86.8662 28.1418 86.7819 28.3696 86.6133C28.6021 86.4401 28.7183 86.1986 28.7183 85.8887Z" fill="black"/>
<path d="M37.4819 85.8887C37.4819 85.5378 37.3566 85.2643 37.106 85.0684C36.8599 84.8724 36.4246 84.6696 35.8003 84.46C35.1759 84.2503 34.6655 84.0475 34.269 83.8516C32.9793 83.2181 32.3345 82.3477 32.3345 81.2402C32.3345 80.6888 32.494 80.2035 32.813 79.7842C33.1366 79.3604 33.5923 79.0322 34.1802 78.7998C34.7681 78.5628 35.4289 78.4443 36.1626 78.4443C36.8781 78.4443 37.5184 78.5719 38.0835 78.8271C38.6532 79.0824 39.0952 79.4469 39.4097 79.9209C39.7241 80.3903 39.8813 80.9281 39.8813 81.5342H37.4888C37.4888 81.1286 37.3634 80.8141 37.1128 80.5908C36.8667 80.3675 36.5317 80.2559 36.1079 80.2559C35.6795 80.2559 35.34 80.3516 35.0894 80.543C34.8433 80.7298 34.7202 80.9691 34.7202 81.2607C34.7202 81.516 34.8569 81.7484 35.1304 81.958C35.4038 82.1631 35.8846 82.3773 36.5728 82.6006C37.2609 82.8193 37.826 83.0563 38.2681 83.3115C39.3436 83.9313 39.8813 84.7858 39.8813 85.875C39.8813 86.7454 39.5532 87.429 38.897 87.9258C38.2407 88.4225 37.3407 88.6709 36.1968 88.6709C35.3901 88.6709 34.6587 88.5273 34.0024 88.2402C33.3507 87.9486 32.8586 87.5521 32.5259 87.0508C32.1978 86.5449 32.0337 85.9639 32.0337 85.3076H34.4399C34.4399 85.8408 34.5767 86.235 34.8501 86.4902C35.1281 86.7409 35.577 86.8662 36.1968 86.8662C36.5933 86.8662 36.9054 86.7819 37.1333 86.6133C37.3657 86.4401 37.4819 86.1986 37.4819 85.8887Z" fill="black"/>
<path d="M46.5601 82.5938H47.647C48.5083 82.5938 48.939 82.1722 48.939 81.3291C48.939 81.001 48.8364 80.7344 48.6313 80.5293C48.4263 80.3197 48.1369 80.2148 47.7632 80.2148C47.4578 80.2148 47.1912 80.3037 46.9634 80.4814C46.7401 80.6592 46.6284 80.8802 46.6284 81.1445H44.3247C44.3247 80.6204 44.4705 80.1533 44.7622 79.7432C45.0539 79.333 45.4572 79.014 45.9722 78.7861C46.4917 78.5537 47.0614 78.4375 47.6812 78.4375C48.7886 78.4375 49.659 78.6904 50.2925 79.1963C50.9259 79.7021 51.2427 80.3971 51.2427 81.2812C51.2427 81.7096 51.1105 82.1152 50.8462 82.498C50.5864 82.8763 50.2059 83.1839 49.7046 83.4209C50.2332 83.6123 50.6479 83.904 50.9487 84.2959C51.2495 84.6833 51.3999 85.1641 51.3999 85.7383C51.3999 86.627 51.0581 87.3379 50.3745 87.8711C49.6909 88.4043 48.7931 88.6709 47.6812 88.6709C47.0295 88.6709 46.4233 88.5479 45.8628 88.3018C45.3068 88.0511 44.8853 87.707 44.5981 87.2695C44.311 86.8275 44.1675 86.3262 44.1675 85.7656H46.4849C46.4849 86.071 46.6079 86.3353 46.854 86.5586C47.1001 86.7819 47.4032 86.8936 47.7632 86.8936C48.1688 86.8936 48.4924 86.7819 48.7339 86.5586C48.9754 86.3307 49.0962 86.0413 49.0962 85.6904C49.0962 85.1891 48.9709 84.8337 48.7202 84.624C48.4696 84.4144 48.1232 84.3096 47.6812 84.3096H46.5601V82.5938Z" fill="black"/>
</g>
<g id="icon">
<path id="Vector" d="M4.7583 0.205078H60.7583L55.665 57.7064L32.697 64.2051L9.85697 57.7037L4.7583 0.205078ZM50.3316 11.9731L15.185 11.9651L15.753 18.9571L42.753 18.9624L42.073 26.2051H24.3663L25.0063 33.0664H41.4916L40.5156 42.4611L32.7556 44.6051L24.873 42.4451L24.3716 36.8184H17.4116L18.185 47.0984L32.7583 51.6397L47.0863 47.5597L50.3316 11.9757V11.9731Z" fill="black"/>
</g>
</g>
</svg>
