<svg width="65" height="92" viewBox="0 0 65 92" fill="none" xmlns="http://www.w3.org/2000/svg">
<g id="figma">
<g id="txt">
<path d="M19.833 84.5693H15.9639V88.5342H13.5645V78.5811H20.2227V80.4336H15.9639V82.7236H19.833V84.5693Z" fill="black"/>
<path d="M23.5449 88.5342H21.2344V81.1377H23.5449V88.5342ZM21.0977 79.2305C21.0977 78.9023 21.2161 78.6335 21.4531 78.4238C21.6901 78.2142 21.9977 78.1094 22.376 78.1094C22.7542 78.1094 23.0618 78.2142 23.2988 78.4238C23.5358 78.6335 23.6543 78.9023 23.6543 79.2305C23.6543 79.5586 23.5358 79.8275 23.2988 80.0371C23.0618 80.2467 22.7542 80.3516 22.376 80.3516C21.9977 80.3516 21.6901 80.2467 21.4531 80.0371C21.2161 79.8275 21.0977 79.5586 21.0977 79.2305Z" fill="black"/>
<path d="M24.7002 84.7812C24.7002 84.0339 24.8232 83.373 25.0693 82.7988C25.3154 82.2246 25.6686 81.7826 26.1289 81.4727C26.5892 81.1582 27.1247 81.001 27.7354 81.001C28.5055 81.001 29.1071 81.2607 29.54 81.7803L29.6221 81.1377H31.7139V88.2539C31.7139 88.9056 31.5612 89.4707 31.2559 89.9492C30.9551 90.4323 30.5176 90.8014 29.9434 91.0566C29.3691 91.3164 28.7038 91.4463 27.9473 91.4463C27.4049 91.4463 26.8786 91.3438 26.3682 91.1387C25.8623 90.9336 25.4749 90.667 25.2061 90.3389L26.1699 88.9854C26.5983 89.4912 27.1634 89.7441 27.8652 89.7441C28.8861 89.7441 29.3965 89.2201 29.3965 88.1719V87.9395C28.9544 88.4271 28.3962 88.6709 27.7217 88.6709C26.8193 88.6709 26.0902 88.3268 25.5342 87.6387C24.9782 86.946 24.7002 86.0208 24.7002 84.8633V84.7812ZM27.0107 84.9248C27.0107 85.5309 27.1247 86.0117 27.3525 86.3672C27.5804 86.7181 27.8994 86.8936 28.3096 86.8936C28.8063 86.8936 29.1686 86.7272 29.3965 86.3945V83.2842C29.1732 82.9469 28.8154 82.7783 28.3232 82.7783C27.9131 82.7783 27.5918 82.9629 27.3594 83.332C27.127 83.6966 27.0107 84.2275 27.0107 84.9248Z" fill="black"/>
<path d="M35.2002 81.1377L35.2754 82.0059C35.7995 81.3359 36.5036 81.001 37.3877 81.001C38.3219 81.001 38.9531 81.3724 39.2812 82.1152C39.7826 81.3724 40.5072 81.001 41.4551 81.001C42.9544 81.001 43.7246 81.9079 43.7656 83.7217V88.5342H41.4551V83.8652C41.4551 83.487 41.3913 83.2113 41.2637 83.0381C41.1361 82.8649 40.9036 82.7783 40.5664 82.7783C40.1107 82.7783 39.7712 82.9811 39.5479 83.3867L39.5547 83.4824V88.5342H37.2441V83.8789C37.2441 83.4915 37.1826 83.2113 37.0596 83.0381C36.9365 82.8649 36.7018 82.7783 36.3555 82.7783C35.9134 82.7783 35.5762 82.9811 35.3438 83.3867V88.5342H33.04V81.1377H35.2002Z" fill="black"/>
<path d="M49.248 88.5342C49.166 88.3838 49.0931 88.1628 49.0293 87.8711C48.6055 88.4043 48.013 88.6709 47.252 88.6709C46.5547 88.6709 45.9622 88.4613 45.4746 88.042C44.987 87.6182 44.7432 87.0872 44.7432 86.4492C44.7432 85.6471 45.0394 85.041 45.6318 84.6309C46.2243 84.2207 47.0856 84.0156 48.2158 84.0156H48.9268V83.626C48.9268 82.9469 48.6328 82.6074 48.0449 82.6074C47.498 82.6074 47.2246 82.8763 47.2246 83.4141H44.9209C44.9209 82.6986 45.224 82.1175 45.8301 81.6709C46.4408 81.2243 47.2178 81.001 48.1611 81.001C49.1045 81.001 49.8496 81.2311 50.3965 81.6914C50.9434 82.1517 51.2236 82.7829 51.2373 83.585V86.8594C51.2464 87.5384 51.3512 88.0579 51.5518 88.418V88.5342H49.248ZM47.8057 87.0303C48.0928 87.0303 48.3298 86.9688 48.5166 86.8457C48.708 86.7227 48.8447 86.5837 48.9268 86.4287V85.2461H48.2568C47.4548 85.2461 47.0537 85.6061 47.0537 86.3262C47.0537 86.5358 47.1243 86.7067 47.2656 86.8389C47.4069 86.9665 47.5869 87.0303 47.8057 87.0303Z" fill="black"/>
</g>
<g id="icon">
<path id="Vector" d="M42.8325 24.1544H30.5978V0.205078H42.8325C49.4352 0.205078 54.8058 5.57574 54.8058 12.1784C54.8058 18.7811 49.4352 24.1544 42.8325 24.1544ZM34.5205 20.2317H42.8325C47.2725 20.2317 50.8832 16.6184 50.8832 12.1811C50.8832 7.74375 47.2698 4.13041 42.8325 4.13041H34.5205V20.2317ZM34.5205 24.1544H22.2885C15.6858 24.1544 10.3152 18.7837 10.3152 12.1811C10.3152 5.57841 15.6858 0.205078 22.2885 0.205078H34.5232V24.1544H34.5205ZM22.2885 4.12774C17.8485 4.12774 14.2378 7.74108 14.2378 12.1784C14.2378 16.6157 17.8485 20.2317 22.2885 20.2317H30.6005V4.12774H22.2885ZM34.5205 44.1784H22.2885C15.6858 44.1784 10.3152 38.8077 10.3152 32.2051C10.3152 25.6024 15.6858 20.2317 22.2885 20.2317H34.5232V44.1784H34.5205ZM22.2885 24.1544C17.8485 24.1544 14.2378 27.7677 14.2378 32.2051C14.2378 36.6424 17.8512 40.2557 22.2885 40.2557H30.6005V24.1544H22.2885ZM22.3525 64.2051C15.7152 64.2051 10.3125 58.8344 10.3125 52.2317C10.3125 45.6291 15.6832 40.2584 22.2858 40.2584H34.5205V52.1011C34.5205 58.7757 29.0618 64.2051 22.3525 64.2051ZM22.2885 44.1784C20.1542 44.1812 18.1081 45.0303 16.5989 46.5395C15.0898 48.0487 14.2407 50.0948 14.2378 52.2291C14.2378 56.6691 17.8778 60.2797 22.3552 60.2797C26.9018 60.2797 30.6032 56.6104 30.6032 52.0984V44.1784H22.2885ZM42.8325 44.1784H42.5712C35.9685 44.1784 30.5978 38.8077 30.5978 32.2051C30.5978 25.6024 35.9685 20.2317 42.5712 20.2317H42.8325C49.4352 20.2317 54.8058 25.6024 54.8058 32.2051C54.8058 38.8077 49.4352 44.1784 42.8325 44.1784ZM42.5738 24.1544C38.1338 24.1544 34.5232 27.7677 34.5232 32.2051C34.5232 36.6424 38.1365 40.2557 42.5738 40.2557H42.8352C47.2752 40.2557 50.8858 36.6424 50.8858 32.2051C50.8858 27.7677 47.2725 24.1544 42.8352 24.1544H42.5738Z" fill="black"/>
</g>
</g>
</svg>
