<svg width="65" height="91" viewBox="0 0 65 91" fill="none" xmlns="http://www.w3.org/2000/svg">
<path d="M32.0352 82.5996V86.6875C31.8665 86.8743 31.6068 87.0749 31.2559 87.2891C30.9095 87.4987 30.472 87.6787 29.9434 87.8291C29.4147 87.9795 28.7926 88.0547 28.0771 88.0547C27.4163 88.0547 26.8171 87.9499 26.2793 87.7402C25.7415 87.526 25.279 87.2139 24.8916 86.8037C24.5088 86.389 24.2126 85.8831 24.0029 85.2861C23.7979 84.6846 23.6953 83.9964 23.6953 83.2217V82.668C23.6953 81.8932 23.8001 81.2051 24.0098 80.6035C24.2194 80.002 24.5133 79.4961 24.8916 79.0859C25.2744 78.6712 25.7233 78.3568 26.2383 78.1426C26.7578 77.9284 27.3275 77.8213 27.9473 77.8213C28.8633 77.8213 29.6084 77.9671 30.1826 78.2588C30.7568 78.5459 31.1921 78.9447 31.4883 79.4551C31.7845 79.9609 31.9645 80.5465 32.0283 81.2119H29.7246C29.679 80.8838 29.5924 80.6058 29.4648 80.3779C29.3418 80.1455 29.1641 79.9701 28.9316 79.8516C28.6992 79.7285 28.3984 79.667 28.0293 79.667C27.7422 79.667 27.4801 79.7285 27.2432 79.8516C27.0107 79.9746 26.8125 80.1615 26.6484 80.4121C26.4844 80.6582 26.3568 80.9681 26.2656 81.3418C26.179 81.7155 26.1357 82.153 26.1357 82.6543V83.2217C26.1357 83.7184 26.1768 84.1536 26.2588 84.5273C26.3454 84.901 26.473 85.2132 26.6416 85.4639C26.8148 85.71 27.0335 85.8968 27.2979 86.0244C27.5667 86.1475 27.8835 86.209 28.248 86.209C28.5033 86.209 28.722 86.1885 28.9043 86.1475C29.0866 86.1019 29.237 86.0472 29.3555 85.9834C29.4785 85.915 29.5719 85.8512 29.6357 85.792V84.2471H27.9678V82.5996H32.0352ZM35.7607 80.5215V87.918H33.4502V80.5215H35.7607ZM33.3135 78.6143C33.3135 78.2861 33.432 78.0173 33.6689 77.8076C33.9059 77.598 34.2135 77.4932 34.5918 77.4932C34.9701 77.4932 35.2777 77.598 35.5146 77.8076C35.7516 78.0173 35.8701 78.2861 35.8701 78.6143C35.8701 78.9424 35.7516 79.2113 35.5146 79.4209C35.2777 79.6305 34.9701 79.7354 34.5918 79.7354C34.2135 79.7354 33.9059 79.6305 33.6689 79.4209C33.432 79.2113 33.3135 78.9424 33.3135 78.6143ZM41.0791 80.5215V82.1211H36.6221V80.5215H41.0791ZM37.5586 78.6826H39.8623V85.5049C39.8623 85.7008 39.8851 85.8535 39.9307 85.9629C39.9762 86.0677 40.0537 86.1429 40.1631 86.1885C40.277 86.2295 40.4274 86.25 40.6143 86.25C40.7464 86.25 40.8558 86.2477 40.9424 86.2432C41.029 86.234 41.111 86.2227 41.1885 86.209V87.8564C40.9925 87.9202 40.7874 87.9681 40.5732 88C40.359 88.0365 40.1312 88.0547 39.8896 88.0547C39.3975 88.0547 38.9759 87.9772 38.625 87.8223C38.2786 87.6673 38.0143 87.4235 37.832 87.0908C37.6497 86.7581 37.5586 86.3252 37.5586 85.792V78.6826Z" fill="black"/>
<path d="M63.4278 29.354L35.4839 1.41211C33.8759 -0.197235 31.2659 -0.197235 29.6557 1.41211L23.8534 7.21495L31.2138 14.5757C32.9249 13.998 34.8862 14.3853 36.2495 15.7489C37.6199 17.1209 38.0045 19.0989 37.4122 20.8158L44.5063 27.9096C46.2226 27.3182 48.2028 27.7002 49.5732 29.0732C51.4892 30.9886 51.4892 34.0923 49.5732 36.0084C47.6569 37.925 44.5532 37.925 42.6361 36.0084C41.1954 34.5666 40.8391 32.4498 41.5688 30.6748L34.9528 24.0586L34.9523 41.4686C35.4194 41.6999 35.8602 42.0085 36.2495 42.396C38.1649 44.3113 38.1649 47.4144 36.2495 49.3327C34.3335 51.2478 31.2284 51.2478 29.3142 49.3327C27.3985 47.4144 27.3985 44.3113 29.3142 42.396C29.7877 41.9234 30.3355 41.5657 30.92 41.326V23.7544C30.3355 23.5155 29.7885 23.1603 29.3142 22.6843C27.8632 21.2344 27.5137 19.1047 28.2579 17.3228L21.0023 10.0658L1.84218 29.2248C0.232294 30.8355 0.232294 33.4455 1.84218 35.0551L29.7858 62.9971C31.3946 64.6064 34.0037 64.6064 35.6148 62.9971L63.4278 35.1846C65.0371 33.5744 65.0371 30.9637 63.4278 29.354Z" fill="black"/>
</svg>
