<svg width="65" height="91" viewBox="0 0 65 91" fill="none" xmlns="http://www.w3.org/2000/svg">
<path d="M20.5352 82.5996V86.6875C20.3665 86.8743 20.1068 87.0749 19.7559 87.2891C19.4095 87.4987 18.972 87.6787 18.4434 87.8291C17.9147 87.9795 17.2926 88.0547 16.5771 88.0547C15.9163 88.0547 15.3171 87.9499 14.7793 87.7402C14.2415 87.526 13.779 87.2139 13.3916 86.8037C13.0088 86.389 12.7126 85.8831 12.5029 85.2861C12.2979 84.6846 12.1953 83.9964 12.1953 83.2217V82.668C12.1953 81.8932 12.3001 81.2051 12.5098 80.6035C12.7194 80.002 13.0133 79.4961 13.3916 79.0859C13.7744 78.6712 14.2233 78.3568 14.7383 78.1426C15.2578 77.9284 15.8275 77.8213 16.4473 77.8213C17.3633 77.8213 18.1084 77.9671 18.6826 78.2588C19.2568 78.5459 19.6921 78.9447 19.9883 79.4551C20.2845 79.9609 20.4645 80.5465 20.5283 81.2119H18.2246C18.179 80.8838 18.0924 80.6058 17.9648 80.3779C17.8418 80.1455 17.6641 79.9701 17.4316 79.8516C17.1992 79.7285 16.8984 79.667 16.5293 79.667C16.2422 79.667 15.9801 79.7285 15.7432 79.8516C15.5107 79.9746 15.3125 80.1615 15.1484 80.4121C14.9844 80.6582 14.8568 80.9681 14.7656 81.3418C14.679 81.7155 14.6357 82.153 14.6357 82.6543V83.2217C14.6357 83.7184 14.6768 84.1536 14.7588 84.5273C14.8454 84.901 14.973 85.2132 15.1416 85.4639C15.3148 85.71 15.5335 85.8968 15.7979 86.0244C16.0667 86.1475 16.3835 86.209 16.748 86.209C17.0033 86.209 17.222 86.1885 17.4043 86.1475C17.5866 86.1019 17.737 86.0472 17.8555 85.9834C17.9785 85.915 18.0719 85.8512 18.1357 85.792V84.2471H16.4678V82.5996H20.5352ZM24.2607 80.5215V87.918H21.9502V80.5215H24.2607ZM21.8135 78.6143C21.8135 78.2861 21.932 78.0173 22.1689 77.8076C22.4059 77.598 22.7135 77.4932 23.0918 77.4932C23.4701 77.4932 23.7777 77.598 24.0146 77.8076C24.2516 78.0173 24.3701 78.2861 24.3701 78.6143C24.3701 78.9424 24.2516 79.2113 24.0146 79.4209C23.7777 79.6305 23.4701 79.7354 23.0918 79.7354C22.7135 79.7354 22.4059 79.6305 22.1689 79.4209C21.932 79.2113 21.8135 78.9424 21.8135 78.6143ZM29.5791 80.5215V82.1211H25.1221V80.5215H29.5791ZM26.0586 78.6826H28.3623V85.5049C28.3623 85.7008 28.3851 85.8535 28.4307 85.9629C28.4762 86.0677 28.5537 86.1429 28.6631 86.1885C28.777 86.2295 28.9274 86.25 29.1143 86.25C29.2464 86.25 29.3558 86.2477 29.4424 86.2432C29.529 86.234 29.611 86.2227 29.6885 86.209V87.8564C29.4925 87.9202 29.2874 87.9681 29.0732 88C28.859 88.0365 28.6312 88.0547 28.3896 88.0547C27.8975 88.0547 27.4759 87.9772 27.125 87.8223C26.7786 87.6673 26.5143 87.4235 26.332 87.0908C26.1497 86.7581 26.0586 86.3252 26.0586 85.792V78.6826ZM32.751 77.418V87.918H30.4473V77.418H32.751ZM32.4775 83.9668L31.9375 83.9805C31.9375 83.4609 32.0013 82.9824 32.1289 82.5449C32.2565 82.1074 32.4388 81.7269 32.6758 81.4033C32.9128 81.0798 33.1976 80.8291 33.5303 80.6514C33.863 80.4736 34.2321 80.3848 34.6377 80.3848C35.0023 80.3848 35.335 80.4372 35.6357 80.542C35.9411 80.6468 36.2031 80.8154 36.4219 81.0479C36.6452 81.2803 36.8161 81.5833 36.9346 81.957C37.0576 82.3307 37.1191 82.7865 37.1191 83.3242V87.918H34.8018V83.3105C34.8018 83.0098 34.7585 82.7773 34.6719 82.6133C34.5898 82.4447 34.4714 82.3285 34.3164 82.2646C34.1615 82.1963 33.9723 82.1621 33.749 82.1621C33.4801 82.1621 33.2614 82.2077 33.0928 82.2988C32.9242 82.39 32.7943 82.5176 32.7031 82.6816C32.6165 82.8411 32.5573 83.0303 32.5254 83.249C32.4935 83.4678 32.4775 83.707 32.4775 83.9668ZM42.7178 86.1201V80.5215H45.0283V87.918H42.8682L42.7178 86.1201ZM42.9365 84.6162L43.5381 84.6025C43.5381 85.0993 43.4788 85.5596 43.3604 85.9834C43.2419 86.4027 43.0664 86.7673 42.834 87.0771C42.6061 87.387 42.3236 87.6286 41.9863 87.8018C41.6536 87.9704 41.2686 88.0547 40.8311 88.0547C40.4665 88.0547 40.1315 88.0046 39.8262 87.9043C39.5254 87.7995 39.2656 87.6377 39.0469 87.4189C38.8281 87.1956 38.6572 86.9108 38.5342 86.5645C38.4157 86.2135 38.3564 85.7943 38.3564 85.3066V80.5215H40.6602V85.3203C40.6602 85.4844 40.6807 85.6257 40.7217 85.7441C40.7627 85.8626 40.8219 85.9629 40.8994 86.0449C40.9769 86.1224 41.0726 86.1816 41.1865 86.2227C41.305 86.2591 41.4395 86.2773 41.5898 86.2773C41.9362 86.2773 42.2074 86.2044 42.4033 86.0586C42.5993 85.9128 42.736 85.7145 42.8135 85.4639C42.8955 85.2132 42.9365 84.9307 42.9365 84.6162ZM46.3203 77.418H48.624V86.0996L48.3848 87.918H46.3203V77.418ZM53.1631 84.1377V84.2812C53.1631 84.8418 53.1061 85.3522 52.9922 85.8125C52.8783 86.2728 52.7028 86.6715 52.4658 87.0088C52.2288 87.3415 51.9303 87.599 51.5703 87.7812C51.2103 87.9635 50.7842 88.0547 50.292 88.0547C49.8454 88.0547 49.4626 87.959 49.1436 87.7676C48.8245 87.5716 48.5579 87.3027 48.3438 86.9609C48.1296 86.6146 47.9564 86.2158 47.8242 85.7646C47.6921 85.3089 47.5872 84.8213 47.5098 84.3018V84.1309C47.5872 83.6159 47.6921 83.1328 47.8242 82.6816C47.9564 82.2259 48.1296 81.8271 48.3438 81.4854C48.5579 81.139 48.8223 80.8701 49.1367 80.6787C49.4557 80.4827 49.8363 80.3848 50.2783 80.3848C50.7751 80.3848 51.2035 80.4782 51.5635 80.665C51.9281 80.8519 52.2288 81.1139 52.4658 81.4512C52.7028 81.7884 52.8783 82.1849 52.9922 82.6406C53.1061 83.0964 53.1631 83.5954 53.1631 84.1377ZM50.8594 84.2812V84.1377C50.8594 83.8688 50.8434 83.6159 50.8115 83.3789C50.7796 83.1419 50.7227 82.9323 50.6406 82.75C50.5586 82.5677 50.4424 82.4242 50.292 82.3193C50.1416 82.2145 49.9456 82.1621 49.7041 82.1621C49.458 82.1621 49.2507 82.2031 49.082 82.2852C48.918 82.3672 48.7858 82.4857 48.6855 82.6406C48.5898 82.791 48.5215 82.9779 48.4805 83.2012C48.4395 83.4199 48.4212 83.6683 48.4258 83.9463V84.4863C48.4167 84.8646 48.4508 85.1882 48.5283 85.457C48.6058 85.7259 48.7402 85.931 48.9316 86.0723C49.123 86.2135 49.3851 86.2842 49.7178 86.2842C49.9639 86.2842 50.1621 86.2363 50.3125 86.1406C50.4674 86.0449 50.5837 85.9082 50.6611 85.7305C50.7386 85.5527 50.791 85.3408 50.8184 85.0947C50.8457 84.8486 50.8594 84.5775 50.8594 84.2812Z" fill="black"/>
<path fill-rule="evenodd" clip-rule="evenodd" d="M32.6348 0.994141C14.9548 0.994141 0.634766 15.3141 0.634766 32.9941C0.634766 47.1541 9.79476 59.1141 22.5148 63.3541C24.1148 63.6341 24.7148 62.6741 24.7148 61.8341C24.7148 61.0741 24.6748 58.5541 24.6748 55.8741C16.6348 57.3541 14.5548 53.9141 13.9148 52.1141C13.5548 51.1941 11.9948 48.3541 10.6348 47.5941C9.51477 46.9941 7.91477 45.5141 10.5948 45.4741C13.1148 45.4341 14.9148 47.7941 15.5148 48.7541C18.3948 53.5941 22.9948 52.2341 24.8348 51.3941C25.1148 49.3141 25.9548 47.9141 26.8748 47.1141C19.7548 46.3141 12.3148 43.5541 12.3148 31.3141C12.3148 27.8341 13.5548 24.9541 15.5948 22.7141C15.2748 21.9141 14.1548 18.6341 15.9148 14.2341C15.9148 14.2341 18.5948 13.3941 24.7148 17.5141C27.2748 16.7941 29.9948 16.4341 32.7148 16.4341C35.4348 16.4341 38.1548 16.7941 40.7148 17.5141C46.8348 13.3541 49.5148 14.2341 49.5148 14.2341C51.2748 18.6341 50.1548 21.9141 49.8348 22.7141C51.8748 24.9541 53.1148 27.7941 53.1148 31.3141C53.1148 43.5941 45.6348 46.3141 38.5148 47.1141C39.6748 48.1141 40.6748 50.0341 40.6748 53.0341C40.6748 57.3141 40.6348 60.7541 40.6348 61.8341C40.6348 62.6741 41.2348 63.6741 42.8348 63.3541C55.4748 59.1141 64.6348 47.1141 64.6348 32.9941C64.6348 15.3141 50.3148 0.994141 32.6348 0.994141Z" fill="black"/>
</svg>
