<svg width="68" height="89" viewBox="0 0 68 89" fill="none" xmlns="http://www.w3.org/2000/svg">
<g id="greensock">
<g id="txt">
<path d="M8.81689 87.3037C8.44775 87.7139 7.90771 88.0443 7.19678 88.2949C6.48584 88.5456 5.70654 88.6709 4.85889 88.6709C3.5555 88.6709 2.51416 88.2721 1.73486 87.4746C0.955566 86.6771 0.538574 85.5674 0.483887 84.1455L0.477051 83.2842C0.477051 82.3044 0.650228 81.4499 0.996582 80.7207C1.34294 79.987 1.8374 79.4242 2.47998 79.0322C3.12712 78.6357 3.87451 78.4375 4.72217 78.4375C5.96175 78.4375 6.92334 78.7223 7.60693 79.292C8.29508 79.8571 8.69613 80.7025 8.81006 81.8281H6.49951C6.41748 81.2721 6.23975 80.8757 5.96631 80.6387C5.69287 80.4017 5.3055 80.2832 4.8042 80.2832C4.20264 80.2832 3.73779 80.5384 3.40967 81.0488C3.08154 81.5592 2.9152 82.2884 2.91064 83.2363V83.8379C2.91064 84.8314 3.07926 85.5788 3.4165 86.0801C3.7583 86.5768 4.29378 86.8252 5.02295 86.8252C5.6473 86.8252 6.11214 86.6862 6.41748 86.4082V84.8633H4.74951V83.2158H8.81689V87.3037Z" fill="black"/>
<path d="M14.5796 83.2227L13.8208 83.168C13.0962 83.168 12.6313 83.3958 12.4263 83.8516V88.5342H10.1226V81.1377H12.2827L12.3579 82.0879C12.7453 81.3633 13.2853 81.001 13.978 81.001C14.2241 81.001 14.4383 81.0283 14.6206 81.083L14.5796 83.2227Z" fill="black"/>
<path d="M18.8521 88.6709C17.7173 88.6709 16.799 88.3337 16.0972 87.6592C15.3953 86.9801 15.0444 86.0983 15.0444 85.0137V84.8223C15.0444 84.0658 15.1834 83.3981 15.4614 82.8193C15.744 82.2406 16.1541 81.7939 16.6919 81.4795C17.2297 81.1605 17.8677 81.001 18.606 81.001C19.645 81.001 20.4653 81.3245 21.0669 81.9717C21.6685 82.6143 21.9692 83.512 21.9692 84.665V85.5605H17.3892C17.4712 85.9753 17.6512 86.3011 17.9292 86.5381C18.2072 86.7751 18.5672 86.8936 19.0093 86.8936C19.7384 86.8936 20.3081 86.6383 20.7183 86.1279L21.771 87.3721C21.4839 87.7686 21.076 88.0853 20.5474 88.3223C20.0233 88.5547 19.4582 88.6709 18.8521 88.6709ZM18.5923 82.7783C17.9178 82.7783 17.5168 83.2249 17.3892 84.1182H19.7134V83.9404C19.7225 83.5713 19.6291 83.2865 19.4331 83.0859C19.2371 82.8809 18.9569 82.7783 18.5923 82.7783Z" fill="black"/>
<path d="M26.481 88.6709C25.3462 88.6709 24.4279 88.3337 23.7261 87.6592C23.0243 86.9801 22.6733 86.0983 22.6733 85.0137V84.8223C22.6733 84.0658 22.8123 83.3981 23.0903 82.8193C23.3729 82.2406 23.783 81.7939 24.3208 81.4795C24.8586 81.1605 25.4966 81.001 26.2349 81.001C27.2739 81.001 28.0942 81.3245 28.6958 81.9717C29.2974 82.6143 29.5981 83.512 29.5981 84.665V85.5605H25.0181C25.1001 85.9753 25.2801 86.3011 25.5581 86.5381C25.8361 86.7751 26.1961 86.8936 26.6382 86.8936C27.3673 86.8936 27.937 86.6383 28.3472 86.1279L29.3999 87.3721C29.1128 87.7686 28.7049 88.0853 28.1763 88.3223C27.6522 88.5547 27.0871 88.6709 26.481 88.6709ZM26.2212 82.7783C25.5467 82.7783 25.1457 83.2249 25.0181 84.1182H27.3423V83.9404C27.3514 83.5713 27.258 83.2865 27.062 83.0859C26.866 82.8809 26.5858 82.7783 26.2212 82.7783Z" fill="black"/>
<path d="M32.647 81.1377L32.7222 82.0059C33.2326 81.3359 33.9367 81.001 34.8345 81.001C35.6047 81.001 36.1789 81.2311 36.5571 81.6914C36.9399 82.1517 37.1382 82.8444 37.1519 83.7695V88.5342H34.8413V83.8652C34.8413 83.4915 34.7661 83.2181 34.6157 83.0449C34.4653 82.8672 34.1919 82.7783 33.7954 82.7783C33.3442 82.7783 33.0093 82.9561 32.7905 83.3115V88.5342H30.4868V81.1377H32.647Z" fill="black"/>
<path d="M42.3062 86.4561C42.3062 86.2601 42.2036 86.1029 41.9985 85.9844C41.7935 85.8659 41.4038 85.7428 40.8296 85.6152C40.2554 85.4876 39.7814 85.3213 39.4077 85.1162C39.034 84.9066 38.7492 84.6536 38.5532 84.3574C38.3573 84.0612 38.2593 83.7217 38.2593 83.3389C38.2593 82.6598 38.5396 82.1016 39.1001 81.6641C39.6606 81.222 40.3944 81.001 41.3013 81.001C42.2765 81.001 43.0604 81.222 43.6528 81.6641C44.2453 82.1061 44.5415 82.6872 44.5415 83.4072H42.231C42.231 82.8148 41.9188 82.5186 41.2944 82.5186C41.0529 82.5186 40.8501 82.5869 40.686 82.7236C40.522 82.8558 40.4399 83.0221 40.4399 83.2227C40.4399 83.4277 40.5402 83.5941 40.7407 83.7217C40.9412 83.8493 41.2603 83.9541 41.6978 84.0361C42.1398 84.1182 42.5272 84.2161 42.8599 84.3301C43.9718 84.7129 44.5278 85.3988 44.5278 86.3877C44.5278 87.0622 44.2271 87.6113 43.6255 88.0352C43.0285 88.459 42.2537 88.6709 41.3013 88.6709C40.6678 88.6709 40.1027 88.557 39.606 88.3291C39.1092 88.1012 38.7218 87.7913 38.4438 87.3994C38.1659 87.0075 38.0269 86.5951 38.0269 86.1621H40.1802C40.1893 86.5039 40.3032 86.7546 40.522 86.9141C40.7407 87.069 41.021 87.1465 41.3628 87.1465C41.6772 87.1465 41.9119 87.0827 42.0669 86.9551C42.2264 86.8275 42.3062 86.6611 42.3062 86.4561Z" fill="black"/>
<path d="M45.3208 84.7676C45.3208 84.0293 45.4644 83.373 45.7515 82.7988C46.0386 82.2201 46.451 81.7757 46.9888 81.4658C47.5265 81.1559 48.1577 81.001 48.8823 81.001C49.9897 81.001 50.8625 81.3451 51.5005 82.0332C52.1385 82.7168 52.4575 83.6488 52.4575 84.8291V84.9111C52.4575 86.0641 52.1362 86.9801 51.4937 87.6592C50.8556 88.3337 49.9897 88.6709 48.896 88.6709C47.8433 88.6709 46.9979 88.3564 46.3599 87.7275C45.7218 87.0941 45.3778 86.2373 45.3276 85.1572L45.3208 84.7676ZM47.6245 84.9111C47.6245 85.5947 47.7316 86.096 47.9458 86.415C48.16 86.734 48.4767 86.8936 48.896 86.8936C49.7163 86.8936 50.1356 86.2624 50.1538 85V84.7676C50.1538 83.4414 49.73 82.7783 48.8823 82.7783C48.1121 82.7783 47.6951 83.3503 47.6313 84.4941L47.6245 84.9111Z" fill="black"/>
<path d="M56.6001 86.8936C56.9237 86.8936 57.1743 86.807 57.3521 86.6338C57.5298 86.4561 57.6164 86.21 57.6118 85.8955H59.772C59.772 86.7067 59.4803 87.3721 58.897 87.8916C58.3182 88.4111 57.5708 88.6709 56.6548 88.6709C55.5793 88.6709 54.7316 88.3337 54.1118 87.6592C53.492 86.9847 53.1821 86.0505 53.1821 84.8564V84.7607C53.1821 84.0133 53.3188 83.3548 53.5923 82.7852C53.8703 82.2109 54.269 81.7712 54.7886 81.4658C55.3081 81.1559 55.9233 81.001 56.6343 81.001C57.5959 81.001 58.3592 81.2676 58.9243 81.8008C59.4894 82.334 59.772 83.0563 59.772 83.9678H57.6118C57.6118 83.585 57.5184 83.291 57.3315 83.0859C57.1447 82.8809 56.894 82.7783 56.5796 82.7783C55.9826 82.7783 55.634 83.1589 55.5337 83.9199C55.5018 84.1615 55.4858 84.4941 55.4858 84.918C55.4858 85.6608 55.5747 86.1758 55.7524 86.4629C55.9302 86.75 56.2127 86.8936 56.6001 86.8936Z" fill="black"/>
<path d="M63.7163 85.7793L63.0669 86.4287V88.5342H60.7632V78.0273H63.0669V83.6055L63.2993 83.2979L65.0356 81.1377H67.7974L65.2065 84.1797L67.9683 88.5342H65.3296L63.7163 85.7793Z" fill="black"/>
</g>
<g id="icon">
<g id="Vector">
<path d="M45.1167 0.205221C43.6634 0.213221 42.2261 0.562554 41.7674 1.18389C41.474 1.62389 41.2554 4.37322 41.474 5.76522C41.474 5.76522 41.5594 6.68522 41.7141 7.40255C41.6973 7.56444 41.6795 7.72622 41.6607 7.88789C41.598 8.42917 41.5117 8.96746 41.4021 9.50122C41.3754 9.65055 40.8501 9.75455 40.2687 9.90655C40.1472 9.86568 40.0244 9.82833 39.9007 9.79455C39.2767 9.61055 38.8741 10.1226 38.2527 10.4879C38.0687 10.3812 37.2634 10.0132 36.8234 10.2692C36.3834 10.5252 36.09 10.7839 35.6501 10.9652C35.4314 10.8559 34.8447 10.8559 34.3701 11.0399C33.8911 11.1886 33.4512 11.4418 33.0821 11.7812C26.9114 13.3279 20.2474 16.1412 19.7167 16.4239C17.0047 17.8159 12.5727 20.1972 10.5594 21.8452C7.11672 24.7012 5.06605 28.0372 4.25805 30.4906C3.23139 33.5306 3.52472 35.3626 4.51405 34.1892C5.30872 33.2132 8.86605 30.3119 11.1141 28.8586L11.1087 28.8772C11.4808 28.6154 11.8732 28.3835 12.2821 28.1839L12.9034 27.8532L14.2501 26.9919C15.8554 28.4639 16.3914 30.8132 16.7487 34.0052C17.3354 38.9146 21.2927 41.1866 25.906 41.2586C30.706 41.3332 32.4287 42.3226 34.2234 44.7386C34.6314 45.2746 35.0714 45.5572 35.4767 45.7199C35.2947 46.0629 35.1516 46.4251 35.0501 46.7999C34.8501 47.2532 34.7167 47.8132 34.6314 48.4212C34.5877 48.4798 34.5602 48.5487 34.5514 48.6212C34.3701 50.0506 34.4047 53.4212 34.3701 55.2159C34.3327 57.0105 34.2954 57.2692 34.1487 57.5252C34.0021 57.8186 33.8554 57.9999 33.674 58.7705C33.49 59.5759 33.1594 59.7945 32.8314 60.4532C32.282 61.4799 32.3914 62.6132 32.9407 63.1279C33.4901 63.6399 34.994 64.4106 37.042 64.1546C39.0954 63.8986 39.3887 63.7519 39.058 61.7732C39.0207 61.4799 38.546 60.1599 38.6927 59.6479C38.9114 59.0986 38.4367 58.1466 38.5461 58.1092C38.6554 58.0719 38.8021 57.3412 38.8021 56.9732C38.8021 56.6079 38.7647 54.8506 39.1674 53.9332C39.3327 53.5599 39.682 52.7066 40.0367 51.8399C41.2154 49.9119 41.2607 48.7439 41.3167 48.0799C41.3967 47.5412 41.4394 46.8532 41.3647 46.0959C41.5114 45.8745 42.1354 45.3626 42.2074 44.3732C42.2074 44.3732 43.9247 43.4746 45.1461 41.3119C45.5727 42.7972 45.9727 43.7386 45.9087 44.7039C44.5781 45.7439 44.0847 46.5119 43.882 47.2612C43.7541 47.2079 43.6794 47.1626 43.5887 47.1546H43.5167C43.4196 47.1683 43.3246 47.1943 43.2341 47.2319C42.722 47.4132 43.1247 50.7466 43.6741 52.1039C44.2234 53.4586 44.5167 54.2639 44.7354 55.7306C44.9567 57.1946 44.2234 58.9892 43.93 59.7946C43.93 59.7946 43.4527 61.2239 44.5514 61.9919C45.506 62.6532 49.0954 62.4719 50.706 62.4719C52.3194 62.4719 54.7354 63.0559 56.274 62.7626C58.1807 62.4319 58.4714 61.2959 57.338 60.7092C56.202 60.1225 54.4794 59.8319 52.2447 58.2212C51.658 57.8159 50.8527 57.4506 50.7434 57.1226C50.634 56.7919 50.634 54.8879 50.6714 53.2372C50.706 51.5892 51.258 49.4666 51.4394 48.3306C51.61 47.2692 51.2367 47.2959 50.7407 47.3946C50.826 47.0026 50.9167 46.6159 50.9994 46.2052C51.9167 44.5199 51.514 42.9439 51.514 42.9439C53.7007 40.1599 52.5807 34.2239 52.1007 32.1492C53.8074 32.9572 54.6607 32.6506 54.6607 32.6506C54.9327 32.5039 55.1727 32.2932 55.3914 32.0532C56.29 31.0879 56.7514 29.6106 56.7514 29.6106V29.5386C58.8367 27.4506 59.8207 24.3759 57.4447 22.3599C57.6387 21.7947 57.687 21.1897 57.5849 20.601C57.4828 20.0122 57.2337 19.4587 56.8607 18.9919C57.1833 18.2131 57.2617 17.3547 57.0855 16.5304C56.9093 15.7061 56.4868 14.9547 55.874 14.3759C55.502 14.0231 55.0594 13.7531 54.5754 13.5839C54.042 12.7972 53.922 12.4719 53.05 12.6532C52.65 12.2132 52.5754 11.8852 51.7327 12.1786C51.7327 12.1786 51.4767 11.5546 50.9994 11.4079C50.9565 11.3899 50.9118 11.3765 50.866 11.3679C50.0607 10.8079 49.33 10.7946 48.8074 10.9412C48.6367 10.8132 48.6447 10.6106 48.6207 9.90655C48.5994 9.37322 48.57 8.61055 48.538 7.92255C48.61 7.04789 48.81 5.32522 48.874 4.44789C48.9487 3.46122 48.986 1.91989 48.546 1.26122C48.0314 0.525221 46.5674 0.197221 45.1167 0.205221ZM45.1034 1.11189C46.97 1.11189 47.7754 1.69855 47.8874 2.02655C47.9221 2.10122 48.106 3.34655 47.994 4.15189C47.9594 4.44522 47.922 5.50922 47.85 5.98389C47.8127 6.46122 47.666 7.01055 47.5194 7.77855C47.41 8.40255 46.898 9.09855 46.4954 9.20789C45.7994 9.39189 44.5167 9.35455 43.7834 9.20789C43.5994 9.17055 43.4527 9.06122 43.2714 8.95189C42.8687 8.29055 42.6474 7.77855 42.5754 6.97322C42.5007 6.20255 42.354 5.87455 42.3194 5.28789C42.282 4.40789 42.282 3.82122 42.282 3.82122C42.3194 3.34655 42.466 2.17322 42.466 2.06389C42.5007 1.73589 43.0874 1.11189 45.1034 1.11189ZM42.0821 8.31722C42.4714 8.71455 42.8847 9.13322 43.2341 9.42655C43.5647 9.71989 44.3701 9.68255 45.1007 9.68255C45.7621 9.68255 46.3487 9.75722 46.6047 9.61055C47.0154 9.40522 47.5514 8.98389 47.9994 8.55989C48.0287 8.96522 48.058 9.37055 48.0687 9.71989C48.0954 10.5066 47.954 10.9679 48.1327 11.2399C47.914 11.3679 47.6687 11.5199 47.4154 11.6559C47.0127 11.8692 46.5994 12.0186 46.3407 11.9626H46.3354C45.778 11.8692 43.8527 11.3892 42.7861 10.8772C42.3407 10.1866 41.8927 9.81589 41.9167 9.68255C41.9887 9.31722 42.0234 9.02389 42.0607 8.54922C42.0714 8.46922 42.0741 8.39455 42.0821 8.31455V8.31722ZM39.8074 10.1572L39.9007 10.1599C41.0314 10.2559 41.6341 10.5652 42.0554 10.9172L42.2581 10.9972L42.2794 10.9252C42.4047 11.0052 42.5514 11.0852 42.7114 11.1599C43.9647 11.5839 45.6554 11.9812 46.2021 12.1012C46.8607 12.2479 47.922 11.5892 48.4367 11.2586C49.3514 10.6719 50.5247 11.1519 51.074 11.7732C51.4394 12.1732 51.586 12.4319 51.586 12.5412C52.4287 12.2479 52.538 12.6506 52.9407 13.0906C53.9674 12.6132 54.0394 13.1999 54.114 13.4559C53.7887 13.4559 53.3194 13.4932 52.6794 13.5626L52.6474 13.5306C52.2634 13.1226 51.5754 12.7599 51.05 12.5066C50.818 12.4239 50.57 12.3759 50.378 12.2479C50.0847 12.1012 49.7914 11.8826 49.3514 11.9199C47.5194 12.1386 47.154 12.7599 45.578 12.3946C44.0394 12.0372 43.6127 11.7172 42.0234 11.8052L42.0261 11.8746C41.7461 11.9172 41.4927 11.9546 41.4394 11.9546C40.8901 11.9866 39.5141 12.1332 38.3647 11.6879C38.2266 11.6103 38.0831 11.5425 37.9354 11.4852L37.9221 11.4799H37.9194C37.4394 11.2932 36.8794 11.1866 36.2394 11.1812H36.17C36.7514 10.8879 37.1194 10.4906 37.6634 10.5999C38.25 10.7092 38.8367 11.1866 39.1674 11.5519C39.0617 11.2669 38.9004 11.0058 38.6927 10.7839C39.034 10.5439 39.3461 10.1732 39.8074 10.1599V10.1572ZM36.8741 11.6106C37.2741 11.6159 37.6207 11.6799 37.986 11.8052C38.034 11.8292 38.0767 11.8532 38.1434 11.8826C38.9114 12.2479 40.3034 12.3199 41.4767 12.2479C41.9859 12.2273 42.4903 12.1421 42.9781 11.9946C43.8367 12.0586 44.3487 12.2879 45.5834 12.5706C46.4101 12.7572 46.922 12.6906 47.4367 12.5519C47.9514 12.4106 48.466 12.2052 49.3647 12.0986C49.5326 12.0807 49.7022 12.0925 49.866 12.1332C49.9674 12.1866 50.066 12.2399 50.1594 12.2959C50.3247 12.4266 50.73 12.6559 51.074 12.7999C51.5114 12.9812 52.6474 13.7519 52.794 13.9332C52.8208 13.9678 52.8556 13.9953 52.8954 14.0132C53.5407 14.8506 53.9807 16.0266 53.9514 17.2399C53.7914 18.4666 52.8154 17.8106 52.282 17.5599C51.1834 17.0852 50.0847 16.7546 48.802 16.7546C47.522 16.7546 45.8714 16.8639 44.4421 17.2319C42.466 17.7812 41.8794 17.7439 41.002 17.3039C40.122 16.8292 38.5834 15.6559 38.5834 15.6559V15.6826C38.5647 15.6639 38.5514 15.6506 38.5461 15.6559C38.4341 15.8399 38.1781 16.3146 38.0314 16.5359C37.9594 17.9279 37.1167 20.1252 35.5407 20.6746C35.338 20.7498 35.1211 20.779 34.9057 20.7601C34.6904 20.7411 34.4819 20.6746 34.2954 20.5652C33.8385 20.2614 33.3459 20.0151 32.8287 19.8319C34.1114 20.8559 34.7727 21.6266 35.3594 22.9812C35.8234 24.1279 36.466 25.6932 38.0314 27.3706C38.9994 27.3599 39.9647 27.6292 40.5967 28.2932C40.9621 28.6586 41.5487 29.0639 41.4767 29.4292C41.4767 29.5386 41.2554 29.8319 41.0741 30.0532C40.8993 30.2573 40.7151 30.453 40.5221 30.6399C40.3781 30.7466 39.8634 31.1519 39.7541 31.2266C39.6447 31.2986 39.4981 31.4799 39.3887 31.5172C39.0207 31.7012 38.618 31.5546 38.2527 31.3706C37.8874 31.1866 38.3247 31.1519 37.9221 30.8586C37.0154 30.2186 36.4794 29.7626 36.7114 28.6399C34.2261 26.5226 29.8821 25.2799 28.9487 23.0186C28.3621 21.5519 28.2874 20.8212 28.8367 20.1972C30.4501 18.3652 29.8261 16.6079 31.0367 15.8399C32.1701 15.1066 33.1247 15.9466 33.674 16.7199C33.3434 15.3626 32.2074 15.0319 32.2074 14.9226C32.2074 13.2372 33.8207 12.0666 35.4341 11.7732C36.0154 11.6639 36.4714 11.6079 36.8741 11.6132V11.6106ZM31.9487 13.0346C31.5754 13.5572 31.3327 14.1946 31.2927 14.9572C30.7434 15.0319 29.4981 15.1039 28.8741 17.3759C28.7377 17.9441 28.5466 18.4978 28.3034 19.0292C28.0287 19.1492 20.4474 22.4266 14.3594 25.8079L14.3327 25.7892C13.4794 26.2692 12.6607 26.7572 11.8821 27.2452L11.5487 27.4506L11.5461 27.4586C8.51672 29.3866 6.10605 31.3252 4.51405 33.0905C5.61272 25.9466 11.2554 22.2106 13.9274 20.5626C20.3807 16.5919 26.2714 14.6292 31.9487 13.0346ZM53.3807 13.8959C54.074 13.8852 54.8101 14.0559 55.3967 14.6292C56.9701 16.1679 56.53 17.8532 56.0554 19.0239C56.4554 19.5012 57.41 20.8559 56.8234 22.4666C56.7167 22.8346 55.9087 22.8346 55.322 23.7866C56.7887 22.9439 57.7034 23.1652 58.034 24.2266C58.5461 25.8746 57.41 27.8532 56.4207 28.9519C56.4207 28.9146 56.3834 28.8772 56.3834 28.8426C56.2367 29.3919 56.0554 30.4532 54.9567 31.6266C54.4074 32.2132 53.9674 32.1386 53.3434 31.9919C52.77 31.8479 52.4847 31.6132 51.8954 31.2559C51.7994 30.7039 51.6234 29.9706 51.6234 29.6826C51.6234 29.5652 51.6127 29.3066 51.5967 29.0346C51.682 28.9386 51.7727 28.8372 51.8794 28.7306C51.8794 28.7306 52.354 28.0719 53.0527 28.1092C53.746 28.1466 54.4794 27.9999 54.6634 27.8159C54.6634 26.5359 53.1967 26.4986 53.7114 24.2986C53.7461 24.1919 53.93 24.0052 54.5167 23.9332C53.6367 23.7492 53.2367 23.7119 52.6127 23.1279L52.578 23.0932C52.8714 22.4186 53.1754 21.8746 53.3807 21.4799C53.8954 20.4532 53.5994 19.2079 53.5994 19.2079C54.1514 19.0239 54.6261 18.7306 54.7007 18.5492C55.2421 16.7546 54.2634 15.0239 53.0874 13.9092C53.1834 13.9012 53.282 13.8959 53.3807 13.8932V13.8959ZM38.8207 16.3626C38.8474 16.4052 38.8741 16.4506 38.9114 16.4959C39.3887 17.0826 40.4501 17.8159 41.8794 18.2906C42.5727 18.5119 43.1247 18.3652 43.746 18.2186C46.7407 17.4772 49.89 17.2959 52.626 18.6319C52.7777 19.6017 52.6317 20.5947 52.2074 21.4799C51.5887 22.7199 50.786 24.3279 50.9274 27.3866C50.2714 27.5039 47.1434 27.7706 45.6154 27.4852C44.2261 27.2266 41.8394 26.0852 41.2954 25.6452C41.1361 24.8993 41.0248 24.144 40.9621 23.3839C41.4252 23.1671 41.8376 22.8555 42.1727 22.4692C41.0741 22.6506 40.6341 22.5759 39.9727 22.2106C39.3461 21.8639 38.2607 20.7892 37.6527 20.0239C38.2634 19.2506 38.7007 18.1839 38.5461 16.7546C38.6447 16.6212 38.7327 16.4906 38.8181 16.3626H38.8207ZM27.1407 20.6239C26.9007 21.2986 27.3887 22.3679 27.7381 23.1652C29.0927 26.3092 33.2581 26.6052 36.0767 28.9786C36.0336 29.3316 36.089 29.6897 36.2367 30.0132C36.458 30.4532 37.2261 31.1146 37.2261 31.1146C37.0794 31.2586 37.154 31.5519 37.154 31.5519C37.698 32.1306 38.4981 32.1999 38.6127 32.2079C37.4527 35.5359 36.4367 39.2106 37.41 43.1279C36.9327 43.7786 36.4287 44.3146 35.994 44.9092C35.5199 44.7699 35.1042 44.4797 34.8101 44.0826C33.2341 41.8106 30.9247 40.3066 26.7487 40.4186C20.4847 40.5652 17.9941 37.9999 17.5194 33.0905C17.2687 30.4932 16.5674 27.9652 15.1514 26.4799C19.1941 24.2426 24.8234 21.3706 26.6047 20.8186C26.7849 20.7604 26.9628 20.6955 27.1381 20.6239H27.1407ZM36.4634 21.1039C37.4794 22.2826 38.5834 23.0426 39.6447 23.7146C39.8634 24.6292 39.9381 25.2532 40.1567 26.4612H40.0474L39.9754 27.2826C39.4372 27.121 38.8826 27.0199 38.322 26.9812L38.3247 26.9732C35.9434 24.1546 36.458 23.0532 35.5034 21.5892C35.7621 21.4986 36.1034 21.3386 36.4634 21.1039ZM52.226 23.9999C52.4287 24.1786 52.7007 24.3199 53.0874 24.4106C52.2154 26.2239 53.9674 26.8426 54.074 27.5306C53.6927 27.7519 53.0954 27.6292 52.466 27.5972C52.1594 27.5812 51.8554 27.7706 51.6101 27.9892L51.6954 27.0106C51.7114 25.8639 51.9354 24.8532 52.2287 23.9972L52.226 23.9999ZM41.3301 26.7306C41.3941 26.8239 41.8047 27.0799 44.002 27.6692C46.738 28.4026 50.1967 27.9892 50.802 27.9092C50.7922 27.9904 50.7725 28.0701 50.7434 28.1466C50.7434 29.0612 50.89 29.7199 50.9994 30.3066C51.1407 31.1279 51.346 31.7279 51.434 32.2799L51.4554 32.2612C52.0794 35.9066 52.9514 40.6159 50.7434 43.0559C50.8527 43.5679 50.9274 44.3012 50.7807 45.1439C50.6881 45.6302 50.5533 46.1076 50.378 46.5705C50.257 46.8752 50.1607 47.1891 50.09 47.5092C47.1567 47.8879 45.41 47.6559 44.5967 47.4692C44.9247 46.4719 45.682 45.4586 46.9327 45.5092C46.8741 43.0799 46.2287 42.2479 45.57 40.4665C46.6234 38.1119 46.3674 36.0266 47.226 32.8719C46.5674 33.5679 46.0527 36.0959 45.6154 37.6346C45.0661 39.8692 44.1141 42.0292 41.5487 43.7519C41.5487 44.3386 41.3647 44.7759 41.146 45.0692C40.6687 45.7652 40.0474 45.9865 39.8287 47.1226C40.1221 46.7546 40.5221 46.4266 40.5221 46.5359C40.5125 46.9747 40.4903 47.4131 40.4554 47.8506L40.4874 47.8532C40.0474 50.6372 39.0954 51.9199 38.5087 53.4932C38.106 54.6292 38.2527 57.1199 38.1061 57.1572C37.0794 57.3786 35.5061 56.9759 35.0661 56.7572C35.4981 53.7172 35.1167 50.6826 36.2287 47.1572L36.1887 47.1412C36.6154 45.6639 37.4634 44.7999 38.6927 43.2372C38.2634 41.8506 37.2741 38.8639 39.4021 32.0852C39.4901 32.0479 39.5807 32.0052 39.682 31.9546L40.2314 31.5892C40.3381 31.5146 40.4874 31.4052 40.5967 31.3332C40.7807 31.2212 41.5861 30.3439 41.6954 30.2346C41.9514 29.9759 42.1354 29.9039 42.2074 29.6106C42.354 29.0612 41.5487 28.5119 41.2207 28.1439C41.1727 28.0932 41.1407 28.0532 41.1061 28.0106C41.1407 27.9066 41.1781 27.8052 41.2181 27.7066C41.2447 27.3732 41.2927 27.0132 41.3301 26.7279V26.7306ZM43.6847 47.9092C43.8181 47.9146 44.1487 48.2346 45.6874 48.3306C47.4474 48.4372 49.7914 48.1092 50.4127 47.9626C51.0367 47.8159 50.6714 48.2559 50.5967 48.6959L50.5274 49.1466C49.4634 49.5039 47.8394 49.6479 46.7514 49.6852C45.7034 49.7199 44.4954 49.6532 43.6554 49.3919C43.5274 48.6986 43.4874 48.1386 43.6367 47.9252C43.6432 47.9194 43.6508 47.915 43.6591 47.9123C43.6673 47.9095 43.6761 47.9085 43.6847 47.9092ZM50.3674 50.1652C50.314 50.5252 50.274 50.7599 50.2127 51.1572C49.178 51.4772 47.8447 51.4826 46.826 51.5172C45.9223 51.5589 45.0168 51.4963 44.1274 51.3306C44.0954 51.2345 44.066 51.1376 44.0394 51.0399C43.979 50.8166 43.9213 50.5925 43.866 50.3679C44.3434 50.4586 45.2794 50.5786 46.9327 50.5999C48.0933 50.6364 49.2525 50.4897 50.3674 50.1652ZM50.0847 51.9919C49.9007 53.1652 49.938 56.7545 50.0474 57.7439C50.0847 58.0372 52.5754 59.1359 53.4527 59.7972C53.738 60.0239 54.1434 60.2159 54.578 60.3892C54.69 60.5012 54.8874 60.6692 55.1034 60.9305C55.5354 61.4986 55.242 62.0932 54.7434 62.3332C54.0394 62.3146 53.2287 62.1945 51.8794 61.9919C50.0261 61.7146 48.8687 61.7225 47.266 61.7092V61.7012C46.8607 60.9679 47.1167 59.7599 47.1167 59.7599C46.3737 59.738 45.6416 59.5751 44.9594 59.2799L44.9914 59.2106C45.6049 57.9521 45.5791 57.6448 45.4032 55.5466C45.4002 55.5107 45.3971 55.4742 45.394 55.4372C45.2687 53.8959 44.8714 53.0826 44.5007 52.2506C44.9514 52.2932 45.5914 52.3439 46.786 52.3599C47.8972 52.3883 49.0071 52.2645 50.0847 51.9919ZM35.9354 57.5492C36.5834 57.5492 37.5354 57.6346 37.738 57.8159V57.8532C37.7754 58.2932 38.1781 58.9172 38.0314 59.2452C37.9594 59.4292 37.7754 59.1359 37.5194 59.0639C37.6287 59.7572 37.9221 61.0399 38.362 62.0292C38.6554 62.6906 38.4714 63.1652 37.4821 63.3492C36.6021 63.3866 35.4687 63.3492 34.5167 63.1279C33.418 62.5786 33.0501 62.2852 33.2714 61.2612C33.4527 60.5279 34.5887 59.6879 35.5781 59.0266C35.0287 59.0639 34.442 59.4666 34.5167 58.9892C34.6634 58.0372 35.066 58.1092 35.3221 57.6345C35.2687 57.5812 35.546 57.5492 35.9354 57.5492Z" fill="black"/>
<path d="M50.0847 51.9919C49.9007 53.1652 49.938 56.7545 50.0474 57.7439C50.0847 58.0372 52.5754 59.1359 53.4527 59.7972C53.738 60.0239 54.1434 60.2159 54.578 60.3892C54.69 60.5012 54.8874 60.6692 55.1034 60.9305C55.5354 61.4986 55.242 62.0932 54.7434 62.3332C54.0394 62.3146 53.2287 62.1945 51.8794 61.9919C50.0261 61.7146 48.8687 61.7225 47.266 61.7092V61.7012C46.8607 60.9679 47.1167 59.7599 47.1167 59.7599C46.3737 59.738 45.6416 59.5751 44.9594 59.2799L44.9914 59.2106C45.6049 57.9521 45.5791 57.6448 45.4032 55.5466L45.394 55.4372C45.2687 53.8959 44.8714 53.0826 44.5007 52.2506C44.9514 52.2932 45.5914 52.3439 46.786 52.3599C47.8972 52.3883 49.0071 52.2645 50.0847 51.9919Z" fill="black"/>
<path d="M27.7494 20.0798L28.1146 21.9773L29.2094 24.3859L32.056 26.1377L35.7054 28.2543L36.4353 28.9842V29.7871L37.6031 31.0279L37.9428 31.7153L38.9094 31.9871V32.5913L38.4563 33.709L38.2751 35.0985L37.6407 37.2433V41.9255L37.9428 43.1641L37.0063 44.5838L36.2511 45.6109L35.2543 45.037L31.9918 42.0766L28.0044 40.9287L23.6544 40.7172L20.211 39.3579L18.0359 36.911L16.9788 33.135L16.2237 28.9842L15.1969 27.4861L14.5323 26.1377L9.36677 29.5101L7.07094 31.383L4.68459 33.4975L3.95947 33.9204L4.23133 32.0777L4.68459 30.2653L5.89276 27.9393L7.46358 25.6133L10.2427 22.532L12.9916 20.6289L15.1969 19.179L18.278 17.7587L21.6311 16.097L26.3435 14.3151L30.2706 12.9863L32.9591 12.2012L32.056 13.772L31.7508 15.1012L30.482 15.6751L29.6664 16.9439L29.2094 18.273L28.6998 19.6021L27.7494 20.0798Z" fill="black"/>
</g>
</g>
</g>
</svg>
