<svg width="30" height="25" viewBox="0 0 36 25" fill="#5c5c5c" xmlns="http://www.w3.org/2000/svg">
<path d="M2.20281 0.967003C1.37438 0.967176 0.702952 1.63889 0.703125 2.46732C0.703298 3.29574 1.37501 3.96718 2.20344 3.967L2.20281 0.967003ZM34.2034 3.96033C35.0319 3.96015 35.7033 3.28844 35.7031 2.46001C35.703 1.63159 35.0312 0.960154 34.2028 0.960327L34.2034 3.96033ZM2.20281 11.1699C1.37438 11.1701 0.702952 11.8418 0.703125 12.6702C0.703298 13.4986 1.37501 14.1701 2.20344 14.1699L2.20281 11.1699ZM34.2034 14.1632C35.0319 14.163 35.7033 13.4913 35.7031 12.6629C35.703 11.8345 35.0312 11.163 34.2028 11.1632L34.2034 14.1632ZM2.20281 21.3725C1.37438 21.3727 0.702952 22.0444 0.703125 22.8728C0.703298 23.7013 1.37501 24.3727 2.20344 24.3725L2.20281 21.3725ZM34.2034 24.3658C35.0319 24.3657 35.7033 23.694 35.7031 22.8655C35.703 22.0371 35.0312 21.3657 34.2028 21.3658L34.2034 24.3658ZM2.20344 3.967L34.2034 3.96033L34.2028 0.960327L2.20281 0.967003L2.20344 3.967ZM2.20344 14.1699L34.2034 14.1632L34.2028 11.1632L2.20281 11.1699L2.20344 14.1699ZM2.20344 24.3725L34.2034 24.3658L34.2028 21.3658L2.20281 21.3725L2.20344 24.3725Z" fill="#5c5c5c"/>
</svg>
