<svg width="65" height="89" viewBox="0 0 65 89" fill="none" xmlns="http://www.w3.org/2000/svg">
<g id="html5">
<g id="txt">
<path d="M19.9517 88.5342H17.5659V84.3779H14.0317V88.5342H11.6323V78.5811H14.0317V82.5322H17.5659V78.5811H19.9517V88.5342Z" fill="black"/>
<path d="M24.0532 79.2988V81.1377H25.27V82.7373H24.0532V86.1211C24.0532 86.3991 24.1034 86.5928 24.2036 86.7021C24.3039 86.8115 24.5021 86.8662 24.7983 86.8662C25.0262 86.8662 25.2176 86.8525 25.3726 86.8252V88.4727C24.9578 88.6048 24.5249 88.6709 24.0737 88.6709C23.2808 88.6709 22.6951 88.484 22.3169 88.1104C21.9386 87.7367 21.7495 87.1693 21.7495 86.4082V82.7373H20.8062V81.1377H21.7495V79.2988H24.0532Z" fill="black"/>
<path d="M28.3599 81.1377L28.4351 82.0059C28.9591 81.3359 29.6632 81.001 30.5474 81.001C31.4816 81.001 32.1128 81.3724 32.4409 82.1152C32.9422 81.3724 33.6668 81.001 34.6147 81.001C36.1141 81.001 36.8843 81.9079 36.9253 83.7217V88.5342H34.6147V83.8652C34.6147 83.487 34.5509 83.2113 34.4233 83.0381C34.2957 82.8649 34.0633 82.7783 33.7261 82.7783C33.2703 82.7783 32.9308 82.9811 32.7075 83.3867L32.7144 83.4824V88.5342H30.4038V83.8789C30.4038 83.4915 30.3423 83.2113 30.2192 83.0381C30.0962 82.8649 29.8615 82.7783 29.5151 82.7783C29.0731 82.7783 28.7358 82.9811 28.5034 83.3867V88.5342H26.1997V81.1377H28.3599Z" fill="black"/>
<path d="M40.6714 88.5342H38.3608V78.0342H40.6714V88.5342Z" fill="black"/>
<path d="M45.6821 83.667L46.2905 78.5811H52.1079V80.3721H48.1636L47.938 82.3477C48.1021 82.252 48.3162 82.1676 48.5806 82.0947C48.8494 82.0218 49.1115 81.9854 49.3667 81.9854C50.3556 81.9854 51.1144 82.2793 51.6431 82.8672C52.1763 83.4505 52.4429 84.2708 52.4429 85.3281C52.4429 85.9661 52.2993 86.5449 52.0122 87.0645C51.7297 87.5794 51.3309 87.9759 50.8159 88.2539C50.3009 88.5319 49.6925 88.6709 48.9907 88.6709C48.3664 88.6709 47.7808 88.5433 47.2339 88.2881C46.687 88.0283 46.2586 87.6751 45.9487 87.2285C45.6388 86.7773 45.4862 86.2692 45.4907 85.7041H47.8013C47.8241 86.0687 47.9403 86.3581 48.1499 86.5723C48.3595 86.7865 48.6353 86.8936 48.9771 86.8936C49.7518 86.8936 50.1392 86.3193 50.1392 85.1709C50.1392 84.109 49.6652 83.5781 48.7173 83.5781C48.1795 83.5781 47.7785 83.7513 47.5142 84.0977L45.6821 83.667Z" fill="black"/>
</g>
<g id="icon">
<path id="Vector" d="M4.0376 0.205078H60.0376L54.9443 57.7064L31.9763 64.2051L9.13893 57.7037L4.0376 0.205078ZM22.7869 26.2051L22.1683 18.9571L48.9923 18.9651L49.6056 11.9731L14.4696 11.9651L16.3309 33.3251H40.6669L39.7976 42.4611L32.0376 44.6051L24.1576 42.4451L23.6563 36.8184H16.6989L17.5789 47.9411L32.0376 51.8077L46.3816 47.9597L48.3656 26.2077H22.7869V26.2051Z" fill="black"/>
</g>
</g>
</svg>
