<svg width="65" height="93" viewBox="0 0 65 93" fill="none" xmlns="http://www.w3.org/2000/svg">
<g id="inkscape">
<g id="txt">
<path d="M6.4375 89.5342H4.04492V79.5811H6.4375V89.5342Z" fill="black"/>
<path d="M10.1152 82.1377L10.1904 83.0059C10.7008 82.3359 11.4049 82.001 12.3027 82.001C13.0729 82.001 13.6471 82.2311 14.0254 82.6914C14.4082 83.1517 14.6064 83.8444 14.6201 84.7695V89.5342H12.3096V84.8652C12.3096 84.4915 12.2344 84.2181 12.084 84.0449C11.9336 83.8672 11.6602 83.7783 11.2637 83.7783C10.8125 83.7783 10.4775 83.9561 10.2588 84.3115V89.5342H7.95508V82.1377H10.1152Z" fill="black"/>
<path d="M18.8721 86.7793L18.2227 87.4287V89.5342H15.9189V79.0273H18.2227V84.6055L18.4551 84.2979L20.1914 82.1377H22.9531L20.3623 85.1797L23.124 89.5342H20.4854L18.8721 86.7793Z" fill="black"/>
<path d="M27.4307 87.4561C27.4307 87.2601 27.3281 87.1029 27.123 86.9844C26.918 86.8659 26.5283 86.7428 25.9541 86.6152C25.3799 86.4876 24.9059 86.3213 24.5322 86.1162C24.1585 85.9066 23.8737 85.6536 23.6777 85.3574C23.4818 85.0612 23.3838 84.7217 23.3838 84.3389C23.3838 83.6598 23.6641 83.1016 24.2246 82.6641C24.7852 82.222 25.5189 82.001 26.4258 82.001C27.401 82.001 28.1849 82.222 28.7773 82.6641C29.3698 83.1061 29.666 83.6872 29.666 84.4072H27.3555C27.3555 83.8148 27.0433 83.5186 26.4189 83.5186C26.1774 83.5186 25.9746 83.5869 25.8105 83.7236C25.6465 83.8558 25.5645 84.0221 25.5645 84.2227C25.5645 84.4277 25.6647 84.5941 25.8652 84.7217C26.0658 84.8493 26.3848 84.9541 26.8223 85.0361C27.2643 85.1182 27.6517 85.2161 27.9844 85.3301C29.0964 85.7129 29.6523 86.3988 29.6523 87.3877C29.6523 88.0622 29.3516 88.6113 28.75 89.0352C28.153 89.459 27.3783 89.6709 26.4258 89.6709C25.7923 89.6709 25.2272 89.557 24.7305 89.3291C24.2337 89.1012 23.8464 88.7913 23.5684 88.3994C23.2904 88.0075 23.1514 87.5951 23.1514 87.1621H25.3047C25.3138 87.5039 25.4277 87.7546 25.6465 87.9141C25.8652 88.069 26.1455 88.1465 26.4873 88.1465C26.8018 88.1465 27.0365 88.0827 27.1914 87.9551C27.3509 87.8275 27.4307 87.6611 27.4307 87.4561Z" fill="black"/>
<path d="M33.8633 87.8936C34.1868 87.8936 34.4375 87.807 34.6152 87.6338C34.793 87.4561 34.8796 87.21 34.875 86.8955H37.0352C37.0352 87.7067 36.7435 88.3721 36.1602 88.8916C35.5814 89.4111 34.834 89.6709 33.918 89.6709C32.8424 89.6709 31.9948 89.3337 31.375 88.6592C30.7552 87.9847 30.4453 87.0505 30.4453 85.8564V85.7607C30.4453 85.0133 30.582 84.3548 30.8555 83.7852C31.1335 83.2109 31.5322 82.7712 32.0518 82.4658C32.5713 82.1559 33.1865 82.001 33.8975 82.001C34.859 82.001 35.6224 82.2676 36.1875 82.8008C36.7526 83.334 37.0352 84.0563 37.0352 84.9678H34.875C34.875 84.585 34.7816 84.291 34.5947 84.0859C34.4079 83.8809 34.1572 83.7783 33.8428 83.7783C33.2458 83.7783 32.8971 84.1589 32.7969 84.9199C32.765 85.1615 32.749 85.4941 32.749 85.918C32.749 86.6608 32.8379 87.1758 33.0156 87.4629C33.1934 87.75 33.4759 87.8936 33.8633 87.8936Z" fill="black"/>
<path d="M42.1758 89.5342C42.0938 89.3838 42.0208 89.1628 41.957 88.8711C41.5332 89.4043 40.9408 89.6709 40.1797 89.6709C39.4824 89.6709 38.89 89.4613 38.4023 89.042C37.9147 88.6182 37.6709 88.0872 37.6709 87.4492C37.6709 86.6471 37.9671 86.041 38.5596 85.6309C39.152 85.2207 40.0133 85.0156 41.1436 85.0156H41.8545V84.626C41.8545 83.9469 41.5605 83.6074 40.9727 83.6074C40.4258 83.6074 40.1523 83.8763 40.1523 84.4141H37.8486C37.8486 83.6986 38.1517 83.1175 38.7578 82.6709C39.3685 82.2243 40.1455 82.001 41.0889 82.001C42.0322 82.001 42.7773 82.2311 43.3242 82.6914C43.8711 83.1517 44.1514 83.7829 44.165 84.585V87.8594C44.1742 88.5384 44.279 89.0579 44.4795 89.418V89.5342H42.1758ZM40.7334 88.0303C41.0205 88.0303 41.2575 87.9688 41.4443 87.8457C41.6357 87.7227 41.7725 87.5837 41.8545 87.4287V86.2461H41.1846C40.3825 86.2461 39.9814 86.6061 39.9814 87.3262C39.9814 87.5358 40.0521 87.7067 40.1934 87.8389C40.3346 87.9665 40.5146 88.0303 40.7334 88.0303Z" fill="black"/>
<path d="M52.3135 85.8906C52.3135 87.0391 52.0537 87.9574 51.5342 88.6455C51.0192 89.3291 50.3219 89.6709 49.4424 89.6709C48.7633 89.6709 48.2051 89.4225 47.7676 88.9258V92.3779H45.4639V82.1377H47.6172L47.6855 82.8213C48.1276 82.2744 48.7087 82.001 49.4287 82.001C50.3402 82.001 51.0488 82.3382 51.5547 83.0127C52.0605 83.6826 52.3135 84.6055 52.3135 85.7812V85.8906ZM50.0098 85.7471C50.0098 84.4346 49.627 83.7783 48.8613 83.7783C48.3145 83.7783 47.9499 83.9743 47.7676 84.3662V87.2783C47.9681 87.6885 48.3372 87.8936 48.875 87.8936C49.6087 87.8936 49.987 87.2601 50.0098 85.9932V85.7471Z" fill="black"/>
<path d="M56.9141 89.6709C55.7793 89.6709 54.861 89.3337 54.1592 88.6592C53.4574 87.9801 53.1064 87.0983 53.1064 86.0137V85.8223C53.1064 85.0658 53.2454 84.3981 53.5234 83.8193C53.806 83.2406 54.2161 82.7939 54.7539 82.4795C55.2917 82.1605 55.9297 82.001 56.668 82.001C57.707 82.001 58.5273 82.3245 59.1289 82.9717C59.7305 83.6143 60.0312 84.512 60.0312 85.665V86.5605H55.4512C55.5332 86.9753 55.7132 87.3011 55.9912 87.5381C56.2692 87.7751 56.6292 87.8936 57.0713 87.8936C57.8005 87.8936 58.3701 87.6383 58.7803 87.1279L59.833 88.3721C59.5459 88.7686 59.138 89.0853 58.6094 89.3223C58.0853 89.5547 57.5202 89.6709 56.9141 89.6709ZM56.6543 83.7783C55.9798 83.7783 55.5788 84.2249 55.4512 85.1182H57.7754V84.9404C57.7845 84.5713 57.6911 84.2865 57.4951 84.0859C57.2992 83.8809 57.0189 83.7783 56.6543 83.7783Z" fill="black"/>
</g>
<g id="icon">
<path id="Vector" d="M20.4812 40.6534C21.1132 41.0454 30.6626 42.9867 32.9959 43.3734C33.8039 43.544 33.2306 44.376 32.1159 44.9387C29.6012 45.608 17.4039 40.6534 20.4812 40.6534ZM35.5399 5.2827L44.8866 14.776C45.7746 15.6827 45.7612 17.4374 45.2652 17.9414L40.6252 14.2294L39.7132 19.7254L35.8332 17.68L29.6252 21.6L27.5692 13.3334L24.2332 19.104H19.1319C17.0519 19.104 16.8092 16.464 18.6972 14.576C21.9959 11.016 25.7826 7.3867 27.8412 5.2827C29.9106 3.16803 33.5132 3.22937 35.5399 5.2827ZM26.1346 3.58403L2.50789 27.76C-5.47344 37.6454 7.94256 36.496 13.6919 39.3414C15.7559 41.4507 5.78523 43.008 7.84923 45.1174C9.91056 47.2267 20.3239 49.1814 22.3906 51.288C24.4519 53.3974 18.1666 55.6347 20.2306 57.7414C22.2919 59.8534 27.0652 57.8534 27.9586 62.7227C28.5932 66.2 36.5559 64.216 40.4492 61.368C42.5132 59.2587 36.5026 59.456 38.5666 57.3467C43.6946 52.1014 48.4732 55.4427 50.2279 50.184C51.0946 47.5867 42.6759 46.1814 44.7426 44.072C50.6786 40.6054 71.1932 38.3494 61.4572 28.616L36.9719 3.58403C33.9772 0.709366 28.9772 0.677365 26.1372 3.58403H26.1346ZM53.2732 50.184C53.2732 51.384 62.1106 52.1707 62.1106 49.9014C60.8519 46.2587 54.3186 46.504 53.2732 50.184ZM13.4652 56.5574C15.5559 58.368 18.7906 56.1067 19.7586 53.5814C17.7319 50.888 10.1399 53.68 13.4652 56.5574ZM52.1639 52.648C49.4679 55.0694 52.4679 57.5227 55.1266 55.96C55.7186 55.36 55.1106 53.2507 52.1666 52.648H52.1639Z" fill="black"/>
</g>
</g>
</svg>
