<svg width="65" height="90" viewBox="0 0 65 90" fill="none" xmlns="http://www.w3.org/2000/svg">
<path d="M18.1445 77.543V88.918H15.4102V77.543H18.1445Z" fill="black"/>
<path d="M19.6211 84.7773V84.6133C19.6211 83.9935 19.7096 83.4232 19.8867 82.9023C20.0638 82.3763 20.3242 81.9206 20.668 81.5352C21.0117 81.1497 21.4362 80.8503 21.9414 80.6367C22.4466 80.418 23.0299 80.3086 23.6914 80.3086C24.3581 80.3086 24.944 80.418 25.4492 80.6367C25.9596 80.8503 26.3867 81.1497 26.7305 81.5352C27.0742 81.9206 27.3346 82.3763 27.5117 82.9023C27.6888 83.4232 27.7773 83.9935 27.7773 84.6133V84.7773C27.7773 85.3919 27.6888 85.9622 27.5117 86.4883C27.3346 87.0091 27.0742 87.4648 26.7305 87.8555C26.3867 88.2409 25.9622 88.5404 25.457 88.7539C24.9518 88.9674 24.3685 89.0742 23.707 89.0742C23.0456 89.0742 22.4596 88.9674 21.9492 88.7539C21.4388 88.5404 21.0117 88.2409 20.668 87.8555C20.3242 87.4648 20.0638 87.0091 19.8867 86.4883C19.7096 85.9622 19.6211 85.3919 19.6211 84.7773ZM22.2539 84.6133V84.7773C22.2539 85.0951 22.2773 85.3919 22.3242 85.668C22.3711 85.944 22.4492 86.1862 22.5586 86.3945C22.668 86.5977 22.8164 86.7565 23.0039 86.8711C23.1914 86.9857 23.4258 87.043 23.707 87.043C23.9831 87.043 24.2122 86.9857 24.3945 86.8711C24.582 86.7565 24.7305 86.5977 24.8398 86.3945C24.9492 86.1862 25.0273 85.944 25.0742 85.668C25.1211 85.3919 25.1445 85.0951 25.1445 84.7773V84.6133C25.1445 84.306 25.1211 84.0169 25.0742 83.7461C25.0273 83.4701 24.9492 83.2279 24.8398 83.0195C24.7305 82.806 24.582 82.6393 24.3945 82.5195C24.207 82.3997 23.9727 82.3398 23.6914 82.3398C23.4154 82.3398 23.1836 82.3997 22.9961 82.5195C22.8138 82.6393 22.668 82.806 22.5586 83.0195C22.4492 83.2279 22.3711 83.4701 22.3242 83.7461C22.2773 84.0169 22.2539 84.306 22.2539 84.6133Z" fill="black"/>
<path d="M31.5352 82.2695V88.918H28.9023V80.4648H31.3711L31.5352 82.2695ZM31.2227 84.4023L30.6055 84.418C30.6055 83.7721 30.6836 83.1966 30.8398 82.6914C30.9961 82.181 31.2174 81.7487 31.5039 81.3945C31.7904 81.0404 32.1315 80.7721 32.5273 80.5898C32.9284 80.4023 33.3737 80.3086 33.8633 80.3086C34.2539 80.3086 34.6107 80.3659 34.9336 80.4805C35.2617 80.5951 35.543 80.7799 35.7773 81.0352C36.0169 81.2904 36.1992 81.6289 36.3242 82.0508C36.4544 82.4674 36.5195 82.9831 36.5195 83.5977V88.918H33.8711V83.5898C33.8711 83.2513 33.8242 82.9935 33.7305 82.8164C33.6367 82.6341 33.5013 82.5091 33.3242 82.4414C33.1471 82.3737 32.931 82.3398 32.6758 82.3398C32.4049 82.3398 32.1758 82.3919 31.9883 82.4961C31.8008 82.6003 31.6497 82.7461 31.5352 82.9336C31.4258 83.1159 31.3451 83.332 31.293 83.582C31.2461 83.832 31.2227 84.1055 31.2227 84.4023Z" fill="black"/>
<path d="M40.7617 80.4648V88.918H38.1211V80.4648H40.7617ZM37.9648 78.2852C37.9648 77.9102 38.1003 77.6029 38.3711 77.3633C38.6419 77.1237 38.9935 77.0039 39.4258 77.0039C39.8581 77.0039 40.2096 77.1237 40.4805 77.3633C40.7513 77.6029 40.8867 77.9102 40.8867 78.2852C40.8867 78.6602 40.7513 78.9674 40.4805 79.207C40.2096 79.4466 39.8581 79.5664 39.4258 79.5664C38.9935 79.5664 38.6419 79.4466 38.3711 79.207C38.1003 78.9674 37.9648 78.6602 37.9648 78.2852Z" fill="black"/>
<path d="M45.957 87.043C46.2018 87.043 46.4102 86.9987 46.582 86.9102C46.7591 86.8164 46.8919 86.6862 46.9805 86.5195C47.0742 86.3477 47.1185 86.1419 47.1133 85.9023H49.5898C49.5951 86.5378 49.4388 87.0951 49.1211 87.5742C48.8086 88.0482 48.3815 88.418 47.8398 88.6836C47.3034 88.944 46.6966 89.0742 46.0195 89.0742C45.3581 89.0742 44.7799 88.9674 44.2852 88.7539C43.7904 88.5352 43.3763 88.2331 43.043 87.8477C42.7148 87.457 42.4674 87.0013 42.3008 86.4805C42.1393 85.9596 42.0586 85.3945 42.0586 84.7852V84.6055C42.0586 83.9961 42.1393 83.431 42.3008 82.9102C42.4674 82.3841 42.7148 81.9284 43.043 81.543C43.3763 81.1523 43.7878 80.8503 44.2773 80.6367C44.7721 80.418 45.3477 80.3086 46.0039 80.3086C46.707 80.3086 47.3268 80.4414 47.8633 80.707C48.4049 80.9727 48.8294 81.3581 49.1367 81.8633C49.444 82.3685 49.5951 82.9805 49.5898 83.6992H47.1133C47.1185 83.444 47.0794 83.2148 46.9961 83.0117C46.9128 82.8086 46.7826 82.6471 46.6055 82.5273C46.4336 82.4023 46.2122 82.3398 45.9414 82.3398C45.6706 82.3398 45.4518 82.3997 45.2852 82.5195C45.1185 82.6393 44.9909 82.806 44.9023 83.0195C44.819 83.2279 44.7617 83.4674 44.7305 83.7383C44.7044 84.0091 44.6914 84.2982 44.6914 84.6055V84.7852C44.6914 85.0977 44.7044 85.3919 44.7305 85.668C44.7617 85.9388 44.8216 86.1784 44.9102 86.3867C44.9987 86.5898 45.1263 86.7513 45.293 86.8711C45.4596 86.9857 45.681 87.043 45.957 87.043Z" fill="black"/>
<path d="M32.3633 17.6348C29.4791 17.6348 26.6596 18.49 24.2614 20.0925C21.8633 21.6949 19.9941 23.9724 18.8903 26.6371C17.7866 29.3018 17.4978 32.234 18.0605 35.0628C18.6232 37.8917 20.0121 40.4901 22.0516 42.5296C24.091 44.5691 26.6895 45.9579 29.5183 46.5206C32.3471 47.0833 35.2793 46.7945 37.944 45.6908C40.6087 44.587 42.8863 42.7179 44.4887 40.3197C46.0911 37.9215 46.9464 35.1021 46.9464 32.2178C46.9418 28.3516 45.4039 24.645 42.67 21.9111C39.9362 19.1773 36.2296 17.6394 32.3633 17.6348Z" fill="black"/>
<path d="M53.3021 18.9284C56.9709 18.9284 59.945 15.9543 59.945 12.2855C59.945 8.61671 56.9709 5.64258 53.3021 5.64258C49.6333 5.64258 46.6592 8.61671 46.6592 12.2855C46.6592 15.9543 49.6333 18.9284 53.3021 18.9284Z" fill="black"/>
<path d="M61.4812 18.9629L61.2026 18.3534L60.7673 18.8584C59.6783 20.0942 58.3011 21.0421 56.7581 21.6183L56.3227 21.775L56.4969 22.2103C58.8429 27.8522 59.1398 34.1373 57.3362 39.9752C55.5326 45.8131 51.7422 50.8354 46.6226 54.1708C41.5031 57.5062 35.3775 58.9441 29.3085 58.2351C23.2396 57.5261 17.6104 54.715 13.3975 50.2894C9.18462 45.8638 6.65391 40.103 6.24447 34.0066C5.83503 27.9101 7.57269 21.8627 11.156 16.9135C14.7392 11.9643 19.942 8.4257 25.8616 6.91156C31.7812 5.39742 38.0441 6.00333 43.5637 8.62416L43.9729 8.82005L44.1514 8.38474C44.8019 6.87163 45.8156 5.54238 47.1028 4.51479L47.6252 4.07948L47.0288 3.7704C42.4981 1.41561 37.4648 0.192386 32.3587 0.205177C25.4455 0.20617 18.7185 2.44594 13.1845 6.58929C7.65048 10.7326 3.60709 16.5567 1.65945 23.1899C-0.288182 29.8231 -0.0353215 36.9087 2.38019 43.3861C4.79571 49.8636 9.24396 55.3847 15.0592 59.123C20.8745 62.8613 27.744 64.6159 34.6397 64.1241C41.5354 63.6323 48.0864 60.9206 53.3123 56.3948C58.5382 51.869 62.1579 45.7725 63.6297 39.0178C65.1014 32.2631 64.3462 25.2134 61.4769 18.9237L61.4812 18.9629Z" fill="black"/>
</svg>
