<svg width="65" height="89" viewBox="0 0 65 89" fill="none" xmlns="http://www.w3.org/2000/svg">
<g id="java">
<g id="txt">
<path d="M21.959 78.5811H24.3516V85.4102C24.3516 86.0436 24.2035 86.6087 23.9072 87.1055C23.6156 87.6022 23.2054 87.9873 22.6768 88.2607C22.1527 88.5342 21.5671 88.6709 20.9199 88.6709C19.8353 88.6709 18.9922 88.3975 18.3906 87.8506C17.7891 87.3037 17.4883 86.529 17.4883 85.5264H19.8945C19.8945 85.9821 19.972 86.3125 20.127 86.5176C20.2865 86.7227 20.5508 86.8252 20.9199 86.8252C21.2526 86.8252 21.5078 86.7021 21.6855 86.4561C21.8678 86.2054 21.959 85.8568 21.959 85.4102V78.5811Z" fill="black"/>
<path d="M29.9297 88.5342C29.8477 88.3838 29.7747 88.1628 29.7109 87.8711C29.2871 88.4043 28.6947 88.6709 27.9336 88.6709C27.2363 88.6709 26.6439 88.4613 26.1562 88.042C25.6686 87.6182 25.4248 87.0872 25.4248 86.4492C25.4248 85.6471 25.721 85.041 26.3135 84.6309C26.9059 84.2207 27.7673 84.0156 28.8975 84.0156H29.6084V83.626C29.6084 82.9469 29.3145 82.6074 28.7266 82.6074C28.1797 82.6074 27.9062 82.8763 27.9062 83.4141H25.6025C25.6025 82.6986 25.9056 82.1175 26.5117 81.6709C27.1224 81.2243 27.8994 81.001 28.8428 81.001C29.7861 81.001 30.5312 81.2311 31.0781 81.6914C31.625 82.1517 31.9053 82.7829 31.9189 83.585V86.8594C31.9281 87.5384 32.0329 88.0579 32.2334 88.418V88.5342H29.9297ZM28.4873 87.0303C28.7744 87.0303 29.0114 86.9688 29.1982 86.8457C29.3896 86.7227 29.5264 86.5837 29.6084 86.4287V85.2461H28.9385C28.1364 85.2461 27.7354 85.6061 27.7354 86.3262C27.7354 86.5358 27.806 86.7067 27.9473 86.8389C28.0885 86.9665 28.2686 87.0303 28.4873 87.0303Z" fill="black"/>
<path d="M36.041 85.793L37.21 81.1377H39.6367L37.2236 88.5342H34.8721L32.459 81.1377H34.8926L36.041 85.793Z" fill="black"/>
<path d="M44.3809 88.5342C44.2988 88.3838 44.2259 88.1628 44.1621 87.8711C43.7383 88.4043 43.1458 88.6709 42.3848 88.6709C41.6875 88.6709 41.0951 88.4613 40.6074 88.042C40.1198 87.6182 39.876 87.0872 39.876 86.4492C39.876 85.6471 40.1722 85.041 40.7646 84.6309C41.3571 84.2207 42.2184 84.0156 43.3486 84.0156H44.0596V83.626C44.0596 82.9469 43.7656 82.6074 43.1777 82.6074C42.6309 82.6074 42.3574 82.8763 42.3574 83.4141H40.0537C40.0537 82.6986 40.3568 82.1175 40.9629 81.6709C41.5736 81.2243 42.3506 81.001 43.2939 81.001C44.2373 81.001 44.9824 81.2311 45.5293 81.6914C46.0762 82.1517 46.3564 82.7829 46.3701 83.585V86.8594C46.3792 87.5384 46.484 88.0579 46.6846 88.418V88.5342H44.3809ZM42.9385 87.0303C43.2256 87.0303 43.4626 86.9688 43.6494 86.8457C43.8408 86.7227 43.9775 86.5837 44.0596 86.4287V85.2461H43.3896C42.5876 85.2461 42.1865 85.6061 42.1865 86.3262C42.1865 86.5358 42.2572 86.7067 42.3984 86.8389C42.5397 86.9665 42.7197 87.0303 42.9385 87.0303Z" fill="black"/>
</g>
<g id="icon">
<path id="Vector" d="M23.689 49.6992C23.689 49.6992 21.2436 51.1233 25.4303 51.6033C30.5024 52.1846 33.0944 52.1019 38.6812 51.0406C38.6812 51.0406 40.1532 51.9633 42.2039 52.7633C29.6731 58.1314 13.8488 52.4486 23.689 49.6992ZM22.1556 42.6938C22.1556 42.6938 19.4142 44.7231 23.601 45.1578C29.0197 45.7152 33.2971 45.7632 40.7026 44.3365C40.7026 44.3365 41.7266 45.3738 43.3346 45.9418C28.1904 50.3712 11.3154 46.2885 22.1556 42.6938ZM35.0625 30.8056C38.1505 34.3603 34.2518 37.5604 34.2518 37.5604C34.2518 37.5604 42.0893 33.5123 38.4892 28.4455C35.1265 23.7201 32.5478 21.3734 46.508 13.2773C46.508 13.2746 24.5983 18.7467 35.0625 30.8056ZM51.6334 54.8833C51.6334 54.8833 53.4441 56.374 49.6414 57.526C42.4093 59.7181 19.5396 60.3767 13.1901 57.614C10.9074 56.6193 15.1901 55.2407 16.5342 54.9526C17.9395 54.6486 18.7422 54.7046 18.7422 54.7046C16.2008 52.9153 2.32594 58.2167 11.6941 59.7367C37.2412 63.8781 58.2602 57.87 51.6334 54.8833ZM24.865 35.4323C24.865 35.4323 13.2328 38.195 20.7476 39.1977C23.9183 39.6217 30.2437 39.5257 36.1345 39.0324C40.9506 38.627 45.7827 37.7604 45.7827 37.7604C45.7827 37.7604 44.084 38.4857 42.8546 39.3257C31.0437 42.4324 8.2247 40.9871 14.7955 37.811C20.3476 35.1283 24.865 35.4323 24.865 35.4323ZM45.7293 47.0965C57.7375 40.8564 52.1854 34.859 48.3107 35.6697C47.364 35.867 46.9373 36.0377 46.9373 36.0377C46.9373 36.0377 47.2893 35.4857 47.964 35.2457C55.6308 32.5496 61.5269 43.1951 45.4893 47.4112C45.4893 47.4085 45.676 47.2459 45.7293 47.0965ZM38.4892 0.205078C38.4892 0.205078 45.14 6.85585 32.1824 17.0854C21.7929 25.2908 29.8144 29.9709 32.1798 35.315C26.1157 29.8402 21.6649 25.0268 24.649 20.5441C29.033 13.96 41.1746 10.7706 38.4892 0.205078V0.205078ZM26.0437 64.0035C37.5692 64.7421 55.2681 63.5955 55.6868 58.142C55.6868 58.142 54.8815 60.2087 46.1613 61.8514C36.3265 63.7021 24.1903 63.4861 16.9955 62.2994C16.9955 62.2968 18.4702 63.5181 26.0437 64.0035Z" fill="black"/>
</g>
</g>
</svg>
