<svg width="66" height="92" viewBox="0 0 66 92" fill="none" xmlns="http://www.w3.org/2000/svg">
<g id="javascript">
<g id="txt">
<path d="M4.56299 78.5811H6.95557V85.4102C6.95557 86.0436 6.80745 86.6087 6.51123 87.1055C6.21956 87.6022 5.80941 87.9873 5.28076 88.2607C4.75667 88.5342 4.17106 88.6709 3.52393 88.6709C2.43929 88.6709 1.59619 88.3975 0.994629 87.8506C0.393066 87.3037 0.0922852 86.529 0.0922852 85.5264H2.49854C2.49854 85.9821 2.57601 86.3125 2.73096 86.5176C2.89046 86.7227 3.15479 86.8252 3.52393 86.8252C3.85661 86.8252 4.11182 86.7021 4.28955 86.4561C4.47184 86.2054 4.56299 85.8568 4.56299 85.4102V78.5811Z" fill="black"/>
<path d="M12.5337 88.5342C12.4517 88.3838 12.3787 88.1628 12.3149 87.8711C11.8911 88.4043 11.2987 88.6709 10.5376 88.6709C9.84033 88.6709 9.24788 88.4613 8.76025 88.042C8.27262 87.6182 8.02881 87.0872 8.02881 86.4492C8.02881 85.6471 8.32503 85.041 8.91748 84.6309C9.50993 84.2207 10.3713 84.0156 11.5015 84.0156H12.2124V83.626C12.2124 82.9469 11.9185 82.6074 11.3306 82.6074C10.7837 82.6074 10.5103 82.8763 10.5103 83.4141H8.20654C8.20654 82.6986 8.5096 82.1175 9.11572 81.6709C9.7264 81.2243 10.5034 81.001 11.4468 81.001C12.3901 81.001 13.1353 81.2311 13.6821 81.6914C14.229 82.1517 14.5093 82.7829 14.5229 83.585V86.8594C14.5321 87.5384 14.6369 88.0579 14.8374 88.418V88.5342H12.5337ZM11.0913 87.0303C11.3784 87.0303 11.6154 86.9688 11.8022 86.8457C11.9937 86.7227 12.1304 86.5837 12.2124 86.4287V85.2461H11.5425C10.7404 85.2461 10.3394 85.6061 10.3394 86.3262C10.3394 86.5358 10.41 86.7067 10.5513 86.8389C10.6925 86.9665 10.8726 87.0303 11.0913 87.0303Z" fill="black"/>
<path d="M18.645 85.793L19.814 81.1377H22.2407L19.8276 88.5342H17.4761L15.063 81.1377H17.4966L18.645 85.793Z" fill="black"/>
<path d="M26.9849 88.5342C26.9028 88.3838 26.8299 88.1628 26.7661 87.8711C26.3423 88.4043 25.7498 88.6709 24.9888 88.6709C24.2915 88.6709 23.6991 88.4613 23.2114 88.042C22.7238 87.6182 22.48 87.0872 22.48 86.4492C22.48 85.6471 22.7762 85.041 23.3687 84.6309C23.9611 84.2207 24.8224 84.0156 25.9526 84.0156H26.6636V83.626C26.6636 82.9469 26.3696 82.6074 25.7817 82.6074C25.2349 82.6074 24.9614 82.8763 24.9614 83.4141H22.6577C22.6577 82.6986 22.9608 82.1175 23.5669 81.6709C24.1776 81.2243 24.9546 81.001 25.8979 81.001C26.8413 81.001 27.5864 81.2311 28.1333 81.6914C28.6802 82.1517 28.9604 82.7829 28.9741 83.585V86.8594C28.9832 87.5384 29.0881 88.0579 29.2886 88.418V88.5342H26.9849ZM25.5425 87.0303C25.8296 87.0303 26.0666 86.9688 26.2534 86.8457C26.4448 86.7227 26.5815 86.5837 26.6636 86.4287V85.2461H25.9937C25.1916 85.2461 24.7905 85.6061 24.7905 86.3262C24.7905 86.5358 24.8612 86.7067 25.0024 86.8389C25.1437 86.9665 25.3237 87.0303 25.5425 87.0303Z" fill="black"/>
<path d="M34.1284 86.4561C34.1284 86.2601 34.0259 86.1029 33.8208 85.9844C33.6157 85.8659 33.2261 85.7428 32.6519 85.6152C32.0776 85.4876 31.6037 85.3213 31.23 85.1162C30.8563 84.9066 30.5715 84.6536 30.3755 84.3574C30.1795 84.0612 30.0815 83.7217 30.0815 83.3389C30.0815 82.6598 30.3618 82.1016 30.9224 81.6641C31.4829 81.222 32.2166 81.001 33.1235 81.001C34.0988 81.001 34.8826 81.222 35.4751 81.6641C36.0675 82.1061 36.3638 82.6872 36.3638 83.4072H34.0532C34.0532 82.8148 33.741 82.5186 33.1167 82.5186C32.8752 82.5186 32.6724 82.5869 32.5083 82.7236C32.3442 82.8558 32.2622 83.0221 32.2622 83.2227C32.2622 83.4277 32.3625 83.5941 32.563 83.7217C32.7635 83.8493 33.0825 83.9541 33.52 84.0361C33.9621 84.1182 34.3494 84.2161 34.6821 84.3301C35.7941 84.7129 36.3501 85.3988 36.3501 86.3877C36.3501 87.0622 36.0493 87.6113 35.4478 88.0352C34.8507 88.459 34.076 88.6709 33.1235 88.6709C32.4901 88.6709 31.925 88.557 31.4282 88.3291C30.9315 88.1012 30.5441 87.7913 30.2661 87.3994C29.9881 87.0075 29.8491 86.5951 29.8491 86.1621H32.0024C32.0116 86.5039 32.1255 86.7546 32.3442 86.9141C32.563 87.069 32.8433 87.1465 33.1851 87.1465C33.4995 87.1465 33.7342 87.0827 33.8892 86.9551C34.0487 86.8275 34.1284 86.6611 34.1284 86.4561Z" fill="black"/>
<path d="M40.561 86.8936C40.8846 86.8936 41.1353 86.807 41.313 86.6338C41.4907 86.4561 41.5773 86.21 41.5728 85.8955H43.7329C43.7329 86.7067 43.4412 87.3721 42.8579 87.8916C42.2791 88.4111 41.5317 88.6709 40.6157 88.6709C39.5402 88.6709 38.6925 88.3337 38.0728 87.6592C37.453 86.9847 37.1431 86.0505 37.1431 84.8564V84.7607C37.1431 84.0133 37.2798 83.3548 37.5532 82.7852C37.8312 82.2109 38.23 81.7712 38.7495 81.4658C39.269 81.1559 39.8843 81.001 40.5952 81.001C41.5568 81.001 42.3201 81.2676 42.8853 81.8008C43.4504 82.334 43.7329 83.0563 43.7329 83.9678H41.5728C41.5728 83.585 41.4793 83.291 41.2925 83.0859C41.1056 82.8809 40.855 82.7783 40.5405 82.7783C39.9435 82.7783 39.5949 83.1589 39.4946 83.9199C39.4627 84.1615 39.4468 84.4941 39.4468 84.918C39.4468 85.6608 39.5356 86.1758 39.7134 86.4629C39.8911 86.75 40.1737 86.8936 40.561 86.8936Z" fill="black"/>
<path d="M49.1812 83.2227L48.4224 83.168C47.6978 83.168 47.2329 83.3958 47.0278 83.8516V88.5342H44.7241V81.1377H46.8843L46.9595 82.0879C47.3468 81.3633 47.8869 81.001 48.5796 81.001C48.8257 81.001 49.0399 81.0283 49.2222 81.083L49.1812 83.2227Z" fill="black"/>
<path d="M52.4419 88.5342H50.1313V81.1377H52.4419V88.5342ZM49.9946 79.2305C49.9946 78.9023 50.1131 78.6335 50.3501 78.4238C50.5871 78.2142 50.8947 78.1094 51.2729 78.1094C51.6512 78.1094 51.9588 78.2142 52.1958 78.4238C52.4328 78.6335 52.5513 78.9023 52.5513 79.2305C52.5513 79.5586 52.4328 79.8275 52.1958 80.0371C51.9588 80.2467 51.6512 80.3516 51.2729 80.3516C50.8947 80.3516 50.5871 80.2467 50.3501 80.0371C50.1131 79.8275 49.9946 79.5586 49.9946 79.2305Z" fill="black"/>
<path d="M60.7339 84.8906C60.7339 86.0391 60.4741 86.9574 59.9546 87.6455C59.4396 88.3291 58.7424 88.6709 57.8628 88.6709C57.1838 88.6709 56.6255 88.4225 56.188 87.9258V91.3779H53.8843V81.1377H56.0376L56.106 81.8213C56.548 81.2744 57.1291 81.001 57.8491 81.001C58.7606 81.001 59.4692 81.3382 59.9751 82.0127C60.481 82.6826 60.7339 83.6055 60.7339 84.7812V84.8906ZM58.4302 84.7471C58.4302 83.4346 58.0474 82.7783 57.2817 82.7783C56.7349 82.7783 56.3703 82.9743 56.188 83.3662V86.2783C56.3885 86.6885 56.7576 86.8936 57.2954 86.8936C58.0291 86.8936 58.4074 86.2601 58.4302 84.9932V84.7471Z" fill="black"/>
<path d="M64.439 79.2988V81.1377H65.6558V82.7373H64.439V86.1211C64.439 86.3991 64.4891 86.5928 64.5894 86.7021C64.6896 86.8115 64.8879 86.8662 65.1841 86.8662C65.4119 86.8662 65.6034 86.8525 65.7583 86.8252V88.4727C65.3436 88.6048 64.9106 88.6709 64.4595 88.6709C63.6665 88.6709 63.0809 88.484 62.7026 88.1104C62.3244 87.7367 62.1353 87.1693 62.1353 86.4082V82.7373H61.1919V81.1377H62.1353V79.2988H64.439Z" fill="black"/>
</g>
<g id="icon">
<path id="Vector" d="M0.925293 0.205078H64.9253V64.2051H0.925293V0.205078ZM59.6826 48.9411C59.216 46.0211 57.3146 43.5677 51.6746 41.2797C49.712 40.3597 47.5306 39.7197 46.8826 38.2397C46.64 37.3597 46.6026 36.8797 46.76 36.3597C47.16 34.6371 49.2 34.1197 50.8 34.5997C51.84 34.9197 52.8 35.7197 53.4026 36.9997C56.16 35.1971 56.16 35.1971 58.0826 33.9997C57.3626 32.8797 57.0053 32.3971 56.52 31.9197C54.84 30.0397 52.6026 29.0797 48.9626 29.1624L47.0826 29.3997C45.28 29.8397 43.5626 30.7997 42.5226 32.0797C39.4826 35.5224 40.36 41.5224 44.04 44.0024C47.68 46.7224 53.0026 47.3197 53.6826 49.8824C54.3226 53.0024 51.3626 54.0024 48.44 53.6424C46.2773 53.1624 45.08 52.0797 43.76 50.0797L38.88 52.8824C39.44 54.1624 40.08 54.7197 41.04 55.8397C45.68 60.5224 57.28 60.2824 59.3626 53.1624C59.44 52.9224 60.0026 51.2824 59.56 48.7624L59.6826 48.9411ZM35.728 29.6211H29.7333C29.7333 34.7891 29.7093 39.9251 29.7093 45.1011C29.7093 48.3864 29.8773 51.4024 29.3413 52.3304C28.4613 54.1677 26.1946 53.9331 25.1653 53.6104C24.1093 53.0877 23.5733 52.3677 22.952 51.3304C22.784 51.0504 22.6586 50.8077 22.6133 50.8077L17.7466 53.8077C18.56 55.4877 19.7466 56.9331 21.2773 57.8531C23.5573 59.2131 26.6213 59.6531 29.8293 58.9331C31.9173 58.3304 33.7173 57.0904 34.6586 55.1704C36.0186 52.6904 35.7306 49.6504 35.7173 46.2477C35.7493 40.7704 35.7173 35.2904 35.7173 29.7704L35.728 29.6211Z" fill="black"/>
</g>
</g>
</svg>
