<svg width="65" height="92" viewBox="0 0 65 92" fill="none" xmlns="http://www.w3.org/2000/svg">
<g id="mysql">
<g id="txt">
<path d="M13.3569 78.5811L15.5786 85.5059L17.7935 78.5811H20.9517V88.5342H18.5454V86.21L18.7778 81.4521L16.3716 88.5342H14.7856L12.3726 81.4453L12.605 86.21V88.5342H10.2056V78.5811H13.3569Z" fill="black"/>
<path d="M25.3335 85.3076L26.564 81.1377H29.0317L26.0171 89.7715L25.8872 90.0859C25.4588 91.043 24.7023 91.5215 23.6177 91.5215C23.3169 91.5215 23.0002 91.4759 22.6675 91.3848V89.7373H22.9683C23.2918 89.7373 23.5379 89.6895 23.7065 89.5938C23.8797 89.5026 24.0073 89.3363 24.0894 89.0947L24.2739 88.6025L21.7036 81.1377H24.1646L25.3335 85.3076Z" fill="black"/>
<path d="M34.8765 85.8887C34.8765 85.5378 34.7511 85.2643 34.5005 85.0684C34.2544 84.8724 33.8192 84.6696 33.1948 84.46C32.5705 84.2503 32.0601 84.0475 31.6636 83.8516C30.3739 83.2181 29.729 82.3477 29.729 81.2402C29.729 80.6888 29.8885 80.2035 30.2075 79.7842C30.5311 79.3604 30.9868 79.0322 31.5747 78.7998C32.1626 78.5628 32.8234 78.4443 33.5571 78.4443C34.2726 78.4443 34.9129 78.5719 35.478 78.8271C36.0477 79.0824 36.4897 79.4469 36.8042 79.9209C37.1187 80.3903 37.2759 80.9281 37.2759 81.5342H34.8833C34.8833 81.1286 34.758 80.8141 34.5073 80.5908C34.2612 80.3675 33.9263 80.2559 33.5024 80.2559C33.0741 80.2559 32.7345 80.3516 32.4839 80.543C32.2378 80.7298 32.1147 80.9691 32.1147 81.2607C32.1147 81.516 32.2515 81.7484 32.5249 81.958C32.7983 82.1631 33.2791 82.3773 33.9673 82.6006C34.6554 82.8193 35.2205 83.0563 35.6626 83.3115C36.7381 83.9313 37.2759 84.7858 37.2759 85.875C37.2759 86.7454 36.9478 87.429 36.2915 87.9258C35.6353 88.4225 34.7352 88.6709 33.5913 88.6709C32.7847 88.6709 32.0532 88.5273 31.397 88.2402C30.7453 87.9486 30.2531 87.5521 29.9204 87.0508C29.5923 86.5449 29.4282 85.9639 29.4282 85.3076H31.8345C31.8345 85.8408 31.9712 86.235 32.2446 86.4902C32.5226 86.7409 32.9715 86.8662 33.5913 86.8662C33.9878 86.8662 34.3 86.7819 34.5278 86.6133C34.7603 86.4401 34.8765 86.1986 34.8765 85.8887Z" fill="black"/>
<path d="M46.9487 83.7627C46.9487 84.6833 46.7961 85.4876 46.4907 86.1758C46.1854 86.8594 45.7638 87.4085 45.2261 87.8232L46.8325 89.0947L45.3491 90.3525L43.2095 88.6299C43.009 88.6572 42.8084 88.6709 42.6079 88.6709C41.7603 88.6709 41.0083 88.4749 40.3521 88.083C39.6958 87.6911 39.1831 87.1305 38.814 86.4014C38.4494 85.6722 38.2603 84.8337 38.2466 83.8857V83.3594C38.2466 82.3796 38.4243 81.5182 38.7798 80.7754C39.1398 80.0326 39.6502 79.4583 40.311 79.0527C40.9764 78.6471 41.7375 78.4443 42.5942 78.4443C43.4373 78.4443 44.1893 78.6449 44.8501 79.0459C45.5109 79.4469 46.0236 80.0189 46.3882 80.7617C46.7573 81.5 46.9442 82.3477 46.9487 83.3047V83.7627ZM44.5083 83.3457C44.5083 82.3568 44.342 81.6071 44.0093 81.0967C43.6812 80.5817 43.2095 80.3242 42.5942 80.3242C41.9608 80.3242 41.4845 80.5771 41.1655 81.083C40.8465 81.5889 40.6847 82.3294 40.6802 83.3047V83.7627C40.6802 84.7425 40.842 85.4945 41.1655 86.0186C41.4891 86.5381 41.9699 86.7979 42.6079 86.7979C43.2186 86.7979 43.6857 86.5404 44.0093 86.0254C44.3374 85.5104 44.5037 84.7699 44.5083 83.8037V83.3457Z" fill="black"/>
<path d="M50.5718 86.6885H54.7485V88.5342H48.1724V78.5811H50.5718V86.6885Z" fill="black"/>
</g>
<g id="icon">
<path id="Vector" d="M7.27311 0.21596C4.9369 0.0821299 2.55647 1.18882 1.35781 3.19918C0.778854 4.17963 0.482873 5.25259 0.477054 6.3756C0.474145 9.0842 2.22262 11.2856 3.26707 12.5977C3.45036 12.8305 3.6182 13.0323 3.78985 13.2796L4.26148 13.9047C4.7328 14.5185 5.26052 15.2091 5.42636 15.5582C5.48454 15.7212 5.56041 16.0045 5.65933 16.3594C6.1161 18.0032 6.96858 21.0582 8.32434 23.3828C8.86839 24.3225 9.64105 25.4971 10.1938 26.3262C9.82434 28.1766 9.19942 31.585 9.19942 33.6564C9.19942 37.2931 9.95358 40.2137 11.5974 42.8845C12.2054 43.8388 14.0609 46.7485 17.2001 46.7485C18.3144 46.7485 20.1659 46.3132 20.6663 43.5494C22.892 46.4209 25.5717 49.4692 30.2354 52.3058C30.4652 52.4571 30.7257 52.5672 31.0195 52.5672C31.8225 52.5672 32.4742 51.9155 32.4742 51.1125C32.4742 50.6267 32.2186 50.2181 31.8492 49.9533C27.8633 46.1101 22.597 39.6721 20.4731 34.4179C20.0338 33.3269 18.5873 33.1616 17.9502 34.1508C17.2869 35.1836 16.5124 36.5785 15.7909 38.3387C15.2643 37.0062 15.0181 35.5039 15.0181 33.6564C15.0181 32.3007 15.7845 28.2397 16.1773 26.241C16.3228 25.5049 16.173 24.7668 15.7511 24.1442C15.0354 23.0881 13.9118 21.4136 13.3532 20.4564C12.3757 18.7806 11.6547 16.1875 11.2678 14.7968C11.0816 14.1218 10.9301 13.6283 10.7905 13.2967C10.2813 12.1911 9.53859 11.2199 8.88689 10.3646L8.51754 9.88727C8.33425 9.62252 8.09209 9.31281 7.81861 8.97242C7.2862 8.30327 6.29507 7.05925 6.32416 6.25627L6.64806 6.02898L6.65374 6.01761C8.96667 6.01761 11.9461 7.65671 13.0691 8.27349C13.4327 8.47424 13.705 8.61293 13.8476 8.67694L14.3533 8.89855L15.3477 8.93832C16.6482 8.96742 20.6009 9.0542 23.3939 10.1714C28.4881 12.2079 31.3047 14.2522 34.1675 17.9732C38.0108 22.9686 40.4759 28.798 41.8898 32.9234C42.5473 34.8378 43.1205 37.0215 43.4638 38.4296C43.6878 39.3518 44.3523 40.0837 45.2367 40.4241C46.5139 40.9158 48.4202 41.7203 49.936 42.6629C51.2248 43.463 52.6647 44.5016 54.067 45.8166C50.8813 46.605 48.9596 47.862 47.9472 48.7203C47.3479 49.2294 47.296 50.1211 47.8051 50.7204C48.7885 51.8784 50.9659 53.798 55.0273 56.5619C58.0793 58.6391 61.3034 62.7339 61.9143 63.6591C62.1791 63.9879 62.5685 64.2046 63.0224 64.2046C63.8254 64.2046 64.4771 63.5529 64.4771 62.7499C64.4771 62.4473 64.3841 62.1701 64.227 61.9373C64.1747 61.8617 63.793 61.222 63.6418 60.9543C62.1871 58.3854 59.4371 54.6876 56.6354 51.1353C58.544 50.5243 60.6875 50.0764 62.2382 49.7942C63.271 49.6051 63.7722 48.4138 63.1758 47.5497C62.3786 46.4005 61.2128 44.8585 59.7494 43.3107C55.6443 38.9699 51.1338 36.5072 48.7597 35.4918C47.7909 31.8057 44.8767 22.3496 38.7816 14.4274C35.2933 9.89177 31.5813 7.17935 25.5531 4.7675C21.9834 3.34192 17.691 3.17186 15.7795 3.12531C14.1998 2.25832 10.7934 0.416705 7.27311 0.21596ZM18.3366 11.8363C18.293 11.8363 17.2815 11.8409 16.1148 12.1318C15.8791 12.1929 15.6878 12.3651 15.6034 12.5921C15.5219 12.819 15.5574 13.0704 15.7 13.2683L18.7059 17.3595C18.8427 17.5457 19.009 17.7277 19.2912 17.655C19.5211 17.655 19.7369 17.5485 19.8765 17.3652C20.8279 16.0967 20.8368 14.6249 20.8368 14.5638C20.8368 14.4765 20.8234 14.3896 20.7914 14.3081C20.7652 14.2383 20.1189 12.5621 18.6264 11.8988C18.5333 11.8581 18.4355 11.8363 18.3366 11.8363Z" fill="black"/>
</g>
</g>
</svg>
