<svg width="65" height="89" viewBox="0 0 65 89" fill="none" xmlns="http://www.w3.org/2000/svg">
<g id="nodejs">
<g id="txt">
<path d="M16.4878 88.5342H14.1021L10.5747 82.3408V88.5342H8.17529V78.5811H10.5747L14.0952 84.7744V78.5811H16.4878V88.5342Z" fill="black"/>
<path d="M17.6089 84.7676C17.6089 84.0293 17.7524 83.373 18.0396 82.7988C18.3267 82.2201 18.7391 81.7757 19.2769 81.4658C19.8146 81.1559 20.4458 81.001 21.1704 81.001C22.2778 81.001 23.1506 81.3451 23.7886 82.0332C24.4266 82.7168 24.7456 83.6488 24.7456 84.8291V84.9111C24.7456 86.0641 24.4243 86.9801 23.7817 87.6592C23.1437 88.3337 22.2778 88.6709 21.1841 88.6709C20.1313 88.6709 19.286 88.3564 18.6479 87.7275C18.0099 87.0941 17.6659 86.2373 17.6157 85.1572L17.6089 84.7676ZM19.9126 84.9111C19.9126 85.5947 20.0197 86.096 20.2339 86.415C20.4481 86.734 20.7648 86.8936 21.1841 86.8936C22.0044 86.8936 22.4237 86.2624 22.4419 85V84.7676C22.4419 83.4414 22.0181 82.7783 21.1704 82.7783C20.4002 82.7783 19.9832 83.3503 19.9194 84.4941L19.9126 84.9111Z" fill="black"/>
<path d="M25.4702 84.7812C25.4702 83.61 25.7231 82.6872 26.229 82.0127C26.7349 81.3382 27.4412 81.001 28.3481 81.001C29.009 81.001 29.5649 81.2607 30.0161 81.7803V78.0342H32.3267V88.5342H30.2554L30.1392 87.7412C29.6652 88.361 29.0636 88.6709 28.3345 88.6709C27.4549 88.6709 26.7577 88.3337 26.2427 87.6592C25.7277 86.9847 25.4702 86.0254 25.4702 84.7812ZM27.7739 84.9248C27.7739 86.2373 28.1567 86.8936 28.9224 86.8936C29.4328 86.8936 29.7974 86.6794 30.0161 86.251V83.4346C29.8065 82.9971 29.4465 82.7783 28.936 82.7783C28.2251 82.7783 27.84 83.3525 27.7808 84.501L27.7739 84.9248Z" fill="black"/>
<path d="M37.2144 88.6709C36.0796 88.6709 35.1613 88.3337 34.4595 87.6592C33.7577 86.9801 33.4067 86.0983 33.4067 85.0137V84.8223C33.4067 84.0658 33.5457 83.3981 33.8237 82.8193C34.1063 82.2406 34.5164 81.7939 35.0542 81.4795C35.592 81.1605 36.23 81.001 36.9683 81.001C38.0073 81.001 38.8276 81.3245 39.4292 81.9717C40.0308 82.6143 40.3315 83.512 40.3315 84.665V85.5605H35.7515C35.8335 85.9753 36.0135 86.3011 36.2915 86.5381C36.5695 86.7751 36.9295 86.8936 37.3716 86.8936C38.1007 86.8936 38.6704 86.6383 39.0806 86.1279L40.1333 87.3721C39.8462 87.7686 39.4383 88.0853 38.9097 88.3223C38.3856 88.5547 37.8205 88.6709 37.2144 88.6709ZM36.9546 82.7783C36.2801 82.7783 35.8791 83.2249 35.7515 84.1182H38.0757V83.9404C38.0848 83.5713 37.9914 83.2865 37.7954 83.0859C37.5994 82.8809 37.3192 82.7783 36.9546 82.7783Z" fill="black"/>
<path d="M45.3354 78.5811H47.728V85.4102C47.728 86.0436 47.5799 86.6087 47.2837 87.1055C46.992 87.6022 46.5819 87.9873 46.0532 88.2607C45.5291 88.5342 44.9435 88.6709 44.2964 88.6709C43.2118 88.6709 42.3687 88.3975 41.7671 87.8506C41.1655 87.3037 40.8647 86.529 40.8647 85.5264H43.271C43.271 85.9821 43.3485 86.3125 43.5034 86.5176C43.6629 86.7227 43.9272 86.8252 44.2964 86.8252C44.6291 86.8252 44.8843 86.7021 45.062 86.4561C45.2443 86.2054 45.3354 85.8568 45.3354 85.4102V78.5811Z" fill="black"/>
<path d="M54.3794 85.8887C54.3794 85.5378 54.2541 85.2643 54.0034 85.0684C53.7573 84.8724 53.3221 84.6696 52.6978 84.46C52.0734 84.2503 51.563 84.0475 51.1665 83.8516C49.8768 83.2181 49.2319 82.3477 49.2319 81.2402C49.2319 80.6888 49.3914 80.2035 49.7104 79.7842C50.034 79.3604 50.4897 79.0322 51.0776 78.7998C51.6655 78.5628 52.3263 78.4443 53.0601 78.4443C53.7756 78.4443 54.4159 78.5719 54.981 78.8271C55.5506 79.0824 55.9927 79.4469 56.3071 79.9209C56.6216 80.3903 56.7788 80.9281 56.7788 81.5342H54.3862C54.3862 81.1286 54.2609 80.8141 54.0103 80.5908C53.7642 80.3675 53.4292 80.2559 53.0054 80.2559C52.577 80.2559 52.2375 80.3516 51.9868 80.543C51.7407 80.7298 51.6177 80.9691 51.6177 81.2607C51.6177 81.516 51.7544 81.7484 52.0278 81.958C52.3013 82.1631 52.7821 82.3773 53.4702 82.6006C54.1584 82.8193 54.7235 83.0563 55.1655 83.3115C56.241 83.9313 56.7788 84.7858 56.7788 85.875C56.7788 86.7454 56.4507 87.429 55.7944 87.9258C55.1382 88.4225 54.2381 88.6709 53.0942 88.6709C52.2876 88.6709 51.5562 88.5273 50.8999 88.2402C50.2482 87.9486 49.756 87.5521 49.4233 87.0508C49.0952 86.5449 48.9312 85.9639 48.9312 85.3076H51.3374C51.3374 85.8408 51.4741 86.235 51.7476 86.4902C52.0256 86.7409 52.4744 86.8662 53.0942 86.8662C53.4907 86.8662 53.8029 86.7819 54.0308 86.6133C54.2632 86.4401 54.3794 86.1986 54.3794 85.8887Z" fill="black"/>
</g>
<g id="icon">
<path id="Vector" d="M32.4734 64.2057C31.6174 64.2057 30.7641 63.9817 30.0148 63.5471L22.1854 58.9151C21.0174 58.2617 21.5881 58.0297 21.9721 57.8937C23.5321 57.3524 23.8468 57.2271 25.5134 56.2831C25.6868 56.1844 25.9161 56.2217 26.0948 56.3284L32.1108 59.8991C32.3294 60.0191 32.6361 60.0191 32.8361 59.8991L56.2894 46.3631C56.5081 46.2377 56.6468 45.9871 56.6468 45.7284V18.6617C56.6468 18.3977 56.5054 18.1497 56.2814 18.0164L32.8388 4.49108C32.6228 4.36574 32.3348 4.36574 32.1161 4.49108L8.67876 18.0191C8.4521 18.1497 8.3081 18.4057 8.3081 18.6617V45.7284C8.3081 45.9871 8.4521 46.2324 8.67876 46.3551L15.1028 50.0671C18.5881 51.8111 20.7241 49.7577 20.7241 47.6937V20.9711C20.7241 20.5924 21.0281 20.2964 21.4068 20.2964H24.3801C24.7508 20.2964 25.0601 20.5951 25.0601 20.9711V47.6937C25.0601 52.3471 22.5268 55.0137 18.1161 55.0137C16.7614 55.0137 15.6921 55.0137 12.7134 53.5444L6.55876 50.0057C5.03876 49.1284 4.1001 47.4857 4.1001 45.7284V18.6617C4.1001 16.9044 5.04143 15.2617 6.55876 14.3871L30.0121 0.835078C31.4974 -0.00492185 33.4681 -0.00492185 34.9401 0.835078L58.3908 14.3871C59.9108 15.2644 60.8548 16.9044 60.8548 18.6617V45.7284C60.8548 47.4857 59.9108 49.1231 58.3908 50.0057L34.9401 63.5471C34.1934 63.9817 33.3428 64.2057 32.4734 64.2057ZM51.4094 37.5204C51.4094 32.4537 47.9854 31.1044 40.7774 30.1524C33.4948 29.1897 32.7534 28.6911 32.7534 26.9871C32.7534 25.5791 33.3801 23.6991 38.7748 23.6991C43.5934 23.6991 45.3694 24.7364 46.1001 27.9844C46.1641 28.2911 46.4441 28.5151 46.7588 28.5151H49.8014C49.9908 28.5151 50.1694 28.4324 50.2974 28.2991C50.4254 28.1551 50.4948 27.9711 50.4761 27.7764C50.0041 22.1817 46.2868 19.5737 38.7748 19.5737C32.0868 19.5737 28.0974 22.3951 28.0974 27.1284C28.0974 32.2617 32.0654 33.6804 38.4841 34.3151C46.1641 35.0671 46.7588 36.1897 46.7588 37.6991C46.7588 40.3204 44.6548 41.4377 39.7134 41.4377C33.5081 41.4377 32.1428 39.8804 31.6841 36.7924C31.6308 36.4617 31.3481 36.2191 31.0094 36.2191H27.9774C27.6014 36.2191 27.3001 36.5177 27.3001 36.8937C27.3001 40.8457 29.4494 45.5551 39.7134 45.5551C47.1481 45.5577 51.4094 42.6324 51.4094 37.5204Z" fill="black"/>
</g>
</g>
</svg>
