<svg width="68" height="93" viewBox="0 0 68 93" fill="none" xmlns="http://www.w3.org/2000/svg">
<g id="photoshop">
<g id="txt">
<path d="M2.43799 86.1572V89.5342H0.0385742V79.5811H4.01025C4.77132 79.5811 5.44352 79.7223 6.02686 80.0049C6.61475 80.2829 7.0682 80.6816 7.38721 81.2012C7.71077 81.7161 7.87256 82.3018 7.87256 82.958C7.87256 83.9287 7.52393 84.7057 6.82666 85.2891C6.13395 85.8678 5.18148 86.1572 3.96924 86.1572H2.43799ZM2.43799 84.3047H4.01025C4.4751 84.3047 4.82829 84.1885 5.06982 83.9561C5.31592 83.7236 5.43896 83.3955 5.43896 82.9717C5.43896 82.5068 5.31364 82.1354 5.06299 81.8574C4.81234 81.5794 4.47054 81.4382 4.0376 81.4336H2.43799V84.3047Z" fill="black"/>
<path d="M11.3042 82.9307C11.7964 82.3109 12.4253 82.001 13.1909 82.001C14.0067 82.001 14.6219 82.2425 15.0366 82.7256C15.4513 83.2087 15.6632 83.9219 15.6724 84.8652V89.5342H13.3618V84.9199C13.3618 84.528 13.2821 84.2409 13.1226 84.0586C12.9631 83.8717 12.6919 83.7783 12.3091 83.7783C11.8351 83.7783 11.5002 83.9287 11.3042 84.2295V89.5342H9.00049V79.0342H11.3042V82.9307Z" fill="black"/>
<path d="M16.6636 85.7676C16.6636 85.0293 16.8071 84.373 17.0942 83.7988C17.3813 83.2201 17.7938 82.7757 18.3315 82.4658C18.8693 82.1559 19.5005 82.001 20.2251 82.001C21.3325 82.001 22.2052 82.3451 22.8433 83.0332C23.4813 83.7168 23.8003 84.6488 23.8003 85.8291V85.9111C23.8003 87.0641 23.479 87.9801 22.8364 88.6592C22.1984 89.3337 21.3325 89.6709 20.2388 89.6709C19.186 89.6709 18.3407 89.3564 17.7026 88.7275C17.0646 88.0941 16.7205 87.2373 16.6704 86.1572L16.6636 85.7676ZM18.9673 85.9111C18.9673 86.5947 19.0744 87.096 19.2886 87.415C19.5028 87.734 19.8195 87.8936 20.2388 87.8936C21.0591 87.8936 21.4784 87.2624 21.4966 86V85.7676C21.4966 84.4414 21.0728 83.7783 20.2251 83.7783C19.4549 83.7783 19.0379 84.3503 18.9741 85.4941L18.9673 85.9111Z" fill="black"/>
<path d="M27.4985 80.2988V82.1377H28.7153V83.7373H27.4985V87.1211C27.4985 87.3991 27.5487 87.5928 27.6489 87.7021C27.7492 87.8115 27.9474 87.8662 28.2437 87.8662C28.4715 87.8662 28.6629 87.8525 28.8179 87.8252V89.4727C28.4032 89.6048 27.9702 89.6709 27.519 89.6709C26.7261 89.6709 26.1405 89.484 25.7622 89.1104C25.384 88.7367 25.1948 88.1693 25.1948 87.4082V83.7373H24.2515V82.1377H25.1948V80.2988H27.4985Z" fill="black"/>
<path d="M29.1323 85.7676C29.1323 85.0293 29.2759 84.373 29.563 83.7988C29.8501 83.2201 30.2625 82.7757 30.8003 82.4658C31.3381 82.1559 31.9692 82.001 32.6938 82.001C33.8013 82.001 34.674 82.3451 35.312 83.0332C35.95 83.7168 36.269 84.6488 36.269 85.8291V85.9111C36.269 87.0641 35.9478 87.9801 35.3052 88.6592C34.6672 89.3337 33.8013 89.6709 32.7075 89.6709C31.6548 89.6709 30.8094 89.3564 30.1714 88.7275C29.5334 88.0941 29.1893 87.2373 29.1392 86.1572L29.1323 85.7676ZM31.436 85.9111C31.436 86.5947 31.5431 87.096 31.7573 87.415C31.9715 87.734 32.2882 87.8936 32.7075 87.8936C33.5278 87.8936 33.9471 87.2624 33.9653 86V85.7676C33.9653 84.4414 33.5415 83.7783 32.6938 83.7783C31.9237 83.7783 31.5067 84.3503 31.4429 85.4941L31.436 85.9111Z" fill="black"/>
<path d="M41.1567 87.4561C41.1567 87.2601 41.0542 87.1029 40.8491 86.9844C40.644 86.8659 40.2544 86.7428 39.6802 86.6152C39.106 86.4876 38.632 86.3213 38.2583 86.1162C37.8846 85.9066 37.5998 85.6536 37.4038 85.3574C37.2078 85.0612 37.1099 84.7217 37.1099 84.3389C37.1099 83.6598 37.3901 83.1016 37.9507 82.6641C38.5112 82.222 39.245 82.001 40.1519 82.001C41.1271 82.001 41.911 82.222 42.5034 82.6641C43.0959 83.1061 43.3921 83.6872 43.3921 84.4072H41.0815C41.0815 83.8148 40.7694 83.5186 40.145 83.5186C39.9035 83.5186 39.7007 83.5869 39.5366 83.7236C39.3726 83.8558 39.2905 84.0221 39.2905 84.2227C39.2905 84.4277 39.3908 84.5941 39.5913 84.7217C39.7918 84.8493 40.1108 84.9541 40.5483 85.0361C40.9904 85.1182 41.3778 85.2161 41.7104 85.3301C42.8224 85.7129 43.3784 86.3988 43.3784 87.3877C43.3784 88.0622 43.0776 88.6113 42.4761 89.0352C41.8791 89.459 41.1043 89.6709 40.1519 89.6709C39.5184 89.6709 38.9533 89.557 38.4565 89.3291C37.9598 89.1012 37.5724 88.7913 37.2944 88.3994C37.0164 88.0075 36.8774 87.5951 36.8774 87.1621H39.0308C39.0399 87.5039 39.1538 87.7546 39.3726 87.9141C39.5913 88.069 39.8716 88.1465 40.2134 88.1465C40.5278 88.1465 40.7625 88.0827 40.9175 87.9551C41.077 87.8275 41.1567 87.6611 41.1567 87.4561Z" fill="black"/>
<path d="M46.7144 82.9307C47.2065 82.3109 47.8354 82.001 48.6011 82.001C49.4168 82.001 50.0321 82.2425 50.4468 82.7256C50.8615 83.2087 51.0734 83.9219 51.0825 84.8652V89.5342H48.772V84.9199C48.772 84.528 48.6922 84.2409 48.5327 84.0586C48.3732 83.8717 48.1021 83.7783 47.7192 83.7783C47.2453 83.7783 46.9103 83.9287 46.7144 84.2295V89.5342H44.4106V79.0342H46.7144V82.9307Z" fill="black"/>
<path d="M52.0737 85.7676C52.0737 85.0293 52.2173 84.373 52.5044 83.7988C52.7915 83.2201 53.2039 82.7757 53.7417 82.4658C54.2795 82.1559 54.9106 82.001 55.6353 82.001C56.7427 82.001 57.6154 82.3451 58.2534 83.0332C58.8914 83.7168 59.2104 84.6488 59.2104 85.8291V85.9111C59.2104 87.0641 58.8892 87.9801 58.2466 88.6592C57.6086 89.3337 56.7427 89.6709 55.6489 89.6709C54.5962 89.6709 53.7508 89.3564 53.1128 88.7275C52.4748 88.0941 52.1307 87.2373 52.0806 86.1572L52.0737 85.7676ZM54.3774 85.9111C54.3774 86.5947 54.4845 87.096 54.6987 87.415C54.9129 87.734 55.2297 87.8936 55.6489 87.8936C56.4692 87.8936 56.8885 87.2624 56.9067 86V85.7676C56.9067 84.4414 56.4829 83.7783 55.6353 83.7783C54.8651 83.7783 54.4481 84.3503 54.3843 85.4941L54.3774 85.9111Z" fill="black"/>
<path d="M67.0923 85.8906C67.0923 87.0391 66.8325 87.9574 66.313 88.6455C65.798 89.3291 65.1007 89.6709 64.2212 89.6709C63.5422 89.6709 62.9839 89.4225 62.5464 88.9258V92.3779H60.2427V82.1377H62.396L62.4644 82.8213C62.9064 82.2744 63.4875 82.001 64.2075 82.001C65.119 82.001 65.8276 82.3382 66.3335 83.0127C66.8394 83.6826 67.0923 84.6055 67.0923 85.7812V85.8906ZM64.7886 85.7471C64.7886 84.4346 64.4058 83.7783 63.6401 83.7783C63.0933 83.7783 62.7287 83.9743 62.5464 84.3662V87.2783C62.7469 87.6885 63.116 87.8936 63.6538 87.8936C64.3875 87.8936 64.7658 87.2601 64.7886 85.9932V85.7471Z" fill="black"/>
</g>
<g id="icon">
<path id="Vector" d="M27.8321 23.2588C26.8454 22.8588 25.7788 22.6988 24.6854 22.7255C23.9921 22.7255 23.3788 22.7255 22.8721 22.7521C22.3388 22.7255 21.9654 22.7521 21.7788 22.7788V31.7388C22.1521 31.7655 22.4988 31.7921 22.8188 31.7921H24.2321C25.2721 31.7921 26.3121 31.6321 27.2988 31.3121C28.1521 31.0721 28.8988 30.5655 29.4854 29.8988C30.0454 29.2321 30.3121 28.3255 30.3121 27.1521C30.3388 26.3255 30.1254 25.4988 29.6988 24.7788C29.2454 24.0855 28.6054 23.5521 27.8321 23.2588ZM54.2321 1.60547H12.8988C6.6321 1.60547 1.56543 6.67214 1.56543 12.9388V52.6695C1.56543 58.9361 6.6321 64.0028 12.8988 64.0028H54.2321C60.4988 64.0028 65.5654 58.9361 65.5654 52.6695V12.9388C65.5654 6.67214 60.4988 1.60547 54.2321 1.60547ZM34.5228 32.6721C33.4588 34.1655 31.9654 35.2855 30.2321 35.9255C28.4188 36.5921 26.4188 36.8321 24.2321 36.8321C23.5921 36.8321 23.1654 36.8321 22.8988 36.8055C22.6321 36.7788 22.2588 36.7788 21.7521 36.7788V45.3361C21.7788 45.5228 21.6454 45.6855 21.4588 45.7121H16.2854C16.0721 45.7121 15.9654 45.6028 15.9654 45.3628V17.9255C15.9654 17.7388 16.0454 17.6321 16.2321 17.6321C16.6854 17.6321 17.1121 17.6321 17.7254 17.6055C18.3654 17.5788 19.0321 17.5788 19.7521 17.5521C20.4721 17.5255 21.2454 17.5255 22.0721 17.4988C22.8988 17.4721 23.6988 17.4721 24.4988 17.4721C26.6854 17.4721 28.4988 17.7388 29.9921 18.2988C31.3254 18.7521 32.5521 19.4988 33.5654 20.4855C34.4188 21.3388 35.0854 22.3788 35.5121 23.5255C35.9094 24.6455 36.1228 25.7921 36.1228 26.9921C36.1254 29.2855 35.5921 31.1788 34.5228 32.6721ZM53.4321 43.0455C52.6854 44.1121 51.6428 44.9361 50.4454 45.4215C49.1388 45.9788 47.5388 46.2695 45.6161 46.2695C44.3921 46.2695 43.1894 46.1655 41.9921 45.9255C41.0588 45.7628 40.1254 45.4721 39.2721 45.0721C39.0854 44.9681 38.9494 44.7815 38.9761 44.5681V39.9281C38.9761 39.8508 39.0054 39.7415 39.0854 39.6881C39.1628 39.6348 39.2454 39.6615 39.3254 39.7148C40.3654 40.3281 41.4588 40.7575 42.6321 41.0215C43.6428 41.2881 44.7094 41.4215 45.7788 41.4215C46.7921 41.4215 47.5121 41.2855 47.9921 41.0455C48.4188 40.8588 48.7121 40.4055 48.7121 39.9255C48.7121 39.5495 48.4988 39.2055 48.0721 38.8588C47.6454 38.5148 46.7681 38.1148 45.4614 37.6028C44.1014 37.1228 42.8508 36.4828 41.6748 35.6855C40.8481 35.0961 40.1574 34.3255 39.6454 33.4188C39.2214 32.5655 39.0081 31.6321 39.0348 30.6961C39.0348 29.5495 39.3548 28.4561 39.9441 27.4695C40.6108 26.4028 41.5948 25.5495 42.7414 25.0161C43.9921 24.3788 45.5654 24.0855 47.4588 24.0855C48.5521 24.0855 49.6721 24.1655 50.7654 24.3255C51.5654 24.4321 52.3388 24.6455 53.0588 24.9388C53.1628 24.9655 53.2721 25.0721 53.3254 25.1788C53.3521 25.2855 53.3788 25.3921 53.3788 25.4988V29.8455C53.3788 29.9521 53.3254 30.0588 53.2454 30.1121C53.0054 30.1655 52.8721 30.1655 52.7654 30.1121C51.9654 29.6855 51.1121 29.3921 50.2054 29.2055C49.2188 28.9921 48.2321 28.8588 47.2188 28.8588C46.6854 28.8321 46.1254 28.9121 45.6161 29.0455C45.2721 29.1255 44.9761 29.3121 44.7894 29.5788C44.6561 29.7921 44.5761 30.0588 44.5761 30.2988C44.5761 30.5388 44.6828 30.7788 44.8454 30.9921C45.0854 31.2855 45.4028 31.5255 45.7521 31.7121C46.3628 32.0321 47.0054 32.3255 47.6428 32.5921C49.0854 33.0721 50.4721 33.7388 51.7521 34.5388C52.6321 35.0961 53.3521 35.8455 53.8561 36.7521C54.2828 37.6001 54.4961 38.5388 54.4694 39.4961C54.4988 40.7521 54.1254 42.0028 53.4321 43.0455Z" fill="black"/>
</g>
</g>
</svg>
