<svg width="65" height="89" viewBox="0 0 65 89" fill="none" xmlns="http://www.w3.org/2000/svg">
<g id="php">
<g id="txt">
<path d="M21.478 85.1572V88.5342H19.0786V78.5811H23.0503C23.8114 78.5811 24.4836 78.7223 25.0669 79.0049C25.6548 79.2829 26.1082 79.6816 26.4272 80.2012C26.7508 80.7161 26.9126 81.3018 26.9126 81.958C26.9126 82.9287 26.564 83.7057 25.8667 84.2891C25.174 84.8678 24.2215 85.1572 23.0093 85.1572H21.478ZM21.478 83.3047H23.0503C23.5151 83.3047 23.8683 83.1885 24.1099 82.9561C24.356 82.7236 24.479 82.3955 24.479 81.9717C24.479 81.5068 24.3537 81.1354 24.103 80.8574C23.8524 80.5794 23.5106 80.4382 23.0776 80.4336H21.478V83.3047Z" fill="black"/>
<path d="M36.5171 88.5342H34.1313V84.3779H30.5972V88.5342H28.1978V78.5811H30.5972V82.5322H34.1313V78.5811H36.5171V88.5342Z" fill="black"/>
<path d="M40.4409 85.1572V88.5342H38.0415V78.5811H42.0132C42.7743 78.5811 43.4465 78.7223 44.0298 79.0049C44.6177 79.2829 45.0711 79.6816 45.3901 80.2012C45.7137 80.7161 45.8755 81.3018 45.8755 81.958C45.8755 82.9287 45.5269 83.7057 44.8296 84.2891C44.1369 84.8678 43.1844 85.1572 41.9722 85.1572H40.4409ZM40.4409 83.3047H42.0132C42.478 83.3047 42.8312 83.1885 43.0728 82.9561C43.3188 82.7236 43.4419 82.3955 43.4419 81.9717C43.4419 81.5068 43.3166 81.1354 43.0659 80.8574C42.8153 80.5794 42.4735 80.4382 42.0405 80.4336H40.4409V83.3047Z" fill="black"/>
</g>
<g id="icon">
<g id="Group 70">
<path id="Vector" d="M19.1704 28.1493H16.6531L15.2797 35.2106H17.5144C18.9971 35.2106 20.1011 34.9306 20.8264 34.3733C21.5517 33.8133 22.0397 32.8826 22.2931 31.576C22.5384 30.3226 22.4264 29.4373 21.9624 28.9226C21.4957 28.408 20.5677 28.1493 19.1704 28.1493ZM32.4771 16.0986C14.8051 16.0986 0.477051 23.6346 0.477051 32.9306C0.477051 42.2266 14.8051 49.7653 32.4771 49.7653C50.1491 49.7653 64.4771 42.2266 64.4771 32.9306C64.4771 23.6346 50.1491 16.0986 32.4771 16.0986ZM23.7837 35.968C23.0877 36.6346 22.2504 37.136 21.3384 37.4373C20.4424 37.7253 19.2984 37.8746 17.9117 37.8746H14.7624L13.8904 42.3573H10.2157L13.4957 25.488H20.5624C22.6877 25.488 24.2371 26.0453 25.2131 27.1626C26.1891 28.2773 26.4824 29.8346 26.0931 31.8346C25.9439 32.626 25.6694 33.3885 25.2797 34.0933C24.8984 34.7733 24.3997 35.4 23.7837 35.968ZM34.5144 37.8746L35.9624 30.4106C36.1304 29.5626 36.0664 28.9813 35.7811 28.6746C35.4957 28.3653 34.8851 28.2106 33.9491 28.2106H31.0371L29.1597 37.8773H25.5117L28.7917 21.0053H32.437L31.5651 25.4906H34.8131C36.8584 25.4906 38.2664 25.848 39.0424 26.56C39.8184 27.272 40.0504 28.4266 39.7437 30.024L38.2184 37.8746H34.5144ZM54.7731 31.8346C54.6264 32.6267 54.3517 33.3896 53.9597 34.0933C53.5784 34.7733 53.0797 35.4 52.4637 35.968C51.7673 36.6326 50.9322 37.1344 50.0184 37.4373C49.1224 37.7253 47.9784 37.8746 46.5891 37.8746H43.4424L42.5704 42.36H38.8957L42.1757 25.4906H49.2397C51.3651 25.4906 52.9144 26.048 53.8904 27.1653C54.8664 28.2773 55.1624 29.8346 54.7731 31.8346ZM47.8531 28.1493H45.3384L43.9624 35.2106H46.1971C47.6824 35.2106 48.7864 34.9306 49.509 34.3733C50.2344 33.8133 50.7224 32.8826 50.9784 31.576C51.2237 30.3226 51.1091 29.4373 50.6451 28.9226C50.1811 28.408 49.2477 28.1493 47.8531 28.1493Z" fill="black"/>
</g>
</g>
</g>
</svg>
