<svg width="71" height="93" viewBox="0 0 71 93" fill="none" xmlns="http://www.w3.org/2000/svg">
<g id="springboot">
<g id="txt">
<path d="M6.41699 86.8887C6.41699 86.5378 6.29167 86.2643 6.04102 86.0684C5.79492 85.8724 5.3597 85.6696 4.73535 85.46C4.111 85.2503 3.60059 85.0475 3.2041 84.8516C1.91439 84.2181 1.26953 83.3477 1.26953 82.2402C1.26953 81.6888 1.42904 81.2035 1.74805 80.7842C2.07161 80.3604 2.52734 80.0322 3.11523 79.7998C3.70312 79.5628 4.36393 79.4443 5.09766 79.4443C5.81315 79.4443 6.45345 79.5719 7.01855 79.8271C7.58822 80.0824 8.03027 80.4469 8.34473 80.9209C8.65918 81.3903 8.81641 81.9281 8.81641 82.5342H6.42383C6.42383 82.1286 6.2985 81.8141 6.04785 81.5908C5.80176 81.3675 5.4668 81.2559 5.04297 81.2559C4.61458 81.2559 4.27507 81.3516 4.02441 81.543C3.77832 81.7298 3.65527 81.9691 3.65527 82.2607C3.65527 82.516 3.79199 82.7484 4.06543 82.958C4.33887 83.1631 4.81966 83.3773 5.50781 83.6006C6.19596 83.8193 6.76107 84.0563 7.20312 84.3115C8.27865 84.9313 8.81641 85.7858 8.81641 86.875C8.81641 87.7454 8.48828 88.429 7.83203 88.9258C7.17578 89.4225 6.27572 89.6709 5.13184 89.6709C4.3252 89.6709 3.59375 89.5273 2.9375 89.2402C2.28581 88.9486 1.79362 88.5521 1.46094 88.0508C1.13281 87.5449 0.96875 86.9639 0.96875 86.3076H3.375C3.375 86.8408 3.51172 87.235 3.78516 87.4902C4.06315 87.7409 4.51204 87.8662 5.13184 87.8662C5.52832 87.8662 5.84049 87.7819 6.06836 87.6133C6.30078 87.4401 6.41699 87.1986 6.41699 86.8887Z" fill="black"/>
<path d="M16.8076 85.8906C16.8076 87.0391 16.5479 87.9574 16.0283 88.6455C15.5133 89.3291 14.8161 89.6709 13.9365 89.6709C13.2575 89.6709 12.6992 89.4225 12.2617 88.9258V92.3779H9.95801V82.1377H12.1113L12.1797 82.8213C12.6217 82.2744 13.2028 82.001 13.9229 82.001C14.8343 82.001 15.543 82.3382 16.0488 83.0127C16.5547 83.6826 16.8076 84.6055 16.8076 85.7812V85.8906ZM14.5039 85.7471C14.5039 84.4346 14.1211 83.7783 13.3555 83.7783C12.8086 83.7783 12.444 83.9743 12.2617 84.3662V87.2783C12.4622 87.6885 12.8314 87.8936 13.3691 87.8936C14.1029 87.8936 14.4811 87.2601 14.5039 85.9932V85.7471Z" fill="black"/>
<path d="M22.3037 84.2227L21.5449 84.168C20.8203 84.168 20.3555 84.3958 20.1504 84.8516V89.5342H17.8467V82.1377H20.0068L20.082 83.0879C20.4694 82.3633 21.0094 82.001 21.7021 82.001C21.9482 82.001 22.1624 82.0283 22.3447 82.083L22.3037 84.2227Z" fill="black"/>
<path d="M25.5645 89.5342H23.2539V82.1377H25.5645V89.5342ZM23.1172 80.2305C23.1172 79.9023 23.2357 79.6335 23.4727 79.4238C23.7096 79.2142 24.0173 79.1094 24.3955 79.1094C24.7738 79.1094 25.0814 79.2142 25.3184 79.4238C25.5553 79.6335 25.6738 79.9023 25.6738 80.2305C25.6738 80.5586 25.5553 80.8275 25.3184 81.0371C25.0814 81.2467 24.7738 81.3516 24.3955 81.3516C24.0173 81.3516 23.7096 81.2467 23.4727 81.0371C23.2357 80.8275 23.1172 80.5586 23.1172 80.2305Z" fill="black"/>
<path d="M29.1055 82.1377L29.1807 83.0059C29.6911 82.3359 30.3952 82.001 31.293 82.001C32.0632 82.001 32.6374 82.2311 33.0156 82.6914C33.3984 83.1517 33.5967 83.8444 33.6104 84.7695V89.5342H31.2998V84.8652C31.2998 84.4915 31.2246 84.2181 31.0742 84.0449C30.9238 83.8672 30.6504 83.7783 30.2539 83.7783C29.8027 83.7783 29.4678 83.9561 29.249 84.3115V89.5342H26.9453V82.1377H29.1055Z" fill="black"/>
<path d="M34.6221 85.7812C34.6221 85.0339 34.7451 84.373 34.9912 83.7988C35.2373 83.2246 35.5905 82.7826 36.0508 82.4727C36.5111 82.1582 37.0466 82.001 37.6572 82.001C38.4274 82.001 39.029 82.2607 39.4619 82.7803L39.5439 82.1377H41.6357V89.2539C41.6357 89.9056 41.4831 90.4707 41.1777 90.9492C40.877 91.4323 40.4395 91.8014 39.8652 92.0566C39.291 92.3164 38.6257 92.4463 37.8691 92.4463C37.3268 92.4463 36.8005 92.3438 36.29 92.1387C35.7842 91.9336 35.3968 91.667 35.1279 91.3389L36.0918 89.9854C36.5202 90.4912 37.0853 90.7441 37.7871 90.7441C38.8079 90.7441 39.3184 90.2201 39.3184 89.1719V88.9395C38.8763 89.4271 38.318 89.6709 37.6436 89.6709C36.7412 89.6709 36.012 89.3268 35.4561 88.6387C34.9001 87.946 34.6221 87.0208 34.6221 85.8633V85.7812ZM36.9326 85.9248C36.9326 86.5309 37.0466 87.0117 37.2744 87.3672C37.5023 87.7181 37.8213 87.8936 38.2314 87.8936C38.7282 87.8936 39.0905 87.7272 39.3184 87.3945V84.2842C39.0951 83.9469 38.7373 83.7783 38.2451 83.7783C37.835 83.7783 37.5137 83.9629 37.2812 84.332C37.0488 84.6966 36.9326 85.2275 36.9326 85.9248Z" fill="black"/>
<path d="M49.8115 85.8975C49.8115 87.1097 49.5609 88.0417 49.0596 88.6934C48.5583 89.3451 47.8519 89.6709 46.9404 89.6709C46.1885 89.6709 45.5824 89.3724 45.1221 88.7754L45.0264 89.5342H42.9619V79.0342H45.2656V82.7324C45.694 82.2448 46.2477 82.001 46.9268 82.001C47.8473 82.001 48.5583 82.3314 49.0596 82.9922C49.5609 83.653 49.8115 84.5827 49.8115 85.7812V85.8975ZM47.501 85.7539C47.501 85.043 47.4053 84.5371 47.2139 84.2363C47.027 83.931 46.7376 83.7783 46.3457 83.7783C45.8262 83.7783 45.4661 83.9766 45.2656 84.373V87.3125C45.4616 87.7044 45.8262 87.9004 46.3594 87.9004C46.9017 87.9004 47.2458 87.6361 47.3916 87.1074C47.4645 86.8477 47.501 86.3965 47.501 85.7539Z" fill="black"/>
<path d="M50.543 85.7676C50.543 85.0293 50.6865 84.373 50.9736 83.7988C51.2607 83.2201 51.6732 82.7757 52.2109 82.4658C52.7487 82.1559 53.3799 82.001 54.1045 82.001C55.2119 82.001 56.0846 82.3451 56.7227 83.0332C57.3607 83.7168 57.6797 84.6488 57.6797 85.8291V85.9111C57.6797 87.0641 57.3584 87.9801 56.7158 88.6592C56.0778 89.3337 55.2119 89.6709 54.1182 89.6709C53.0654 89.6709 52.2201 89.3564 51.582 88.7275C50.944 88.0941 50.5999 87.2373 50.5498 86.1572L50.543 85.7676ZM52.8467 85.9111C52.8467 86.5947 52.9538 87.096 53.168 87.415C53.3822 87.734 53.6989 87.8936 54.1182 87.8936C54.9385 87.8936 55.3577 87.2624 55.376 86V85.7676C55.376 84.4414 54.9521 83.7783 54.1045 83.7783C53.3343 83.7783 52.9173 84.3503 52.8535 85.4941L52.8467 85.9111Z" fill="black"/>
<path d="M58.4043 85.7676C58.4043 85.0293 58.5479 84.373 58.835 83.7988C59.1221 83.2201 59.5345 82.7757 60.0723 82.4658C60.61 82.1559 61.2412 82.001 61.9658 82.001C63.0732 82.001 63.946 82.3451 64.584 83.0332C65.222 83.7168 65.541 84.6488 65.541 85.8291V85.9111C65.541 87.0641 65.2197 87.9801 64.5771 88.6592C63.9391 89.3337 63.0732 89.6709 61.9795 89.6709C60.9268 89.6709 60.0814 89.3564 59.4434 88.7275C58.8053 88.0941 58.4613 87.2373 58.4111 86.1572L58.4043 85.7676ZM60.708 85.9111C60.708 86.5947 60.8151 87.096 61.0293 87.415C61.2435 87.734 61.5602 87.8936 61.9795 87.8936C62.7998 87.8936 63.2191 87.2624 63.2373 86V85.7676C63.2373 84.4414 62.8135 83.7783 61.9658 83.7783C61.1956 83.7783 60.7786 84.3503 60.7148 85.4941L60.708 85.9111Z" fill="black"/>
<path d="M69.2393 80.2988V82.1377H70.4561V83.7373H69.2393V87.1211C69.2393 87.3991 69.2894 87.5928 69.3896 87.7021C69.4899 87.8115 69.6881 87.8662 69.9844 87.8662C70.2122 87.8662 70.4036 87.8525 70.5586 87.8252V89.4727C70.1439 89.6048 69.7109 89.6709 69.2598 89.6709C68.4668 89.6709 67.8812 89.484 67.5029 89.1104C67.1247 88.7367 66.9355 88.1693 66.9355 87.4082V83.7373H65.9922V82.1377H66.9355V80.2988H69.2393Z" fill="black"/>
</g>
<g id="icon">
<path id="Vector" d="M66.9453 29.1366L54.332 7.31155C53.2403 5.41662 50.5544 3.86035 48.3581 3.86035H23.1573C20.9733 3.86035 18.2752 5.41662 17.1835 7.31155L4.58267 29.1366C3.49067 31.0315 3.49067 34.1313 4.58267 36.0265L17.1832 57.8638C18.2749 59.759 20.9608 61.3153 23.1571 61.3153H48.3704C50.5544 61.3153 53.2397 59.759 54.3443 57.8641L66.9448 36.0268C68.0368 34.1316 68.0368 31.0315 66.9448 29.1366H66.9453ZM33.0341 15.9337C33.0341 14.503 34.2013 13.3358 35.632 13.3358C37.0627 13.3358 38.2299 14.503 38.2299 15.9337V31.4582C38.2299 32.8891 37.0627 34.0561 35.632 34.0561C34.2013 34.0561 33.0341 32.8891 33.0341 31.4582V15.9337ZM35.632 49.0787C25.9181 49.0787 18.0115 41.1721 18.0115 31.4582C18.024 25.8859 20.6595 20.6526 25.1275 17.3142C25.3711 17.1322 25.6483 17.0001 25.9431 16.9255C26.238 16.851 26.5446 16.8354 26.8455 16.8797C27.1464 16.924 27.4355 17.0273 27.6963 17.1837C27.9572 17.3401 28.1845 17.5465 28.3653 17.791C28.5474 18.0347 28.6795 18.3119 28.7541 18.6067C28.8287 18.9016 28.8443 19.2083 28.8 19.5092C28.7557 19.8101 28.6524 20.0993 28.4959 20.3601C28.3395 20.621 28.1331 20.8483 27.8885 21.0292C22.128 25.3086 20.9232 33.4537 25.2027 39.2142C29.4824 44.975 37.6275 46.1796 43.388 41.9001C46.6888 39.4529 48.6341 35.5747 48.6341 31.4582C48.6287 29.4214 48.1469 27.4141 47.2273 25.5968C46.3077 23.7794 44.9757 22.2023 43.3379 20.9916C42.3085 20.2385 42.0952 18.7825 42.8483 17.7534C43.6013 16.7241 45.0571 16.5108 46.0864 17.2641C50.5917 20.5897 53.24 25.8609 53.2525 31.4582C53.2525 41.1846 45.3459 49.0787 35.632 49.0787Z" fill="black"/>
</g>
</g>
</svg>
