<svg width="76" height="91" viewBox="0 0 76 91" fill="none" xmlns="http://www.w3.org/2000/svg">
<g id="sqlize">
<g id="txt">
<path d="M6.00684 86.0947C6.00684 85.7438 5.88151 85.4704 5.63086 85.2744C5.38477 85.0785 4.94954 84.8757 4.3252 84.666C3.70085 84.4564 3.19043 84.2536 2.79395 84.0576C1.50423 83.4242 0.859375 82.5537 0.859375 81.4463C0.859375 80.8949 1.01888 80.4095 1.33789 79.9902C1.66146 79.5664 2.11719 79.2383 2.70508 79.0059C3.29297 78.7689 3.95378 78.6504 4.6875 78.6504C5.40299 78.6504 6.04329 78.778 6.6084 79.0332C7.17806 79.2884 7.62012 79.653 7.93457 80.127C8.24902 80.5964 8.40625 81.1341 8.40625 81.7402H6.01367C6.01367 81.3346 5.88835 81.0202 5.6377 80.7969C5.3916 80.5736 5.05664 80.4619 4.63281 80.4619C4.20443 80.4619 3.86491 80.5576 3.61426 80.749C3.36816 80.9359 3.24512 81.1751 3.24512 81.4668C3.24512 81.722 3.38184 81.9544 3.65527 82.1641C3.92871 82.3691 4.40951 82.5833 5.09766 82.8066C5.78581 83.0254 6.35091 83.2624 6.79297 83.5176C7.86849 84.1374 8.40625 84.9919 8.40625 86.0811C8.40625 86.9515 8.07812 87.6351 7.42188 88.1318C6.76562 88.6286 5.86556 88.877 4.72168 88.877C3.91504 88.877 3.18359 88.7334 2.52734 88.4463C1.87565 88.1546 1.38346 87.7581 1.05078 87.2568C0.722656 86.751 0.558594 86.1699 0.558594 85.5137H2.96484C2.96484 86.0469 3.10156 86.4411 3.375 86.6963C3.65299 86.9469 4.10189 87.0723 4.72168 87.0723C5.11816 87.0723 5.43034 86.988 5.6582 86.8193C5.89062 86.6462 6.00684 86.4046 6.00684 86.0947Z" fill="black"/>
<path d="M18.0791 83.9688C18.0791 84.8893 17.9264 85.6937 17.6211 86.3818C17.3158 87.0654 16.8942 87.6146 16.3564 88.0293L17.9629 89.3008L16.4795 90.5586L14.3398 88.8359C14.1393 88.8633 13.9388 88.877 13.7383 88.877C12.8906 88.877 12.1387 88.681 11.4824 88.2891C10.8262 87.8971 10.3135 87.3366 9.94434 86.6074C9.57975 85.8783 9.39062 85.0397 9.37695 84.0918V83.5654C9.37695 82.5856 9.55469 81.7243 9.91016 80.9814C10.2702 80.2386 10.7806 79.6644 11.4414 79.2588C12.1068 78.8532 12.8678 78.6504 13.7246 78.6504C14.5677 78.6504 15.3197 78.8509 15.9805 79.252C16.6413 79.653 17.154 80.2249 17.5186 80.9678C17.8877 81.7061 18.0745 82.5537 18.0791 83.5107V83.9688ZM15.6387 83.5518C15.6387 82.5628 15.4723 81.8132 15.1396 81.3027C14.8115 80.7878 14.3398 80.5303 13.7246 80.5303C13.0911 80.5303 12.6149 80.7832 12.2959 81.2891C11.9769 81.7949 11.8151 82.5355 11.8105 83.5107V83.9688C11.8105 84.9486 11.9723 85.7005 12.2959 86.2246C12.6195 86.7441 13.1003 87.0039 13.7383 87.0039C14.349 87.0039 14.8161 86.7464 15.1396 86.2314C15.4678 85.7165 15.6341 84.9759 15.6387 84.0098V83.5518Z" fill="black"/>
<path d="M21.7021 86.8945H25.8789V88.7402H19.3027V78.7871H21.7021V86.8945Z" fill="black"/>
<path d="M29.2148 88.7402H26.9043V81.3438H29.2148V88.7402ZM26.7676 79.4365C26.7676 79.1084 26.8861 78.8395 27.123 78.6299C27.36 78.4202 27.6676 78.3154 28.0459 78.3154C28.4242 78.3154 28.7318 78.4202 28.9688 78.6299C29.2057 78.8395 29.3242 79.1084 29.3242 79.4365C29.3242 79.7646 29.2057 80.0335 28.9688 80.2432C28.7318 80.4528 28.4242 80.5576 28.0459 80.5576C27.6676 80.5576 27.36 80.4528 27.123 80.2432C26.8861 80.0335 26.7676 79.7646 26.7676 79.4365Z" fill="black"/>
<path d="M33.3574 86.9629H36.7275V88.7402H30.4453V87.4551L33.7266 83.1211H30.5889V81.3438H36.6523V82.5879L33.3574 86.9629Z" fill="black"/>
<path d="M41.3145 88.877C40.1797 88.877 39.2614 88.5397 38.5596 87.8652C37.8577 87.1862 37.5068 86.3044 37.5068 85.2197V85.0283C37.5068 84.2718 37.6458 83.6042 37.9238 83.0254C38.2064 82.4466 38.6165 82 39.1543 81.6855C39.6921 81.3665 40.3301 81.207 41.0684 81.207C42.1074 81.207 42.9277 81.5306 43.5293 82.1777C44.1309 82.8203 44.4316 83.7181 44.4316 84.8711V85.7666H39.8516C39.9336 86.1813 40.1136 86.5072 40.3916 86.7441C40.6696 86.9811 41.0296 87.0996 41.4717 87.0996C42.2008 87.0996 42.7705 86.8444 43.1807 86.334L44.2334 87.5781C43.9463 87.9746 43.5384 88.2913 43.0098 88.5283C42.4857 88.7607 41.9206 88.877 41.3145 88.877ZM41.0547 82.9844C40.3802 82.9844 39.9792 83.431 39.8516 84.3242H42.1758V84.1465C42.1849 83.7773 42.0915 83.4925 41.8955 83.292C41.6995 83.0869 41.4193 82.9844 41.0547 82.9844Z" fill="black"/>
<path d="M53.8994 83.9688C53.8994 84.9395 53.7194 85.7985 53.3594 86.5459C52.9993 87.2933 52.4867 87.8698 51.8213 88.2754C51.1605 88.6764 50.4062 88.877 49.5586 88.877C48.7109 88.877 47.959 88.6833 47.3027 88.2959C46.6465 87.904 46.1338 87.3457 45.7646 86.6211C45.4001 85.8965 45.2087 85.0648 45.1904 84.126V83.5654C45.1904 82.5902 45.3682 81.7311 45.7236 80.9883C46.0837 80.2409 46.5964 79.6644 47.2617 79.2588C47.9316 78.8532 48.6927 78.6504 49.5449 78.6504C50.388 78.6504 51.14 78.8509 51.8008 79.252C52.4616 79.653 52.9743 80.2249 53.3389 80.9678C53.708 81.7061 53.8949 82.5537 53.8994 83.5107V83.9688ZM51.459 83.5518C51.459 82.5628 51.2926 81.8132 50.96 81.3027C50.6318 80.7878 50.1602 80.5303 49.5449 80.5303C48.3418 80.5303 47.7061 81.4326 47.6377 83.2373L47.6309 83.9688C47.6309 84.944 47.7926 85.6937 48.1162 86.2178C48.4398 86.7419 48.9206 87.0039 49.5586 87.0039C50.1647 87.0039 50.6318 86.7464 50.96 86.2314C51.2881 85.7165 51.4544 84.9759 51.459 84.0098V83.5518Z" fill="black"/>
<path d="M58.835 85.2266H57.5361V88.7402H55.1367V78.7871H59.0537C60.2341 78.7871 61.1569 79.0492 61.8223 79.5732C62.4876 80.0973 62.8203 80.8379 62.8203 81.7949C62.8203 82.4876 62.679 83.0618 62.3965 83.5176C62.1185 83.9733 61.681 84.3424 61.084 84.625L63.1621 88.6377V88.7402H60.5918L58.835 85.2266ZM57.5361 83.374H59.0537C59.5094 83.374 59.8512 83.2555 60.0791 83.0186C60.3115 82.777 60.4277 82.4421 60.4277 82.0137C60.4277 81.5853 60.3115 81.2503 60.0791 81.0088C59.8467 80.7627 59.5049 80.6396 59.0537 80.6396H57.5361V83.374Z" fill="black"/>
<path d="M67.4209 78.7871L69.6426 85.7119L71.8574 78.7871H75.0156V88.7402H72.6094V86.416L72.8418 81.6582L70.4355 88.7402H68.8496L66.4365 81.6514L66.6689 86.416V88.7402H64.2695V78.7871H67.4209Z" fill="black"/>
</g>
<g id="icon">
<path id="Vector" d="M37.8177 0.205078L10.4111 16.2051V48.2051L37.8799 64.2051L65.1618 48.268V16.1421L37.8177 0.205078ZM16.4772 45.014V19.7838L37.8069 7.09097L59.2204 19.446V44.811L37.8872 57.5753L16.4772 45.014ZM27.4173 38.7544V47.7387L19.6759 43.4605V34.1981L27.4173 38.7544ZM28.8158 24.8904L35.65 20.8587L27.9086 16.2384L21.027 20.3561L28.8158 24.8904ZM38.0614 22.0994L31.1378 26.2422L38.1847 30.3446L45.0509 26.2711L38.0614 22.0994ZM36.7651 32.7339L29.8287 28.6958V37.0432L36.7651 40.8765V32.7339ZM46.9501 25.1444L54.5483 20.6366L47.5373 16.4523L39.9227 21.0086L46.9501 25.1444ZM45.1262 15.2116L37.3845 10.591L29.7699 15.1474L37.5115 19.7037L45.1262 15.2116ZM19.6759 22.7852V31.1819L27.4173 35.4601V27.2919L19.6759 22.7852ZM48.072 39.078V48.0897L55.897 43.3962V34.2262L48.072 39.078ZM48.072 27.7096V35.7997L55.897 31.1179V23.0673L48.072 27.7096ZM39.4845 32.8043V40.9155L46.4209 36.765V28.6891L39.4845 32.8043ZM39.4845 44.0322V53.1941L46.4209 49.0435V40.1235L39.4845 44.0322ZM36.7651 44.0059L29.8287 40.0593V49.3217L36.7651 53.155V44.0059Z" fill="black"/>
</g>
</g>
</svg>
