<svg width="65" height="90" viewBox="0 0 65 90" fill="none" xmlns="http://www.w3.org/2000/svg">
<g id="staruml">
<g id="txt">
<path d="M10.1362 86.8887C10.1362 86.5378 10.0109 86.2643 9.76025 86.0684C9.51416 85.8724 9.07894 85.6696 8.45459 85.46C7.83024 85.2503 7.31982 85.0475 6.92334 84.8516C5.63363 84.2181 4.98877 83.3477 4.98877 82.2402C4.98877 81.6888 5.14827 81.2035 5.46729 80.7842C5.79085 80.3604 6.24658 80.0322 6.83447 79.7998C7.42236 79.5628 8.08317 79.4443 8.81689 79.4443C9.53239 79.4443 10.1727 79.5719 10.7378 79.8271C11.3075 80.0824 11.7495 80.4469 12.064 80.9209C12.3784 81.3903 12.5356 81.9281 12.5356 82.5342H10.1431C10.1431 82.1286 10.0177 81.8141 9.76709 81.5908C9.521 81.3675 9.18604 81.2559 8.76221 81.2559C8.33382 81.2559 7.9943 81.3516 7.74365 81.543C7.49756 81.7298 7.37451 81.9691 7.37451 82.2607C7.37451 82.516 7.51123 82.7484 7.78467 82.958C8.05811 83.1631 8.5389 83.3773 9.22705 83.6006C9.9152 83.8193 10.4803 84.0563 10.9224 84.3115C11.9979 84.9313 12.5356 85.7858 12.5356 86.875C12.5356 87.7454 12.2075 88.429 11.5513 88.9258C10.895 89.4225 9.99495 89.6709 8.85107 89.6709C8.04443 89.6709 7.31299 89.5273 6.65674 89.2402C6.00505 88.9486 5.51286 88.5521 5.18018 88.0508C4.85205 87.5449 4.68799 86.9639 4.68799 86.3076H7.09424C7.09424 86.8408 7.23096 87.235 7.50439 87.4902C7.78239 87.7409 8.23128 87.8662 8.85107 87.8662C9.24756 87.8662 9.55973 87.7819 9.7876 87.6133C10.02 87.4401 10.1362 87.1986 10.1362 86.8887Z" fill="black"/>
<path d="M16.3433 80.2988V82.1377H17.5601V83.7373H16.3433V87.1211C16.3433 87.3991 16.3934 87.5928 16.4937 87.7021C16.5939 87.8115 16.7922 87.8662 17.0884 87.8662C17.3162 87.8662 17.5076 87.8525 17.6626 87.8252V89.4727C17.2479 89.6048 16.8149 89.6709 16.3638 89.6709C15.5708 89.6709 14.9852 89.484 14.6069 89.1104C14.2287 88.7367 14.0396 88.1693 14.0396 87.4082V83.7373H13.0962V82.1377H14.0396V80.2988H16.3433Z" fill="black"/>
<path d="M22.6392 89.5342C22.5571 89.3838 22.4842 89.1628 22.4204 88.8711C21.9966 89.4043 21.4041 89.6709 20.6431 89.6709C19.9458 89.6709 19.3534 89.4613 18.8657 89.042C18.3781 88.6182 18.1343 88.0872 18.1343 87.4492C18.1343 86.6471 18.4305 86.041 19.0229 85.6309C19.6154 85.2207 20.4767 85.0156 21.6069 85.0156H22.3179V84.626C22.3179 83.9469 22.0239 83.6074 21.436 83.6074C20.8892 83.6074 20.6157 83.8763 20.6157 84.4141H18.312C18.312 83.6986 18.6151 83.1175 19.2212 82.6709C19.8319 82.2243 20.6089 82.001 21.5522 82.001C22.4956 82.001 23.2407 82.2311 23.7876 82.6914C24.3345 83.1517 24.6147 83.7829 24.6284 84.585V87.8594C24.6375 88.5384 24.7423 89.0579 24.9429 89.418V89.5342H22.6392ZM21.1968 88.0303C21.4839 88.0303 21.7209 87.9688 21.9077 87.8457C22.0991 87.7227 22.2358 87.5837 22.3179 87.4287V86.2461H21.6479C20.8459 86.2461 20.4448 86.6061 20.4448 87.3262C20.4448 87.5358 20.5155 87.7067 20.6567 87.8389C20.798 87.9665 20.978 88.0303 21.1968 88.0303Z" fill="black"/>
<path d="M30.3843 84.2227L29.6255 84.168C28.9009 84.168 28.436 84.3958 28.231 84.8516V89.5342H25.9272V82.1377H28.0874L28.1626 83.0879C28.55 82.3633 29.09 82.001 29.7827 82.001C30.0288 82.001 30.243 82.0283 30.4253 82.083L30.3843 84.2227Z" fill="black"/>
<path d="M39.1274 79.5811V86.0957C39.1274 86.834 38.9702 87.4743 38.6558 88.0166C38.3413 88.5544 37.8901 88.9645 37.3022 89.2471C36.7144 89.5296 36.0194 89.6709 35.2173 89.6709C34.005 89.6709 33.0503 89.3564 32.353 88.7275C31.6558 88.0986 31.3003 87.2373 31.2866 86.1436V79.5811H33.6997V86.1914C33.7271 87.2806 34.2329 87.8252 35.2173 87.8252C35.714 87.8252 36.09 87.6885 36.3452 87.415C36.6004 87.1416 36.728 86.6973 36.728 86.082V79.5811H39.1274Z" fill="black"/>
<path d="M43.7827 79.5811L46.0044 86.5059L48.2192 79.5811H51.3774V89.5342H48.9712V87.21L49.2036 82.4521L46.7974 89.5342H45.2114L42.7983 82.4453L43.0308 87.21V89.5342H40.6313V79.5811H43.7827Z" fill="black"/>
<path d="M55.3081 87.6885H59.4849V89.5342H52.9087V79.5811H55.3081V87.6885Z" fill="black"/>
</g>
<g id="icon">
<g id="Group 69">
<g id="Group 44">
<g id="Vector 129">
<path d="M31.9266 21.0614V3.1709L42.959 20.6572L31.9266 34.432V21.0614Z" fill="black"/>
<path d="M31.9266 21.0614V3.1709L42.959 20.6572L31.9266 34.432V21.0614Z" fill="black"/>
</g>
<path id="Vector 130" d="M31.9275 21.0448V3.1543L21.2871 20.6567L31.9275 34.4154V21.0448Z" fill="#191919"/>
</g>
<path id="Vector 134" d="M64.0864 24.2686L31.5806 34.8831L48.9944 40.4805L64.0864 24.2686Z" fill="black"/>
<path id="Vector 136" d="M0.0864258 24.2683L21.3146 20.3711L32.5923 34.8829L15.1784 40.4802L0.0864258 24.2683Z" fill="black"/>
<path id="Vector 135" d="M42.8583 20.3711L64.0864 24.2683L31.5806 34.8829L42.8583 20.3711Z" fill="#262626"/>
<path id="Vector 137" d="M21.3146 20.3711L0.0864258 24.2683L32.5923 34.8829L21.3146 20.3711Z" fill="#262626"/>
<path id="Vector 138" d="M12.0342 62.0215L14.74 40.1516L32.0157 34.167L32.2089 52.6464L12.0342 62.0215Z" fill="#1A1A1A"/>
<path id="Vector 140" d="M31.6461 52.6464L31.8393 34.167L51.8208 62.0215L31.6461 52.6464Z" fill="black"/>
<path id="Vector 139" d="M14.74 40.1516L12.0342 62.0215L32.0157 34.167L14.74 40.1516Z" fill="#262626"/>
<path id="Vector 141" d="M49.115 40.1516L51.8208 62.0215L31.8393 34.167L49.115 40.1516Z" fill="#262626"/>
</g>
</g>
</g>
</svg>
