<svg width="68" height="92" viewBox="0 0 68 92" fill="none" xmlns="http://www.w3.org/2000/svg">
<g id="typescript">
<g id="txt">
<path d="M8.40576 80.4336H5.41846V88.5342H3.01904V80.4336H0.0864258V78.5811H8.40576V80.4336Z" fill="black"/>
<path d="M11.7144 85.3076L12.9448 81.1377H15.4126L12.3979 89.7715L12.2681 90.0859C11.8397 91.043 11.0832 91.5215 9.99854 91.5215C9.69775 91.5215 9.38102 91.4759 9.04834 91.3848V89.7373H9.34912C9.67269 89.7373 9.91878 89.6895 10.0874 89.5938C10.2606 89.5026 10.3882 89.3363 10.4702 89.0947L10.6548 88.6025L8.08447 81.1377H10.5454L11.7144 85.3076Z" fill="black"/>
<path d="M22.8843 84.8906C22.8843 86.0391 22.6245 86.9574 22.105 87.6455C21.59 88.3291 20.8927 88.6709 20.0132 88.6709C19.3341 88.6709 18.7759 88.4225 18.3384 87.9258V91.3779H16.0347V81.1377H18.188L18.2563 81.8213C18.6984 81.2744 19.2795 81.001 19.9995 81.001C20.911 81.001 21.6196 81.3382 22.1255 82.0127C22.6313 82.6826 22.8843 83.6055 22.8843 84.7812V84.8906ZM20.5806 84.7471C20.5806 83.4346 20.1978 82.7783 19.4321 82.7783C18.8853 82.7783 18.5207 82.9743 18.3384 83.3662V86.2783C18.5389 86.6885 18.908 86.8936 19.4458 86.8936C20.1795 86.8936 20.5578 86.2601 20.5806 84.9932V84.7471Z" fill="black"/>
<path d="M27.4849 88.6709C26.3501 88.6709 25.4318 88.3337 24.73 87.6592C24.0282 86.9801 23.6772 86.0983 23.6772 85.0137V84.8223C23.6772 84.0658 23.8162 83.3981 24.0942 82.8193C24.3768 82.2406 24.7869 81.7939 25.3247 81.4795C25.8625 81.1605 26.5005 81.001 27.2388 81.001C28.2778 81.001 29.0981 81.3245 29.6997 81.9717C30.3013 82.6143 30.6021 83.512 30.6021 84.665V85.5605H26.022C26.104 85.9753 26.284 86.3011 26.562 86.5381C26.84 86.7751 27.2 86.8936 27.6421 86.8936C28.3713 86.8936 28.9409 86.6383 29.3511 86.1279L30.4038 87.3721C30.1167 87.7686 29.7088 88.0853 29.1802 88.3223C28.6561 88.5547 28.091 88.6709 27.4849 88.6709ZM27.2251 82.7783C26.5506 82.7783 26.1496 83.2249 26.022 84.1182H28.3462V83.9404C28.3553 83.5713 28.2619 83.2865 28.0659 83.0859C27.87 82.8809 27.5897 82.7783 27.2251 82.7783Z" fill="black"/>
<path d="M35.4077 86.4561C35.4077 86.2601 35.3052 86.1029 35.1001 85.9844C34.895 85.8659 34.5054 85.7428 33.9312 85.6152C33.3569 85.4876 32.883 85.3213 32.5093 85.1162C32.1356 84.9066 31.8507 84.6536 31.6548 84.3574C31.4588 84.0612 31.3608 83.7217 31.3608 83.3389C31.3608 82.6598 31.6411 82.1016 32.2017 81.6641C32.7622 81.222 33.4959 81.001 34.4028 81.001C35.3781 81.001 36.1619 81.222 36.7544 81.6641C37.3468 82.1061 37.6431 82.6872 37.6431 83.4072H35.3325C35.3325 82.8148 35.0203 82.5186 34.396 82.5186C34.1545 82.5186 33.9517 82.5869 33.7876 82.7236C33.6235 82.8558 33.5415 83.0221 33.5415 83.2227C33.5415 83.4277 33.6418 83.5941 33.8423 83.7217C34.0428 83.8493 34.3618 83.9541 34.7993 84.0361C35.2414 84.1182 35.6287 84.2161 35.9614 84.3301C37.0734 84.7129 37.6294 85.3988 37.6294 86.3877C37.6294 87.0622 37.3286 87.6113 36.7271 88.0352C36.13 88.459 35.3553 88.6709 34.4028 88.6709C33.7694 88.6709 33.2043 88.557 32.7075 88.3291C32.2108 88.1012 31.8234 87.7913 31.5454 87.3994C31.2674 87.0075 31.1284 86.5951 31.1284 86.1621H33.2817C33.2909 86.5039 33.4048 86.7546 33.6235 86.9141C33.8423 87.069 34.1226 87.1465 34.4644 87.1465C34.7788 87.1465 35.0135 87.0827 35.1685 86.9551C35.328 86.8275 35.4077 86.6611 35.4077 86.4561Z" fill="black"/>
<path d="M41.8403 86.8936C42.1639 86.8936 42.4146 86.807 42.5923 86.6338C42.77 86.4561 42.8566 86.21 42.8521 85.8955H45.0122C45.0122 86.7067 44.7205 87.3721 44.1372 87.8916C43.5584 88.4111 42.811 88.6709 41.895 88.6709C40.8195 88.6709 39.9718 88.3337 39.3521 87.6592C38.7323 86.9847 38.4224 86.0505 38.4224 84.8564V84.7607C38.4224 84.0133 38.5591 83.3548 38.8325 82.7852C39.1105 82.2109 39.5093 81.7712 40.0288 81.4658C40.5483 81.1559 41.1636 81.001 41.8745 81.001C42.8361 81.001 43.5994 81.2676 44.1646 81.8008C44.7297 82.334 45.0122 83.0563 45.0122 83.9678H42.8521C42.8521 83.585 42.7586 83.291 42.5718 83.0859C42.3849 82.8809 42.1343 82.7783 41.8198 82.7783C41.2228 82.7783 40.8742 83.1589 40.7739 83.9199C40.742 84.1615 40.7261 84.4941 40.7261 84.918C40.7261 85.6608 40.8149 86.1758 40.9927 86.4629C41.1704 86.75 41.453 86.8936 41.8403 86.8936Z" fill="black"/>
<path d="M50.4604 83.2227L49.7017 83.168C48.9771 83.168 48.5122 83.3958 48.3071 83.8516V88.5342H46.0034V81.1377H48.1636L48.2388 82.0879C48.6261 81.3633 49.1662 81.001 49.8589 81.001C50.105 81.001 50.3192 81.0283 50.5015 81.083L50.4604 83.2227Z" fill="black"/>
<path d="M53.7212 88.5342H51.4106V81.1377H53.7212V88.5342ZM51.2739 79.2305C51.2739 78.9023 51.3924 78.6335 51.6294 78.4238C51.8664 78.2142 52.174 78.1094 52.5522 78.1094C52.9305 78.1094 53.2381 78.2142 53.4751 78.4238C53.7121 78.6335 53.8306 78.9023 53.8306 79.2305C53.8306 79.5586 53.7121 79.8275 53.4751 80.0371C53.2381 80.2467 52.9305 80.3516 52.5522 80.3516C52.174 80.3516 51.8664 80.2467 51.6294 80.0371C51.3924 79.8275 51.2739 79.5586 51.2739 79.2305Z" fill="black"/>
<path d="M62.0132 84.8906C62.0132 86.0391 61.7534 86.9574 61.2339 87.6455C60.7189 88.3291 60.0216 88.6709 59.1421 88.6709C58.4631 88.6709 57.9048 88.4225 57.4673 87.9258V91.3779H55.1636V81.1377H57.3169L57.3853 81.8213C57.8273 81.2744 58.4084 81.001 59.1284 81.001C60.0399 81.001 60.7485 81.3382 61.2544 82.0127C61.7603 82.6826 62.0132 83.6055 62.0132 84.7812V84.8906ZM59.7095 84.7471C59.7095 83.4346 59.3267 82.7783 58.561 82.7783C58.0142 82.7783 57.6496 82.9743 57.4673 83.3662V86.2783C57.6678 86.6885 58.0369 86.8936 58.5747 86.8936C59.3084 86.8936 59.6867 86.2601 59.7095 84.9932V84.7471Z" fill="black"/>
<path d="M65.7183 79.2988V81.1377H66.9351V82.7373H65.7183V86.1211C65.7183 86.3991 65.7684 86.5928 65.8687 86.7021C65.9689 86.8115 66.1672 86.8662 66.4634 86.8662C66.6912 86.8662 66.8827 86.8525 67.0376 86.8252V88.4727C66.6229 88.6048 66.1899 88.6709 65.7388 88.6709C64.9458 88.6709 64.3602 88.484 63.9819 88.1104C63.6037 87.7367 63.4146 87.1693 63.4146 86.4082V82.7373H62.4712V81.1377H63.4146V79.2988H65.7183Z" fill="black"/>
</g>
<g id="icon">
<path id="Vector" d="M4.56201 0.205078C2.90068 0.205078 1.56201 1.54374 1.56201 3.20508V61.2051C1.56201 62.8664 2.90068 64.2051 4.56201 64.2051H62.562C64.2233 64.2051 65.562 62.8664 65.562 61.2051V3.20508C65.562 1.54374 64.2233 0.205078 62.562 0.205078H4.56201ZM50.8633 26.2051C52.4953 26.2051 53.9407 26.3037 55.202 26.5011C56.3917 26.6793 57.5591 26.9832 58.6847 27.4077V33.9624C58.1444 33.5888 57.5703 33.2665 56.97 32.9997C56.3509 32.7212 55.7118 32.4894 55.058 32.3064C53.8196 31.9613 52.5409 31.782 51.2553 31.7731C50.4553 31.7731 49.7273 31.8477 49.0713 32.0024C48.4867 32.1275 47.9258 32.3453 47.41 32.6477C46.9567 32.9251 46.61 33.2584 46.362 33.6451C46.1126 34.0348 45.9828 34.4891 45.9887 34.9517C45.9887 35.4744 46.13 35.9464 46.4047 36.3624C46.682 36.7784 47.0767 37.1731 47.586 37.5464C48.0953 37.9197 48.714 38.2824 49.442 38.6397C50.17 38.9997 50.994 39.3704 51.9113 39.7491C53.1647 40.2744 54.29 40.8344 55.2873 41.4237C56.2847 42.0157 57.1407 42.6851 57.8553 43.4317C58.57 44.1757 59.114 45.0264 59.4927 45.9837C59.8713 46.9411 60.0633 48.0531 60.0633 49.3251C60.0633 51.0771 59.73 52.5517 59.0687 53.7411C58.4225 54.9141 57.4952 55.9083 56.37 56.6344C55.1572 57.4035 53.8129 57.9422 52.4047 58.2237C50.8953 58.5437 49.3033 58.7037 47.6313 58.7037C45.9857 58.711 44.3431 58.5646 42.7247 58.2664C41.3245 58.0242 39.9665 57.5815 38.6927 56.9517V49.9384C41.1028 51.9894 44.1601 53.1228 47.3247 53.1384C48.2127 53.1384 48.9887 53.0584 49.65 52.8984C50.314 52.7384 50.866 52.5144 51.3113 52.2317C51.754 51.9437 52.0847 51.6077 52.306 51.2184C52.5506 50.7651 52.6619 50.2518 52.627 49.7379C52.5921 49.224 52.4124 48.7305 52.1087 48.3144C51.7125 47.7901 51.2279 47.3389 50.6767 46.9811C49.9931 46.528 49.2733 46.132 48.5247 45.7971C47.6373 45.3918 46.742 45.0042 45.8393 44.6344C43.3913 43.6131 41.5673 42.3624 40.3647 40.8877C39.1647 39.4131 38.562 37.6291 38.562 35.5411C38.562 33.9037 38.89 32.4984 39.546 31.3224C40.202 30.1464 41.0927 29.1784 42.2233 28.4184C43.4192 27.6295 44.7469 27.0614 46.1433 26.7411C47.69 26.3764 49.2744 26.1965 50.8633 26.2051ZM10.562 26.7064H36.0633V32.4824H26.9113V58.2051H19.666V32.4824H10.562V26.7064Z" fill="black"/>
</g>
</g>
</svg>
