<svg width="65" height="90" viewBox="0 0 65 90" fill="none" xmlns="http://www.w3.org/2000/svg">
<g id="uml">
<g id="txt">
<path d="M25.8281 79.5811V86.0957C25.8281 86.834 25.6709 87.4743 25.3564 88.0166C25.042 88.5544 24.5908 88.9645 24.0029 89.2471C23.415 89.5296 22.7201 89.6709 21.918 89.6709C20.7057 89.6709 19.751 89.3564 19.0537 88.7275C18.3564 88.0986 18.001 87.2373 17.9873 86.1436V79.5811H20.4004V86.1914C20.4277 87.2806 20.9336 87.8252 21.918 87.8252C22.4147 87.8252 22.7907 87.6885 23.0459 87.415C23.3011 87.1416 23.4287 86.6973 23.4287 86.082V79.5811H25.8281Z" fill="black"/>
<path d="M30.4834 79.5811L32.7051 86.5059L34.9199 79.5811H38.0781V89.5342H35.6719V87.21L35.9043 82.4521L33.498 89.5342H31.9121L29.499 82.4453L29.7314 87.21V89.5342H27.332V79.5811H30.4834Z" fill="black"/>
<path d="M42.0088 87.6885H46.1855V89.5342H39.6094V79.5811H42.0088V87.6885Z" fill="black"/>
</g>
<g id="icon">
<g id="Group 68">
<path id="Vector" d="M12.5038 55.1833V36.4406L16.097 56.6828L21.947 59.5985L25.7074 42.7714V61.1813L32.3093 64.4295V33.3586L22.2812 28.6102L19.1057 43.4378L15.9025 25.556L5.92969 20.7803V51.8791L12.5038 55.1833Z" fill="#070707"/>
<path id="Vector_2" d="M33.2285 33.3508L43.7028 27.9082V50.4547L58.1878 42.9583L58.2436 51.4546L33.2568 64.5882L33.2285 33.3508Z" fill="#070707"/>
<path id="Vector_3" d="M29.0053 0.587891L21.5987 7.1365C21.5987 7.1365 36.0496 14.5644 37.8051 15.4423C39.5608 16.3199 42.0593 18.008 39.3582 20.5068C36.6571 23.0053 33.686 22.6676 31.6602 21.6547C29.6344 20.6418 14.6434 13.0788 14.6434 13.0788L7.01318 19.5612C7.01318 19.5612 21.7337 27.0566 24.1649 28.3396C26.5959 29.6229 35.6445 32.7964 44.2203 26.1112C52.7962 19.4261 51.581 16.9951 51.581 16.5225C51.581 16.0498 51.3784 13.5513 49.8928 11.9982C48.407 10.4451 44.0855 8.21668 42.2623 7.27131C40.4391 6.32593 29.0053 0.587891 29.0053 0.587891Z" fill="#070707"/>
<g id="Group">
<path id="Vector_4" d="M57.9328 38.6254C57.9328 39.7232 57.0711 40.5846 55.9497 40.5846C54.84 40.5846 53.9551 39.723 53.9551 38.6254C53.9551 37.5511 54.84 36.6895 55.9497 36.6895C57.0714 36.6897 57.9328 37.5511 57.9328 38.6254ZM54.4508 38.6254C54.4508 39.487 55.0883 40.1719 55.9617 40.1719C56.8116 40.1719 57.4372 39.487 57.4372 38.6372C57.4372 37.7753 56.8116 37.0789 55.9497 37.0789C55.0883 37.0791 54.4508 37.7755 54.4508 38.6254ZM55.643 39.6405H55.1944V37.7048C55.3717 37.669 55.6194 37.6456 55.9381 37.6456C56.3038 37.6456 56.4693 37.7048 56.6107 37.7873C56.717 37.8698 56.7995 38.0233 56.7995 38.2121C56.7995 38.4243 56.6345 38.5898 56.3983 38.6607V38.6843C56.5874 38.7553 56.6935 38.8965 56.7524 39.1565C56.8113 39.4517 56.8469 39.5698 56.8938 39.6405H56.4101C56.3509 39.5698 56.3156 39.3925 56.2564 39.1683C56.221 38.9559 56.1029 38.8614 55.8549 38.8614H55.6428V39.6405H55.643ZM55.6548 38.5429H55.8672C56.1152 38.5429 56.3158 38.4604 56.3158 38.2598C56.3158 38.0827 56.1862 37.9646 55.9025 37.9646C55.7844 37.9646 55.7019 37.9764 55.6545 37.9884V38.5429H55.6548Z" fill="#070707"/>
</g>
</g>
</g>
</g>
</svg>
